G04 MADE WITH FRITZING*
G04 WWW.FRITZING.ORG*
G04 DOUBLE SIDED*
G04 HOLES PLATED*
G04 CONTOUR ON CENTER OF CONTOUR VECTOR*
%ASAXBY*%
%FSLAX23Y23*%
%MOIN*%
%OFA0B0*%
%SFA1.0B1.0*%
%ADD10R,0.795200X0.354200X0.779200X0.338200*%
%ADD11C,0.008000*%
%ADD12R,0.173200X0.063000X0.157200X0.047000*%
%ADD13R,5.905520X3.937010X5.889520X3.921010*%
%ADD14C,0.010000*%
%ADD15R,0.001000X0.001000*%
%LNSILK1*%
G90*
G70*
G54D11*
X254Y1346D02*
X1041Y1346D01*
X1041Y1000D01*
X254Y1000D01*
X254Y1346D01*
D02*
X565Y1054D02*
X730Y1054D01*
X730Y999D01*
X565Y999D01*
X565Y1054D01*
D02*
X4Y3933D02*
X5902Y3933D01*
X5902Y4D01*
X4Y4D01*
X4Y3933D01*
D02*
G54D14*
X5097Y2168D02*
X3097Y2168D01*
D02*
X3097Y2168D02*
X3097Y1768D01*
D02*
X3097Y1768D02*
X5097Y1768D01*
D02*
X5097Y2168D02*
X5097Y2018D01*
D02*
X5097Y1918D02*
X5097Y1768D01*
G54D15*
X4655Y3675D02*
X4670Y3675D01*
X4798Y3675D02*
X4863Y3675D01*
X4924Y3675D02*
X4985Y3675D01*
X5046Y3675D02*
X5115Y3675D01*
X5300Y3675D02*
X5368Y3675D01*
X5472Y3675D02*
X5513Y3675D01*
X4654Y3674D02*
X4672Y3674D01*
X4798Y3674D02*
X4865Y3674D01*
X4921Y3674D02*
X4988Y3674D01*
X5044Y3674D02*
X5118Y3674D01*
X5300Y3674D02*
X5371Y3674D01*
X5468Y3674D02*
X5515Y3674D01*
X4652Y3673D02*
X4673Y3673D01*
X4798Y3673D02*
X4866Y3673D01*
X4919Y3673D02*
X4990Y3673D01*
X5043Y3673D02*
X5120Y3673D01*
X5300Y3673D02*
X5373Y3673D01*
X5466Y3673D02*
X5517Y3673D01*
X4652Y3672D02*
X4674Y3672D01*
X4798Y3672D02*
X4867Y3672D01*
X4918Y3672D02*
X4991Y3672D01*
X5042Y3672D02*
X5121Y3672D01*
X5300Y3672D02*
X5375Y3672D01*
X5464Y3672D02*
X5517Y3672D01*
X4651Y3671D02*
X4675Y3671D01*
X4798Y3671D02*
X4867Y3671D01*
X4916Y3671D02*
X4992Y3671D01*
X5041Y3671D02*
X5122Y3671D01*
X5300Y3671D02*
X5377Y3671D01*
X5462Y3671D02*
X5518Y3671D01*
X4650Y3670D02*
X4675Y3670D01*
X4798Y3670D02*
X4868Y3670D01*
X4915Y3670D02*
X4993Y3670D01*
X5041Y3670D02*
X5124Y3670D01*
X5300Y3670D02*
X5378Y3670D01*
X5461Y3670D02*
X5519Y3670D01*
X4650Y3669D02*
X4675Y3669D01*
X4798Y3669D02*
X4868Y3669D01*
X4914Y3669D02*
X4994Y3669D01*
X5041Y3669D02*
X5124Y3669D01*
X5300Y3669D02*
X5379Y3669D01*
X5460Y3669D02*
X5519Y3669D01*
X4650Y3668D02*
X4676Y3668D01*
X4798Y3668D02*
X4868Y3668D01*
X4914Y3668D02*
X4995Y3668D01*
X5040Y3668D02*
X5125Y3668D01*
X5300Y3668D02*
X5381Y3668D01*
X5458Y3668D02*
X5519Y3668D01*
X4650Y3667D02*
X4676Y3667D01*
X4798Y3667D02*
X4869Y3667D01*
X4913Y3667D02*
X4996Y3667D01*
X5040Y3667D02*
X5126Y3667D01*
X5300Y3667D02*
X5382Y3667D01*
X5457Y3667D02*
X5519Y3667D01*
X4650Y3666D02*
X4676Y3666D01*
X4798Y3666D02*
X4869Y3666D01*
X4912Y3666D02*
X4996Y3666D01*
X5040Y3666D02*
X5127Y3666D01*
X5300Y3666D02*
X5382Y3666D01*
X5457Y3666D02*
X5519Y3666D01*
X4650Y3665D02*
X4676Y3665D01*
X4798Y3665D02*
X4868Y3665D01*
X4912Y3665D02*
X4997Y3665D01*
X5040Y3665D02*
X5127Y3665D01*
X5300Y3665D02*
X5383Y3665D01*
X5456Y3665D02*
X5519Y3665D01*
X4650Y3664D02*
X4675Y3664D01*
X4798Y3664D02*
X4868Y3664D01*
X4911Y3664D02*
X4997Y3664D01*
X5041Y3664D02*
X5128Y3664D01*
X5300Y3664D02*
X5384Y3664D01*
X5455Y3664D02*
X5519Y3664D01*
X4650Y3663D02*
X4675Y3663D01*
X4798Y3663D02*
X4868Y3663D01*
X4911Y3663D02*
X4998Y3663D01*
X5041Y3663D02*
X5128Y3663D01*
X5300Y3663D02*
X5385Y3663D01*
X5454Y3663D02*
X5519Y3663D01*
X4650Y3662D02*
X4674Y3662D01*
X4798Y3662D02*
X4867Y3662D01*
X4911Y3662D02*
X4998Y3662D01*
X5041Y3662D02*
X5128Y3662D01*
X5300Y3662D02*
X5385Y3662D01*
X5454Y3662D02*
X5518Y3662D01*
X4650Y3661D02*
X4674Y3661D01*
X4798Y3661D02*
X4867Y3661D01*
X4910Y3661D02*
X4998Y3661D01*
X5042Y3661D02*
X5128Y3661D01*
X5300Y3661D02*
X5386Y3661D01*
X5453Y3661D02*
X5517Y3661D01*
X4650Y3660D02*
X4673Y3660D01*
X4798Y3660D02*
X4866Y3660D01*
X4910Y3660D02*
X4998Y3660D01*
X5043Y3660D02*
X5129Y3660D01*
X5300Y3660D02*
X5387Y3660D01*
X5453Y3660D02*
X5516Y3660D01*
X4650Y3659D02*
X4672Y3659D01*
X4798Y3659D02*
X4864Y3659D01*
X4910Y3659D02*
X4999Y3659D01*
X5044Y3659D02*
X5129Y3659D01*
X5300Y3659D02*
X5387Y3659D01*
X5452Y3659D02*
X5515Y3659D01*
X4650Y3658D02*
X4670Y3658D01*
X4798Y3658D02*
X4863Y3658D01*
X4910Y3658D02*
X4999Y3658D01*
X5046Y3658D02*
X5129Y3658D01*
X5300Y3658D02*
X5387Y3658D01*
X5452Y3658D02*
X5513Y3658D01*
X4650Y3657D02*
X4667Y3657D01*
X4798Y3657D02*
X4815Y3657D01*
X4910Y3657D02*
X4927Y3657D01*
X4981Y3657D02*
X4999Y3657D01*
X5112Y3657D02*
X5129Y3657D01*
X5300Y3657D02*
X5318Y3657D01*
X5365Y3657D02*
X5388Y3657D01*
X5451Y3657D02*
X5474Y3657D01*
X4650Y3656D02*
X4667Y3656D01*
X4798Y3656D02*
X4815Y3656D01*
X4910Y3656D02*
X4927Y3656D01*
X4982Y3656D02*
X4999Y3656D01*
X5112Y3656D02*
X5129Y3656D01*
X5300Y3656D02*
X5318Y3656D01*
X5368Y3656D02*
X5388Y3656D01*
X5451Y3656D02*
X5472Y3656D01*
X4650Y3655D02*
X4667Y3655D01*
X4798Y3655D02*
X4815Y3655D01*
X4910Y3655D02*
X4927Y3655D01*
X4982Y3655D02*
X4999Y3655D01*
X5112Y3655D02*
X5129Y3655D01*
X5300Y3655D02*
X5318Y3655D01*
X5369Y3655D02*
X5388Y3655D01*
X5450Y3655D02*
X5471Y3655D01*
X4650Y3654D02*
X4667Y3654D01*
X4798Y3654D02*
X4815Y3654D01*
X4910Y3654D02*
X4927Y3654D01*
X4982Y3654D02*
X4999Y3654D01*
X5112Y3654D02*
X5129Y3654D01*
X5300Y3654D02*
X5318Y3654D01*
X5370Y3654D02*
X5389Y3654D01*
X5450Y3654D02*
X5470Y3654D01*
X4650Y3653D02*
X4667Y3653D01*
X4798Y3653D02*
X4815Y3653D01*
X4910Y3653D02*
X4927Y3653D01*
X4982Y3653D02*
X4999Y3653D01*
X5112Y3653D02*
X5129Y3653D01*
X5300Y3653D02*
X5318Y3653D01*
X5371Y3653D02*
X5389Y3653D01*
X5449Y3653D02*
X5469Y3653D01*
X4650Y3652D02*
X4667Y3652D01*
X4798Y3652D02*
X4815Y3652D01*
X4910Y3652D02*
X4927Y3652D01*
X4982Y3652D02*
X4999Y3652D01*
X5112Y3652D02*
X5129Y3652D01*
X5300Y3652D02*
X5318Y3652D01*
X5371Y3652D02*
X5389Y3652D01*
X5449Y3652D02*
X5469Y3652D01*
X4650Y3651D02*
X4667Y3651D01*
X4798Y3651D02*
X4815Y3651D01*
X4910Y3651D02*
X4927Y3651D01*
X4982Y3651D02*
X4999Y3651D01*
X5112Y3651D02*
X5129Y3651D01*
X5300Y3651D02*
X5318Y3651D01*
X5372Y3651D02*
X5389Y3651D01*
X5448Y3651D02*
X5468Y3651D01*
X4650Y3650D02*
X4667Y3650D01*
X4798Y3650D02*
X4815Y3650D01*
X4910Y3650D02*
X4927Y3650D01*
X4982Y3650D02*
X4999Y3650D01*
X5112Y3650D02*
X5129Y3650D01*
X5300Y3650D02*
X5318Y3650D01*
X5372Y3650D02*
X5389Y3650D01*
X5448Y3650D02*
X5468Y3650D01*
X4650Y3649D02*
X4667Y3649D01*
X4798Y3649D02*
X4815Y3649D01*
X4910Y3649D02*
X4927Y3649D01*
X4982Y3649D02*
X4999Y3649D01*
X5112Y3649D02*
X5129Y3649D01*
X5300Y3649D02*
X5318Y3649D01*
X5372Y3649D02*
X5389Y3649D01*
X5447Y3649D02*
X5467Y3649D01*
X4650Y3648D02*
X4667Y3648D01*
X4798Y3648D02*
X4815Y3648D01*
X4910Y3648D02*
X4927Y3648D01*
X4982Y3648D02*
X4999Y3648D01*
X5112Y3648D02*
X5129Y3648D01*
X5300Y3648D02*
X5318Y3648D01*
X5372Y3648D02*
X5389Y3648D01*
X5447Y3648D02*
X5466Y3648D01*
X4650Y3647D02*
X4667Y3647D01*
X4798Y3647D02*
X4815Y3647D01*
X4910Y3647D02*
X4927Y3647D01*
X4982Y3647D02*
X4999Y3647D01*
X5112Y3647D02*
X5129Y3647D01*
X5300Y3647D02*
X5318Y3647D01*
X5372Y3647D02*
X5389Y3647D01*
X5446Y3647D02*
X5466Y3647D01*
X4650Y3646D02*
X4667Y3646D01*
X4798Y3646D02*
X4815Y3646D01*
X4910Y3646D02*
X4927Y3646D01*
X4982Y3646D02*
X4999Y3646D01*
X5112Y3646D02*
X5129Y3646D01*
X5300Y3646D02*
X5318Y3646D01*
X5372Y3646D02*
X5389Y3646D01*
X5446Y3646D02*
X5465Y3646D01*
X4650Y3645D02*
X4667Y3645D01*
X4798Y3645D02*
X4815Y3645D01*
X4910Y3645D02*
X4927Y3645D01*
X4982Y3645D02*
X4999Y3645D01*
X5112Y3645D02*
X5129Y3645D01*
X5300Y3645D02*
X5318Y3645D01*
X5372Y3645D02*
X5389Y3645D01*
X5445Y3645D02*
X5465Y3645D01*
X4650Y3644D02*
X4667Y3644D01*
X4798Y3644D02*
X4815Y3644D01*
X4910Y3644D02*
X4927Y3644D01*
X4982Y3644D02*
X4999Y3644D01*
X5112Y3644D02*
X5129Y3644D01*
X5300Y3644D02*
X5318Y3644D01*
X5372Y3644D02*
X5389Y3644D01*
X5445Y3644D02*
X5464Y3644D01*
X4650Y3643D02*
X4667Y3643D01*
X4798Y3643D02*
X4815Y3643D01*
X4910Y3643D02*
X4927Y3643D01*
X4982Y3643D02*
X4999Y3643D01*
X5112Y3643D02*
X5129Y3643D01*
X5300Y3643D02*
X5318Y3643D01*
X5372Y3643D02*
X5389Y3643D01*
X5444Y3643D02*
X5464Y3643D01*
X4650Y3642D02*
X4667Y3642D01*
X4798Y3642D02*
X4815Y3642D01*
X4910Y3642D02*
X4927Y3642D01*
X4982Y3642D02*
X4999Y3642D01*
X5112Y3642D02*
X5129Y3642D01*
X5300Y3642D02*
X5318Y3642D01*
X5372Y3642D02*
X5389Y3642D01*
X5444Y3642D02*
X5463Y3642D01*
X4650Y3641D02*
X4667Y3641D01*
X4798Y3641D02*
X4815Y3641D01*
X4910Y3641D02*
X4927Y3641D01*
X4982Y3641D02*
X4999Y3641D01*
X5112Y3641D02*
X5129Y3641D01*
X5300Y3641D02*
X5318Y3641D01*
X5372Y3641D02*
X5389Y3641D01*
X5443Y3641D02*
X5463Y3641D01*
X4650Y3640D02*
X4667Y3640D01*
X4798Y3640D02*
X4815Y3640D01*
X4910Y3640D02*
X4927Y3640D01*
X4982Y3640D02*
X4999Y3640D01*
X5112Y3640D02*
X5129Y3640D01*
X5300Y3640D02*
X5318Y3640D01*
X5372Y3640D02*
X5389Y3640D01*
X5443Y3640D02*
X5462Y3640D01*
X4650Y3639D02*
X4667Y3639D01*
X4798Y3639D02*
X4815Y3639D01*
X4910Y3639D02*
X4927Y3639D01*
X4982Y3639D02*
X4999Y3639D01*
X5112Y3639D02*
X5129Y3639D01*
X5300Y3639D02*
X5318Y3639D01*
X5372Y3639D02*
X5389Y3639D01*
X5442Y3639D02*
X5462Y3639D01*
X4650Y3638D02*
X4667Y3638D01*
X4798Y3638D02*
X4815Y3638D01*
X4910Y3638D02*
X4927Y3638D01*
X4982Y3638D02*
X4999Y3638D01*
X5112Y3638D02*
X5129Y3638D01*
X5300Y3638D02*
X5318Y3638D01*
X5372Y3638D02*
X5389Y3638D01*
X5442Y3638D02*
X5461Y3638D01*
X4650Y3637D02*
X4667Y3637D01*
X4798Y3637D02*
X4815Y3637D01*
X4910Y3637D02*
X4927Y3637D01*
X4982Y3637D02*
X4999Y3637D01*
X5112Y3637D02*
X5129Y3637D01*
X5300Y3637D02*
X5318Y3637D01*
X5372Y3637D02*
X5389Y3637D01*
X5441Y3637D02*
X5461Y3637D01*
X4650Y3636D02*
X4667Y3636D01*
X4798Y3636D02*
X4815Y3636D01*
X4910Y3636D02*
X4927Y3636D01*
X4982Y3636D02*
X4999Y3636D01*
X5112Y3636D02*
X5129Y3636D01*
X5300Y3636D02*
X5318Y3636D01*
X5372Y3636D02*
X5389Y3636D01*
X5441Y3636D02*
X5460Y3636D01*
X4650Y3635D02*
X4667Y3635D01*
X4798Y3635D02*
X4815Y3635D01*
X4910Y3635D02*
X4927Y3635D01*
X4982Y3635D02*
X4999Y3635D01*
X5112Y3635D02*
X5129Y3635D01*
X5300Y3635D02*
X5318Y3635D01*
X5372Y3635D02*
X5389Y3635D01*
X5440Y3635D02*
X5460Y3635D01*
X4650Y3634D02*
X4667Y3634D01*
X4798Y3634D02*
X4815Y3634D01*
X4910Y3634D02*
X4927Y3634D01*
X4982Y3634D02*
X4999Y3634D01*
X5112Y3634D02*
X5129Y3634D01*
X5300Y3634D02*
X5318Y3634D01*
X5372Y3634D02*
X5389Y3634D01*
X5440Y3634D02*
X5459Y3634D01*
X4650Y3633D02*
X4667Y3633D01*
X4798Y3633D02*
X4815Y3633D01*
X4910Y3633D02*
X4927Y3633D01*
X4982Y3633D02*
X4999Y3633D01*
X5112Y3633D02*
X5129Y3633D01*
X5300Y3633D02*
X5318Y3633D01*
X5372Y3633D02*
X5389Y3633D01*
X5439Y3633D02*
X5459Y3633D01*
X4650Y3632D02*
X4667Y3632D01*
X4798Y3632D02*
X4815Y3632D01*
X4910Y3632D02*
X4927Y3632D01*
X4982Y3632D02*
X4999Y3632D01*
X5112Y3632D02*
X5129Y3632D01*
X5300Y3632D02*
X5318Y3632D01*
X5372Y3632D02*
X5389Y3632D01*
X5439Y3632D02*
X5458Y3632D01*
X4650Y3631D02*
X4667Y3631D01*
X4798Y3631D02*
X4815Y3631D01*
X4910Y3631D02*
X4927Y3631D01*
X4982Y3631D02*
X4999Y3631D01*
X5112Y3631D02*
X5129Y3631D01*
X5300Y3631D02*
X5318Y3631D01*
X5372Y3631D02*
X5389Y3631D01*
X5438Y3631D02*
X5458Y3631D01*
X4650Y3630D02*
X4667Y3630D01*
X4798Y3630D02*
X4815Y3630D01*
X4910Y3630D02*
X4927Y3630D01*
X4982Y3630D02*
X4999Y3630D01*
X5112Y3630D02*
X5129Y3630D01*
X5300Y3630D02*
X5318Y3630D01*
X5372Y3630D02*
X5389Y3630D01*
X5438Y3630D02*
X5457Y3630D01*
X4650Y3629D02*
X4667Y3629D01*
X4798Y3629D02*
X4815Y3629D01*
X4910Y3629D02*
X4927Y3629D01*
X4982Y3629D02*
X4999Y3629D01*
X5112Y3629D02*
X5129Y3629D01*
X5300Y3629D02*
X5318Y3629D01*
X5372Y3629D02*
X5389Y3629D01*
X5437Y3629D02*
X5457Y3629D01*
X4650Y3628D02*
X4667Y3628D01*
X4798Y3628D02*
X4815Y3628D01*
X4910Y3628D02*
X4927Y3628D01*
X4982Y3628D02*
X4999Y3628D01*
X5112Y3628D02*
X5129Y3628D01*
X5300Y3628D02*
X5318Y3628D01*
X5372Y3628D02*
X5389Y3628D01*
X5437Y3628D02*
X5456Y3628D01*
X4650Y3627D02*
X4667Y3627D01*
X4798Y3627D02*
X4815Y3627D01*
X4910Y3627D02*
X4927Y3627D01*
X4982Y3627D02*
X4999Y3627D01*
X5112Y3627D02*
X5129Y3627D01*
X5300Y3627D02*
X5318Y3627D01*
X5372Y3627D02*
X5389Y3627D01*
X5436Y3627D02*
X5456Y3627D01*
X4650Y3626D02*
X4667Y3626D01*
X4798Y3626D02*
X4815Y3626D01*
X4910Y3626D02*
X4927Y3626D01*
X4982Y3626D02*
X4999Y3626D01*
X5112Y3626D02*
X5129Y3626D01*
X5300Y3626D02*
X5318Y3626D01*
X5372Y3626D02*
X5389Y3626D01*
X5436Y3626D02*
X5455Y3626D01*
X4650Y3625D02*
X4667Y3625D01*
X4798Y3625D02*
X4815Y3625D01*
X4910Y3625D02*
X4927Y3625D01*
X4982Y3625D02*
X4999Y3625D01*
X5112Y3625D02*
X5129Y3625D01*
X5300Y3625D02*
X5318Y3625D01*
X5372Y3625D02*
X5389Y3625D01*
X5436Y3625D02*
X5455Y3625D01*
X4650Y3624D02*
X4667Y3624D01*
X4798Y3624D02*
X4815Y3624D01*
X4910Y3624D02*
X4927Y3624D01*
X4982Y3624D02*
X4999Y3624D01*
X5112Y3624D02*
X5129Y3624D01*
X5300Y3624D02*
X5318Y3624D01*
X5372Y3624D02*
X5389Y3624D01*
X5435Y3624D02*
X5454Y3624D01*
X4650Y3623D02*
X4667Y3623D01*
X4798Y3623D02*
X4815Y3623D01*
X4910Y3623D02*
X4927Y3623D01*
X4982Y3623D02*
X4999Y3623D01*
X5112Y3623D02*
X5129Y3623D01*
X5300Y3623D02*
X5318Y3623D01*
X5372Y3623D02*
X5389Y3623D01*
X5435Y3623D02*
X5454Y3623D01*
X4650Y3622D02*
X4667Y3622D01*
X4798Y3622D02*
X4815Y3622D01*
X4910Y3622D02*
X4927Y3622D01*
X4982Y3622D02*
X4999Y3622D01*
X5112Y3622D02*
X5129Y3622D01*
X5300Y3622D02*
X5318Y3622D01*
X5372Y3622D02*
X5389Y3622D01*
X5434Y3622D02*
X5453Y3622D01*
X4650Y3621D02*
X4667Y3621D01*
X4798Y3621D02*
X4815Y3621D01*
X4910Y3621D02*
X4927Y3621D01*
X4982Y3621D02*
X4999Y3621D01*
X5112Y3621D02*
X5129Y3621D01*
X5300Y3621D02*
X5318Y3621D01*
X5372Y3621D02*
X5389Y3621D01*
X5434Y3621D02*
X5453Y3621D01*
X4650Y3620D02*
X4667Y3620D01*
X4798Y3620D02*
X4815Y3620D01*
X4910Y3620D02*
X4927Y3620D01*
X4982Y3620D02*
X4999Y3620D01*
X5112Y3620D02*
X5129Y3620D01*
X5300Y3620D02*
X5318Y3620D01*
X5372Y3620D02*
X5389Y3620D01*
X5433Y3620D02*
X5452Y3620D01*
X4650Y3619D02*
X4667Y3619D01*
X4798Y3619D02*
X4815Y3619D01*
X4910Y3619D02*
X4927Y3619D01*
X4982Y3619D02*
X4999Y3619D01*
X5112Y3619D02*
X5129Y3619D01*
X5300Y3619D02*
X5318Y3619D01*
X5372Y3619D02*
X5389Y3619D01*
X5433Y3619D02*
X5452Y3619D01*
X4650Y3618D02*
X4667Y3618D01*
X4798Y3618D02*
X4815Y3618D01*
X4910Y3618D02*
X4927Y3618D01*
X4982Y3618D02*
X4999Y3618D01*
X5112Y3618D02*
X5129Y3618D01*
X5300Y3618D02*
X5318Y3618D01*
X5372Y3618D02*
X5389Y3618D01*
X5433Y3618D02*
X5451Y3618D01*
X4650Y3617D02*
X4667Y3617D01*
X4798Y3617D02*
X4815Y3617D01*
X4910Y3617D02*
X4927Y3617D01*
X4982Y3617D02*
X4999Y3617D01*
X5112Y3617D02*
X5129Y3617D01*
X5300Y3617D02*
X5318Y3617D01*
X5372Y3617D02*
X5389Y3617D01*
X5432Y3617D02*
X5451Y3617D01*
X4650Y3616D02*
X4667Y3616D01*
X4798Y3616D02*
X4815Y3616D01*
X4910Y3616D02*
X4927Y3616D01*
X4982Y3616D02*
X4999Y3616D01*
X5112Y3616D02*
X5129Y3616D01*
X5300Y3616D02*
X5318Y3616D01*
X5372Y3616D02*
X5389Y3616D01*
X5432Y3616D02*
X5450Y3616D01*
X4650Y3615D02*
X4667Y3615D01*
X4798Y3615D02*
X4815Y3615D01*
X4910Y3615D02*
X4927Y3615D01*
X4982Y3615D02*
X4999Y3615D01*
X5112Y3615D02*
X5129Y3615D01*
X5300Y3615D02*
X5318Y3615D01*
X5372Y3615D02*
X5389Y3615D01*
X5432Y3615D02*
X5450Y3615D01*
X4650Y3614D02*
X4667Y3614D01*
X4798Y3614D02*
X4855Y3614D01*
X4910Y3614D02*
X4927Y3614D01*
X4982Y3614D02*
X4999Y3614D01*
X5055Y3614D02*
X5129Y3614D01*
X5300Y3614D02*
X5318Y3614D01*
X5372Y3614D02*
X5389Y3614D01*
X5432Y3614D02*
X5449Y3614D01*
X4650Y3613D02*
X4667Y3613D01*
X4798Y3613D02*
X4858Y3613D01*
X4910Y3613D02*
X4927Y3613D01*
X4982Y3613D02*
X4999Y3613D01*
X5051Y3613D02*
X5129Y3613D01*
X5300Y3613D02*
X5318Y3613D01*
X5371Y3613D02*
X5389Y3613D01*
X5431Y3613D02*
X5449Y3613D01*
X4650Y3612D02*
X4667Y3612D01*
X4798Y3612D02*
X4859Y3612D01*
X4910Y3612D02*
X4927Y3612D01*
X4982Y3612D02*
X4999Y3612D01*
X5049Y3612D02*
X5129Y3612D01*
X5300Y3612D02*
X5318Y3612D01*
X5371Y3612D02*
X5389Y3612D01*
X5431Y3612D02*
X5449Y3612D01*
X4650Y3611D02*
X4667Y3611D01*
X4798Y3611D02*
X4861Y3611D01*
X4910Y3611D02*
X4927Y3611D01*
X4982Y3611D02*
X4999Y3611D01*
X5048Y3611D02*
X5129Y3611D01*
X5300Y3611D02*
X5318Y3611D01*
X5370Y3611D02*
X5389Y3611D01*
X5431Y3611D02*
X5449Y3611D01*
X4650Y3610D02*
X4667Y3610D01*
X4798Y3610D02*
X4862Y3610D01*
X4910Y3610D02*
X4927Y3610D01*
X4982Y3610D02*
X4999Y3610D01*
X5047Y3610D02*
X5128Y3610D01*
X5300Y3610D02*
X5318Y3610D01*
X5370Y3610D02*
X5389Y3610D01*
X5431Y3610D02*
X5448Y3610D01*
X4650Y3609D02*
X4667Y3609D01*
X4798Y3609D02*
X4863Y3609D01*
X4910Y3609D02*
X4927Y3609D01*
X4982Y3609D02*
X4999Y3609D01*
X5046Y3609D02*
X5128Y3609D01*
X5300Y3609D02*
X5318Y3609D01*
X5369Y3609D02*
X5388Y3609D01*
X5431Y3609D02*
X5448Y3609D01*
X4650Y3608D02*
X4667Y3608D01*
X4798Y3608D02*
X4864Y3608D01*
X4910Y3608D02*
X4927Y3608D01*
X4982Y3608D02*
X4999Y3608D01*
X5045Y3608D02*
X5128Y3608D01*
X5300Y3608D02*
X5318Y3608D01*
X5367Y3608D02*
X5388Y3608D01*
X5431Y3608D02*
X5448Y3608D01*
X4650Y3607D02*
X4667Y3607D01*
X4798Y3607D02*
X4865Y3607D01*
X4910Y3607D02*
X4927Y3607D01*
X4982Y3607D02*
X4999Y3607D01*
X5044Y3607D02*
X5127Y3607D01*
X5300Y3607D02*
X5318Y3607D01*
X5364Y3607D02*
X5388Y3607D01*
X5431Y3607D02*
X5448Y3607D01*
X4650Y3606D02*
X4667Y3606D01*
X4798Y3606D02*
X4866Y3606D01*
X4910Y3606D02*
X4927Y3606D01*
X4982Y3606D02*
X4999Y3606D01*
X5043Y3606D02*
X5127Y3606D01*
X5300Y3606D02*
X5387Y3606D01*
X5431Y3606D02*
X5448Y3606D01*
X4650Y3605D02*
X4667Y3605D01*
X4798Y3605D02*
X4866Y3605D01*
X4910Y3605D02*
X4927Y3605D01*
X4982Y3605D02*
X4999Y3605D01*
X5043Y3605D02*
X5126Y3605D01*
X5300Y3605D02*
X5387Y3605D01*
X5431Y3605D02*
X5448Y3605D01*
X4650Y3604D02*
X4667Y3604D01*
X4798Y3604D02*
X4867Y3604D01*
X4910Y3604D02*
X4927Y3604D01*
X4982Y3604D02*
X4999Y3604D01*
X5042Y3604D02*
X5125Y3604D01*
X5300Y3604D02*
X5386Y3604D01*
X5431Y3604D02*
X5448Y3604D01*
X4650Y3603D02*
X4667Y3603D01*
X4798Y3603D02*
X4867Y3603D01*
X4910Y3603D02*
X4927Y3603D01*
X4982Y3603D02*
X4999Y3603D01*
X5041Y3603D02*
X5124Y3603D01*
X5300Y3603D02*
X5386Y3603D01*
X5431Y3603D02*
X5448Y3603D01*
X4650Y3602D02*
X4667Y3602D01*
X4798Y3602D02*
X4868Y3602D01*
X4910Y3602D02*
X4927Y3602D01*
X4982Y3602D02*
X4999Y3602D01*
X5041Y3602D02*
X5124Y3602D01*
X5300Y3602D02*
X5385Y3602D01*
X5431Y3602D02*
X5448Y3602D01*
X4650Y3601D02*
X4667Y3601D01*
X4798Y3601D02*
X4868Y3601D01*
X4910Y3601D02*
X4927Y3601D01*
X4982Y3601D02*
X4999Y3601D01*
X5041Y3601D02*
X5123Y3601D01*
X5300Y3601D02*
X5385Y3601D01*
X5431Y3601D02*
X5448Y3601D01*
X4650Y3600D02*
X4667Y3600D01*
X4798Y3600D02*
X4868Y3600D01*
X4910Y3600D02*
X4927Y3600D01*
X4982Y3600D02*
X4999Y3600D01*
X5041Y3600D02*
X5121Y3600D01*
X5300Y3600D02*
X5384Y3600D01*
X5431Y3600D02*
X5448Y3600D01*
X4650Y3599D02*
X4731Y3599D01*
X4798Y3599D02*
X4868Y3599D01*
X4910Y3599D02*
X4927Y3599D01*
X4982Y3599D02*
X4999Y3599D01*
X5040Y3599D02*
X5120Y3599D01*
X5300Y3599D02*
X5383Y3599D01*
X5431Y3599D02*
X5449Y3599D01*
X4650Y3598D02*
X4734Y3598D01*
X4798Y3598D02*
X4868Y3598D01*
X4910Y3598D02*
X4927Y3598D01*
X4982Y3598D02*
X4999Y3598D01*
X5040Y3598D02*
X5118Y3598D01*
X5300Y3598D02*
X5382Y3598D01*
X5431Y3598D02*
X5449Y3598D01*
X4650Y3597D02*
X4735Y3597D01*
X4798Y3597D02*
X4869Y3597D01*
X4910Y3597D02*
X4927Y3597D01*
X4982Y3597D02*
X4999Y3597D01*
X5040Y3597D02*
X5115Y3597D01*
X5300Y3597D02*
X5381Y3597D01*
X5432Y3597D02*
X5449Y3597D01*
X4650Y3596D02*
X4736Y3596D01*
X4851Y3596D02*
X4869Y3596D01*
X4910Y3596D02*
X4927Y3596D01*
X4982Y3596D02*
X4999Y3596D01*
X5040Y3596D02*
X5057Y3596D01*
X5300Y3596D02*
X5380Y3596D01*
X5432Y3596D02*
X5450Y3596D01*
X4650Y3595D02*
X4737Y3595D01*
X4851Y3595D02*
X4869Y3595D01*
X4910Y3595D02*
X4927Y3595D01*
X4982Y3595D02*
X4999Y3595D01*
X5040Y3595D02*
X5057Y3595D01*
X5300Y3595D02*
X5379Y3595D01*
X5432Y3595D02*
X5450Y3595D01*
X4650Y3594D02*
X4738Y3594D01*
X4851Y3594D02*
X4869Y3594D01*
X4910Y3594D02*
X4927Y3594D01*
X4982Y3594D02*
X4999Y3594D01*
X5040Y3594D02*
X5057Y3594D01*
X5300Y3594D02*
X5378Y3594D01*
X5432Y3594D02*
X5451Y3594D01*
X4650Y3593D02*
X4738Y3593D01*
X4851Y3593D02*
X4869Y3593D01*
X4910Y3593D02*
X4927Y3593D01*
X4982Y3593D02*
X4999Y3593D01*
X5040Y3593D02*
X5057Y3593D01*
X5300Y3593D02*
X5376Y3593D01*
X5433Y3593D02*
X5451Y3593D01*
X4650Y3592D02*
X4738Y3592D01*
X4851Y3592D02*
X4869Y3592D01*
X4910Y3592D02*
X4927Y3592D01*
X4982Y3592D02*
X4999Y3592D01*
X5040Y3592D02*
X5057Y3592D01*
X5300Y3592D02*
X5375Y3592D01*
X5433Y3592D02*
X5452Y3592D01*
X4650Y3591D02*
X4738Y3591D01*
X4851Y3591D02*
X4869Y3591D01*
X4910Y3591D02*
X4927Y3591D01*
X4982Y3591D02*
X4999Y3591D01*
X5040Y3591D02*
X5057Y3591D01*
X5300Y3591D02*
X5373Y3591D01*
X5433Y3591D02*
X5452Y3591D01*
X4650Y3590D02*
X4738Y3590D01*
X4851Y3590D02*
X4869Y3590D01*
X4910Y3590D02*
X4927Y3590D01*
X4982Y3590D02*
X4999Y3590D01*
X5040Y3590D02*
X5057Y3590D01*
X5300Y3590D02*
X5370Y3590D01*
X5434Y3590D02*
X5453Y3590D01*
X4650Y3589D02*
X4738Y3589D01*
X4851Y3589D02*
X4869Y3589D01*
X4910Y3589D02*
X4927Y3589D01*
X4982Y3589D02*
X4999Y3589D01*
X5040Y3589D02*
X5057Y3589D01*
X5300Y3589D02*
X5366Y3589D01*
X5434Y3589D02*
X5453Y3589D01*
X4650Y3588D02*
X4738Y3588D01*
X4851Y3588D02*
X4869Y3588D01*
X4910Y3588D02*
X4927Y3588D01*
X4982Y3588D02*
X4999Y3588D01*
X5040Y3588D02*
X5057Y3588D01*
X5300Y3588D02*
X5318Y3588D01*
X5435Y3588D02*
X5454Y3588D01*
X4650Y3587D02*
X4738Y3587D01*
X4851Y3587D02*
X4869Y3587D01*
X4910Y3587D02*
X4927Y3587D01*
X4982Y3587D02*
X4999Y3587D01*
X5040Y3587D02*
X5057Y3587D01*
X5300Y3587D02*
X5318Y3587D01*
X5435Y3587D02*
X5454Y3587D01*
X4650Y3586D02*
X4738Y3586D01*
X4851Y3586D02*
X4869Y3586D01*
X4910Y3586D02*
X4927Y3586D01*
X4982Y3586D02*
X4999Y3586D01*
X5040Y3586D02*
X5057Y3586D01*
X5300Y3586D02*
X5318Y3586D01*
X5435Y3586D02*
X5455Y3586D01*
X4650Y3585D02*
X4738Y3585D01*
X4851Y3585D02*
X4869Y3585D01*
X4910Y3585D02*
X4927Y3585D01*
X4982Y3585D02*
X4999Y3585D01*
X5040Y3585D02*
X5057Y3585D01*
X5300Y3585D02*
X5318Y3585D01*
X5436Y3585D02*
X5455Y3585D01*
X4650Y3584D02*
X4738Y3584D01*
X4851Y3584D02*
X4869Y3584D01*
X4910Y3584D02*
X4927Y3584D01*
X4982Y3584D02*
X4999Y3584D01*
X5040Y3584D02*
X5057Y3584D01*
X5300Y3584D02*
X5318Y3584D01*
X5436Y3584D02*
X5456Y3584D01*
X4650Y3583D02*
X4738Y3583D01*
X4851Y3583D02*
X4869Y3583D01*
X4910Y3583D02*
X4927Y3583D01*
X4982Y3583D02*
X4999Y3583D01*
X5040Y3583D02*
X5057Y3583D01*
X5300Y3583D02*
X5318Y3583D01*
X5437Y3583D02*
X5456Y3583D01*
X4650Y3582D02*
X4738Y3582D01*
X4851Y3582D02*
X4869Y3582D01*
X4910Y3582D02*
X4927Y3582D01*
X4982Y3582D02*
X4999Y3582D01*
X5040Y3582D02*
X5057Y3582D01*
X5300Y3582D02*
X5318Y3582D01*
X5437Y3582D02*
X5457Y3582D01*
X4650Y3581D02*
X4667Y3581D01*
X4721Y3581D02*
X4738Y3581D01*
X4851Y3581D02*
X4869Y3581D01*
X4910Y3581D02*
X4927Y3581D01*
X4982Y3581D02*
X4999Y3581D01*
X5040Y3581D02*
X5057Y3581D01*
X5300Y3581D02*
X5318Y3581D01*
X5438Y3581D02*
X5457Y3581D01*
X4650Y3580D02*
X4667Y3580D01*
X4721Y3580D02*
X4738Y3580D01*
X4851Y3580D02*
X4869Y3580D01*
X4910Y3580D02*
X4927Y3580D01*
X4982Y3580D02*
X4999Y3580D01*
X5040Y3580D02*
X5057Y3580D01*
X5300Y3580D02*
X5318Y3580D01*
X5438Y3580D02*
X5458Y3580D01*
X4650Y3579D02*
X4667Y3579D01*
X4721Y3579D02*
X4738Y3579D01*
X4851Y3579D02*
X4869Y3579D01*
X4910Y3579D02*
X4927Y3579D01*
X4982Y3579D02*
X4999Y3579D01*
X5040Y3579D02*
X5057Y3579D01*
X5300Y3579D02*
X5318Y3579D01*
X5439Y3579D02*
X5458Y3579D01*
X4650Y3578D02*
X4667Y3578D01*
X4721Y3578D02*
X4738Y3578D01*
X4851Y3578D02*
X4869Y3578D01*
X4910Y3578D02*
X4927Y3578D01*
X4982Y3578D02*
X4999Y3578D01*
X5040Y3578D02*
X5057Y3578D01*
X5300Y3578D02*
X5318Y3578D01*
X5439Y3578D02*
X5459Y3578D01*
X4650Y3577D02*
X4667Y3577D01*
X4721Y3577D02*
X4738Y3577D01*
X4851Y3577D02*
X4869Y3577D01*
X4910Y3577D02*
X4927Y3577D01*
X4982Y3577D02*
X4999Y3577D01*
X5040Y3577D02*
X5057Y3577D01*
X5300Y3577D02*
X5318Y3577D01*
X5440Y3577D02*
X5459Y3577D01*
X4650Y3576D02*
X4667Y3576D01*
X4721Y3576D02*
X4738Y3576D01*
X4851Y3576D02*
X4869Y3576D01*
X4910Y3576D02*
X4927Y3576D01*
X4982Y3576D02*
X4999Y3576D01*
X5040Y3576D02*
X5057Y3576D01*
X5300Y3576D02*
X5318Y3576D01*
X5440Y3576D02*
X5460Y3576D01*
X4650Y3575D02*
X4667Y3575D01*
X4721Y3575D02*
X4738Y3575D01*
X4851Y3575D02*
X4869Y3575D01*
X4910Y3575D02*
X4927Y3575D01*
X4982Y3575D02*
X4999Y3575D01*
X5040Y3575D02*
X5057Y3575D01*
X5300Y3575D02*
X5318Y3575D01*
X5441Y3575D02*
X5460Y3575D01*
X4650Y3574D02*
X4667Y3574D01*
X4721Y3574D02*
X4738Y3574D01*
X4851Y3574D02*
X4869Y3574D01*
X4910Y3574D02*
X4927Y3574D01*
X4982Y3574D02*
X4999Y3574D01*
X5040Y3574D02*
X5057Y3574D01*
X5300Y3574D02*
X5318Y3574D01*
X5441Y3574D02*
X5461Y3574D01*
X4650Y3573D02*
X4667Y3573D01*
X4721Y3573D02*
X4738Y3573D01*
X4851Y3573D02*
X4869Y3573D01*
X4910Y3573D02*
X4927Y3573D01*
X4982Y3573D02*
X4999Y3573D01*
X5040Y3573D02*
X5057Y3573D01*
X5300Y3573D02*
X5318Y3573D01*
X5442Y3573D02*
X5461Y3573D01*
X4650Y3572D02*
X4667Y3572D01*
X4721Y3572D02*
X4738Y3572D01*
X4851Y3572D02*
X4869Y3572D01*
X4910Y3572D02*
X4927Y3572D01*
X4982Y3572D02*
X4999Y3572D01*
X5040Y3572D02*
X5057Y3572D01*
X5300Y3572D02*
X5318Y3572D01*
X5442Y3572D02*
X5462Y3572D01*
X4650Y3571D02*
X4667Y3571D01*
X4721Y3571D02*
X4738Y3571D01*
X4851Y3571D02*
X4869Y3571D01*
X4910Y3571D02*
X4927Y3571D01*
X4982Y3571D02*
X4999Y3571D01*
X5040Y3571D02*
X5057Y3571D01*
X5300Y3571D02*
X5318Y3571D01*
X5443Y3571D02*
X5462Y3571D01*
X4650Y3570D02*
X4667Y3570D01*
X4721Y3570D02*
X4738Y3570D01*
X4851Y3570D02*
X4869Y3570D01*
X4910Y3570D02*
X4927Y3570D01*
X4982Y3570D02*
X4999Y3570D01*
X5040Y3570D02*
X5057Y3570D01*
X5300Y3570D02*
X5318Y3570D01*
X5443Y3570D02*
X5463Y3570D01*
X4650Y3569D02*
X4667Y3569D01*
X4721Y3569D02*
X4738Y3569D01*
X4851Y3569D02*
X4869Y3569D01*
X4910Y3569D02*
X4927Y3569D01*
X4982Y3569D02*
X4999Y3569D01*
X5040Y3569D02*
X5057Y3569D01*
X5300Y3569D02*
X5318Y3569D01*
X5444Y3569D02*
X5463Y3569D01*
X4650Y3568D02*
X4667Y3568D01*
X4721Y3568D02*
X4738Y3568D01*
X4851Y3568D02*
X4869Y3568D01*
X4910Y3568D02*
X4927Y3568D01*
X4982Y3568D02*
X4999Y3568D01*
X5040Y3568D02*
X5057Y3568D01*
X5300Y3568D02*
X5318Y3568D01*
X5444Y3568D02*
X5464Y3568D01*
X4650Y3567D02*
X4667Y3567D01*
X4721Y3567D02*
X4738Y3567D01*
X4851Y3567D02*
X4869Y3567D01*
X4910Y3567D02*
X4927Y3567D01*
X4982Y3567D02*
X4999Y3567D01*
X5040Y3567D02*
X5057Y3567D01*
X5300Y3567D02*
X5318Y3567D01*
X5445Y3567D02*
X5464Y3567D01*
X4650Y3566D02*
X4667Y3566D01*
X4721Y3566D02*
X4738Y3566D01*
X4851Y3566D02*
X4869Y3566D01*
X4910Y3566D02*
X4927Y3566D01*
X4982Y3566D02*
X4999Y3566D01*
X5040Y3566D02*
X5057Y3566D01*
X5300Y3566D02*
X5318Y3566D01*
X5445Y3566D02*
X5465Y3566D01*
X4650Y3565D02*
X4667Y3565D01*
X4721Y3565D02*
X4738Y3565D01*
X4851Y3565D02*
X4869Y3565D01*
X4910Y3565D02*
X4927Y3565D01*
X4982Y3565D02*
X4999Y3565D01*
X5040Y3565D02*
X5057Y3565D01*
X5300Y3565D02*
X5318Y3565D01*
X5446Y3565D02*
X5465Y3565D01*
X4650Y3564D02*
X4667Y3564D01*
X4721Y3564D02*
X4738Y3564D01*
X4851Y3564D02*
X4869Y3564D01*
X4910Y3564D02*
X4927Y3564D01*
X4982Y3564D02*
X4999Y3564D01*
X5040Y3564D02*
X5057Y3564D01*
X5300Y3564D02*
X5318Y3564D01*
X5446Y3564D02*
X5466Y3564D01*
X4650Y3563D02*
X4667Y3563D01*
X4721Y3563D02*
X4738Y3563D01*
X4851Y3563D02*
X4869Y3563D01*
X4910Y3563D02*
X4927Y3563D01*
X4982Y3563D02*
X4999Y3563D01*
X5040Y3563D02*
X5057Y3563D01*
X5300Y3563D02*
X5318Y3563D01*
X5447Y3563D02*
X5466Y3563D01*
X4650Y3562D02*
X4667Y3562D01*
X4721Y3562D02*
X4738Y3562D01*
X4851Y3562D02*
X4869Y3562D01*
X4910Y3562D02*
X4927Y3562D01*
X4982Y3562D02*
X4999Y3562D01*
X5040Y3562D02*
X5057Y3562D01*
X5300Y3562D02*
X5318Y3562D01*
X5447Y3562D02*
X5467Y3562D01*
X4650Y3561D02*
X4667Y3561D01*
X4721Y3561D02*
X4738Y3561D01*
X4851Y3561D02*
X4869Y3561D01*
X4910Y3561D02*
X4927Y3561D01*
X4982Y3561D02*
X4999Y3561D01*
X5040Y3561D02*
X5057Y3561D01*
X5300Y3561D02*
X5318Y3561D01*
X5448Y3561D02*
X5467Y3561D01*
X4650Y3560D02*
X4667Y3560D01*
X4721Y3560D02*
X4738Y3560D01*
X4785Y3560D02*
X4792Y3560D01*
X4851Y3560D02*
X4869Y3560D01*
X4910Y3560D02*
X4927Y3560D01*
X4982Y3560D02*
X4999Y3560D01*
X5040Y3560D02*
X5057Y3560D01*
X5300Y3560D02*
X5318Y3560D01*
X5448Y3560D02*
X5468Y3560D01*
X4650Y3559D02*
X4667Y3559D01*
X4721Y3559D02*
X4738Y3559D01*
X4783Y3559D02*
X4794Y3559D01*
X4851Y3559D02*
X4869Y3559D01*
X4910Y3559D02*
X4927Y3559D01*
X4982Y3559D02*
X4999Y3559D01*
X5040Y3559D02*
X5057Y3559D01*
X5300Y3559D02*
X5318Y3559D01*
X5449Y3559D02*
X5468Y3559D01*
X4650Y3558D02*
X4667Y3558D01*
X4721Y3558D02*
X4738Y3558D01*
X4782Y3558D02*
X4797Y3558D01*
X4851Y3558D02*
X4869Y3558D01*
X4910Y3558D02*
X4927Y3558D01*
X4982Y3558D02*
X4999Y3558D01*
X5040Y3558D02*
X5057Y3558D01*
X5300Y3558D02*
X5318Y3558D01*
X5449Y3558D02*
X5469Y3558D01*
X4650Y3557D02*
X4667Y3557D01*
X4721Y3557D02*
X4738Y3557D01*
X4781Y3557D02*
X4799Y3557D01*
X4851Y3557D02*
X4869Y3557D01*
X4910Y3557D02*
X4927Y3557D01*
X4982Y3557D02*
X4999Y3557D01*
X5040Y3557D02*
X5057Y3557D01*
X5300Y3557D02*
X5318Y3557D01*
X5450Y3557D02*
X5470Y3557D01*
X4650Y3556D02*
X4667Y3556D01*
X4721Y3556D02*
X4738Y3556D01*
X4781Y3556D02*
X4801Y3556D01*
X4851Y3556D02*
X4869Y3556D01*
X4910Y3556D02*
X4927Y3556D01*
X4982Y3556D02*
X4999Y3556D01*
X5040Y3556D02*
X5057Y3556D01*
X5300Y3556D02*
X5318Y3556D01*
X5450Y3556D02*
X5470Y3556D01*
X4650Y3555D02*
X4667Y3555D01*
X4721Y3555D02*
X4738Y3555D01*
X4780Y3555D02*
X4804Y3555D01*
X4851Y3555D02*
X4869Y3555D01*
X4910Y3555D02*
X4927Y3555D01*
X4982Y3555D02*
X4999Y3555D01*
X5040Y3555D02*
X5057Y3555D01*
X5300Y3555D02*
X5318Y3555D01*
X5451Y3555D02*
X5471Y3555D01*
X4650Y3554D02*
X4667Y3554D01*
X4721Y3554D02*
X4738Y3554D01*
X4780Y3554D02*
X4806Y3554D01*
X4851Y3554D02*
X4869Y3554D01*
X4910Y3554D02*
X4927Y3554D01*
X4982Y3554D02*
X4999Y3554D01*
X5040Y3554D02*
X5057Y3554D01*
X5300Y3554D02*
X5318Y3554D01*
X5451Y3554D02*
X5473Y3554D01*
X4650Y3553D02*
X4738Y3553D01*
X4780Y3553D02*
X4869Y3553D01*
X4910Y3553D02*
X4999Y3553D01*
X5040Y3553D02*
X5122Y3553D01*
X5300Y3553D02*
X5318Y3553D01*
X5452Y3553D02*
X5513Y3553D01*
X4650Y3552D02*
X4738Y3552D01*
X4780Y3552D02*
X4868Y3552D01*
X4910Y3552D02*
X4999Y3552D01*
X5040Y3552D02*
X5124Y3552D01*
X5300Y3552D02*
X5318Y3552D01*
X5452Y3552D02*
X5515Y3552D01*
X4650Y3551D02*
X4738Y3551D01*
X4780Y3551D02*
X4868Y3551D01*
X4910Y3551D02*
X4998Y3551D01*
X5040Y3551D02*
X5126Y3551D01*
X5300Y3551D02*
X5318Y3551D01*
X5453Y3551D02*
X5516Y3551D01*
X4650Y3550D02*
X4738Y3550D01*
X4780Y3550D02*
X4868Y3550D01*
X4910Y3550D02*
X4998Y3550D01*
X5040Y3550D02*
X5127Y3550D01*
X5300Y3550D02*
X5318Y3550D01*
X5454Y3550D02*
X5517Y3550D01*
X4650Y3549D02*
X4738Y3549D01*
X4780Y3549D02*
X4868Y3549D01*
X4911Y3549D02*
X4998Y3549D01*
X5040Y3549D02*
X5127Y3549D01*
X5300Y3549D02*
X5318Y3549D01*
X5454Y3549D02*
X5518Y3549D01*
X4650Y3548D02*
X4738Y3548D01*
X4781Y3548D02*
X4868Y3548D01*
X4911Y3548D02*
X4998Y3548D01*
X5040Y3548D02*
X5128Y3548D01*
X5300Y3548D02*
X5318Y3548D01*
X5455Y3548D02*
X5518Y3548D01*
X4650Y3547D02*
X4738Y3547D01*
X4781Y3547D02*
X4867Y3547D01*
X4911Y3547D02*
X4998Y3547D01*
X5040Y3547D02*
X5128Y3547D01*
X5300Y3547D02*
X5318Y3547D01*
X5455Y3547D02*
X5519Y3547D01*
X4650Y3546D02*
X4738Y3546D01*
X4782Y3546D02*
X4867Y3546D01*
X4912Y3546D02*
X4997Y3546D01*
X5040Y3546D02*
X5129Y3546D01*
X5300Y3546D02*
X5318Y3546D01*
X5456Y3546D02*
X5519Y3546D01*
X4650Y3545D02*
X4738Y3545D01*
X4783Y3545D02*
X4866Y3545D01*
X4912Y3545D02*
X4997Y3545D01*
X5040Y3545D02*
X5129Y3545D01*
X5300Y3545D02*
X5318Y3545D01*
X5457Y3545D02*
X5519Y3545D01*
X4650Y3544D02*
X4738Y3544D01*
X4784Y3544D02*
X4866Y3544D01*
X4913Y3544D02*
X4996Y3544D01*
X5040Y3544D02*
X5129Y3544D01*
X5301Y3544D02*
X5318Y3544D01*
X5458Y3544D02*
X5519Y3544D01*
X4650Y3543D02*
X4738Y3543D01*
X4786Y3543D02*
X4865Y3543D01*
X4913Y3543D02*
X4995Y3543D01*
X5040Y3543D02*
X5129Y3543D01*
X5301Y3543D02*
X5318Y3543D01*
X5459Y3543D02*
X5519Y3543D01*
X4650Y3542D02*
X4738Y3542D01*
X4788Y3542D02*
X4864Y3542D01*
X4914Y3542D02*
X4994Y3542D01*
X5040Y3542D02*
X5129Y3542D01*
X5301Y3542D02*
X5317Y3542D01*
X5460Y3542D02*
X5519Y3542D01*
X4650Y3541D02*
X4738Y3541D01*
X4791Y3541D02*
X4863Y3541D01*
X4915Y3541D02*
X4994Y3541D01*
X5040Y3541D02*
X5128Y3541D01*
X5301Y3541D02*
X5317Y3541D01*
X5461Y3541D02*
X5519Y3541D01*
X4651Y3540D02*
X4737Y3540D01*
X4793Y3540D02*
X4862Y3540D01*
X4916Y3540D02*
X4993Y3540D01*
X5040Y3540D02*
X5128Y3540D01*
X5302Y3540D02*
X5317Y3540D01*
X5462Y3540D02*
X5518Y3540D01*
X4651Y3539D02*
X4737Y3539D01*
X4795Y3539D02*
X4861Y3539D01*
X4917Y3539D02*
X4991Y3539D01*
X5040Y3539D02*
X5127Y3539D01*
X5302Y3539D02*
X5316Y3539D01*
X5464Y3539D02*
X5518Y3539D01*
X4652Y3538D02*
X4736Y3538D01*
X4797Y3538D02*
X4860Y3538D01*
X4919Y3538D02*
X4990Y3538D01*
X5040Y3538D02*
X5126Y3538D01*
X5303Y3538D02*
X5315Y3538D01*
X5466Y3538D02*
X5517Y3538D01*
X4653Y3537D02*
X4735Y3537D01*
X4800Y3537D02*
X4858Y3537D01*
X4920Y3537D02*
X4988Y3537D01*
X5040Y3537D02*
X5125Y3537D01*
X5304Y3537D02*
X5314Y3537D01*
X5468Y3537D02*
X5516Y3537D01*
X4655Y3536D02*
X4733Y3536D01*
X4804Y3536D02*
X4855Y3536D01*
X4923Y3536D02*
X4986Y3536D01*
X5040Y3536D02*
X5123Y3536D01*
X5306Y3536D02*
X5312Y3536D01*
X5471Y3536D02*
X5514Y3536D01*
X4785Y3444D02*
X4793Y3444D01*
X5074Y3444D02*
X5082Y3444D01*
X4783Y3443D02*
X4794Y3443D01*
X5072Y3443D02*
X5084Y3443D01*
X4782Y3442D02*
X4795Y3442D01*
X5072Y3442D02*
X5084Y3442D01*
X4782Y3441D02*
X4796Y3441D01*
X5071Y3441D02*
X5085Y3441D01*
X4622Y3440D02*
X4668Y3440D01*
X4782Y3440D02*
X4796Y3440D01*
X4987Y3440D02*
X4990Y3440D01*
X5027Y3440D02*
X5029Y3440D01*
X5071Y3440D02*
X5085Y3440D01*
X5204Y3440D02*
X5207Y3440D01*
X5426Y3440D02*
X5443Y3440D01*
X4622Y3439D02*
X4669Y3439D01*
X4782Y3439D02*
X4796Y3439D01*
X4985Y3439D02*
X4991Y3439D01*
X5025Y3439D02*
X5031Y3439D01*
X5071Y3439D02*
X5085Y3439D01*
X5202Y3439D02*
X5208Y3439D01*
X5424Y3439D02*
X5445Y3439D01*
X4622Y3438D02*
X4670Y3438D01*
X4782Y3438D02*
X4796Y3438D01*
X4985Y3438D02*
X4992Y3438D01*
X5024Y3438D02*
X5032Y3438D01*
X5071Y3438D02*
X5085Y3438D01*
X5202Y3438D02*
X5209Y3438D01*
X5423Y3438D02*
X5446Y3438D01*
X4622Y3437D02*
X4671Y3437D01*
X4782Y3437D02*
X4796Y3437D01*
X4984Y3437D02*
X4993Y3437D01*
X5024Y3437D02*
X5032Y3437D01*
X5071Y3437D02*
X5085Y3437D01*
X5201Y3437D02*
X5209Y3437D01*
X5423Y3437D02*
X5446Y3437D01*
X4622Y3436D02*
X4671Y3436D01*
X4782Y3436D02*
X4796Y3436D01*
X4984Y3436D02*
X4993Y3436D01*
X5024Y3436D02*
X5033Y3436D01*
X5071Y3436D02*
X5085Y3436D01*
X5201Y3436D02*
X5210Y3436D01*
X5423Y3436D02*
X5446Y3436D01*
X4622Y3435D02*
X4671Y3435D01*
X4782Y3435D02*
X4796Y3435D01*
X4984Y3435D02*
X4993Y3435D01*
X5024Y3435D02*
X5033Y3435D01*
X5071Y3435D02*
X5085Y3435D01*
X5201Y3435D02*
X5210Y3435D01*
X5423Y3435D02*
X5446Y3435D01*
X4622Y3434D02*
X4671Y3434D01*
X4782Y3434D02*
X4796Y3434D01*
X4984Y3434D02*
X4993Y3434D01*
X5024Y3434D02*
X5033Y3434D01*
X5071Y3434D02*
X5085Y3434D01*
X5201Y3434D02*
X5210Y3434D01*
X5423Y3434D02*
X5446Y3434D01*
X4622Y3433D02*
X4670Y3433D01*
X4782Y3433D02*
X4795Y3433D01*
X4984Y3433D02*
X4993Y3433D01*
X5024Y3433D02*
X5033Y3433D01*
X5072Y3433D02*
X5084Y3433D01*
X5201Y3433D02*
X5210Y3433D01*
X5423Y3433D02*
X5446Y3433D01*
X4622Y3432D02*
X4670Y3432D01*
X4783Y3432D02*
X4794Y3432D01*
X4984Y3432D02*
X4993Y3432D01*
X5024Y3432D02*
X5033Y3432D01*
X5072Y3432D02*
X5084Y3432D01*
X5201Y3432D02*
X5210Y3432D01*
X5424Y3432D02*
X5446Y3432D01*
X4622Y3431D02*
X4669Y3431D01*
X4784Y3431D02*
X4793Y3431D01*
X4984Y3431D02*
X4993Y3431D01*
X5024Y3431D02*
X5033Y3431D01*
X5074Y3431D02*
X5082Y3431D01*
X5201Y3431D02*
X5210Y3431D01*
X5425Y3431D02*
X5446Y3431D01*
X4622Y3430D02*
X4632Y3430D01*
X4984Y3430D02*
X4993Y3430D01*
X5024Y3430D02*
X5033Y3430D01*
X5201Y3430D02*
X5210Y3430D01*
X5437Y3430D02*
X5446Y3430D01*
X4622Y3429D02*
X4631Y3429D01*
X4984Y3429D02*
X4993Y3429D01*
X5024Y3429D02*
X5033Y3429D01*
X5201Y3429D02*
X5210Y3429D01*
X5437Y3429D02*
X5446Y3429D01*
X4622Y3428D02*
X4631Y3428D01*
X4984Y3428D02*
X4993Y3428D01*
X5024Y3428D02*
X5033Y3428D01*
X5201Y3428D02*
X5210Y3428D01*
X5437Y3428D02*
X5446Y3428D01*
X4622Y3427D02*
X4631Y3427D01*
X4984Y3427D02*
X4993Y3427D01*
X5024Y3427D02*
X5033Y3427D01*
X5201Y3427D02*
X5210Y3427D01*
X5437Y3427D02*
X5446Y3427D01*
X4622Y3426D02*
X4631Y3426D01*
X4984Y3426D02*
X4993Y3426D01*
X5024Y3426D02*
X5033Y3426D01*
X5201Y3426D02*
X5210Y3426D01*
X5437Y3426D02*
X5446Y3426D01*
X4622Y3425D02*
X4631Y3425D01*
X4984Y3425D02*
X4993Y3425D01*
X5024Y3425D02*
X5033Y3425D01*
X5201Y3425D02*
X5210Y3425D01*
X5437Y3425D02*
X5446Y3425D01*
X4622Y3424D02*
X4631Y3424D01*
X4984Y3424D02*
X4993Y3424D01*
X5024Y3424D02*
X5033Y3424D01*
X5201Y3424D02*
X5210Y3424D01*
X5437Y3424D02*
X5446Y3424D01*
X4622Y3423D02*
X4631Y3423D01*
X4984Y3423D02*
X4993Y3423D01*
X5024Y3423D02*
X5033Y3423D01*
X5201Y3423D02*
X5210Y3423D01*
X5437Y3423D02*
X5446Y3423D01*
X4622Y3422D02*
X4631Y3422D01*
X4984Y3422D02*
X4993Y3422D01*
X5024Y3422D02*
X5033Y3422D01*
X5201Y3422D02*
X5210Y3422D01*
X5437Y3422D02*
X5446Y3422D01*
X4622Y3421D02*
X4631Y3421D01*
X4984Y3421D02*
X4993Y3421D01*
X5024Y3421D02*
X5033Y3421D01*
X5201Y3421D02*
X5210Y3421D01*
X5437Y3421D02*
X5446Y3421D01*
X4622Y3420D02*
X4631Y3420D01*
X4984Y3420D02*
X4993Y3420D01*
X5024Y3420D02*
X5033Y3420D01*
X5201Y3420D02*
X5210Y3420D01*
X5437Y3420D02*
X5446Y3420D01*
X4622Y3419D02*
X4631Y3419D01*
X4699Y3419D02*
X4700Y3419D01*
X4718Y3419D02*
X4730Y3419D01*
X4776Y3419D02*
X4792Y3419D01*
X4861Y3419D02*
X4884Y3419D01*
X4984Y3419D02*
X4993Y3419D01*
X5024Y3419D02*
X5033Y3419D01*
X5065Y3419D02*
X5081Y3419D01*
X5132Y3419D02*
X5133Y3419D01*
X5144Y3419D02*
X5147Y3419D01*
X5201Y3419D02*
X5210Y3419D01*
X5223Y3419D02*
X5233Y3419D01*
X5289Y3419D02*
X5305Y3419D01*
X5349Y3419D02*
X5350Y3419D01*
X5369Y3419D02*
X5381Y3419D01*
X5437Y3419D02*
X5446Y3419D01*
X5506Y3419D02*
X5522Y3419D01*
X5566Y3419D02*
X5567Y3419D01*
X5606Y3419D02*
X5607Y3419D01*
X4622Y3418D02*
X4631Y3418D01*
X4697Y3418D02*
X4702Y3418D01*
X4716Y3418D02*
X4734Y3418D01*
X4774Y3418D02*
X4794Y3418D01*
X4857Y3418D02*
X4886Y3418D01*
X4984Y3418D02*
X4993Y3418D01*
X5024Y3418D02*
X5033Y3418D01*
X5063Y3418D02*
X5083Y3418D01*
X5129Y3418D02*
X5135Y3418D01*
X5141Y3418D02*
X5150Y3418D01*
X5161Y3418D02*
X5169Y3418D01*
X5201Y3418D02*
X5210Y3418D01*
X5219Y3418D02*
X5237Y3418D01*
X5286Y3418D02*
X5309Y3418D01*
X5347Y3418D02*
X5352Y3418D01*
X5367Y3418D02*
X5385Y3418D01*
X5437Y3418D02*
X5446Y3418D01*
X5503Y3418D02*
X5526Y3418D01*
X5564Y3418D02*
X5569Y3418D01*
X5604Y3418D02*
X5609Y3418D01*
X4622Y3417D02*
X4631Y3417D01*
X4696Y3417D02*
X4703Y3417D01*
X4715Y3417D02*
X4736Y3417D01*
X4773Y3417D02*
X4795Y3417D01*
X4855Y3417D02*
X4887Y3417D01*
X4984Y3417D02*
X4993Y3417D01*
X5024Y3417D02*
X5033Y3417D01*
X5062Y3417D02*
X5084Y3417D01*
X5129Y3417D02*
X5136Y3417D01*
X5139Y3417D02*
X5152Y3417D01*
X5159Y3417D02*
X5171Y3417D01*
X5201Y3417D02*
X5210Y3417D01*
X5217Y3417D02*
X5238Y3417D01*
X5284Y3417D02*
X5311Y3417D01*
X5346Y3417D02*
X5353Y3417D01*
X5366Y3417D02*
X5387Y3417D01*
X5437Y3417D02*
X5446Y3417D01*
X5501Y3417D02*
X5528Y3417D01*
X5563Y3417D02*
X5570Y3417D01*
X5603Y3417D02*
X5610Y3417D01*
X4622Y3416D02*
X4631Y3416D01*
X4695Y3416D02*
X4703Y3416D01*
X4714Y3416D02*
X4737Y3416D01*
X4772Y3416D02*
X4795Y3416D01*
X4853Y3416D02*
X4888Y3416D01*
X4984Y3416D02*
X4993Y3416D01*
X5024Y3416D02*
X5033Y3416D01*
X5061Y3416D02*
X5085Y3416D01*
X5128Y3416D02*
X5136Y3416D01*
X5138Y3416D02*
X5153Y3416D01*
X5158Y3416D02*
X5172Y3416D01*
X5201Y3416D02*
X5210Y3416D01*
X5215Y3416D02*
X5240Y3416D01*
X5282Y3416D02*
X5312Y3416D01*
X5346Y3416D02*
X5354Y3416D01*
X5364Y3416D02*
X5388Y3416D01*
X5437Y3416D02*
X5446Y3416D01*
X5499Y3416D02*
X5529Y3416D01*
X5563Y3416D02*
X5571Y3416D01*
X5602Y3416D02*
X5611Y3416D01*
X4622Y3415D02*
X4631Y3415D01*
X4695Y3415D02*
X4704Y3415D01*
X4713Y3415D02*
X4739Y3415D01*
X4772Y3415D02*
X4796Y3415D01*
X4852Y3415D02*
X4888Y3415D01*
X4984Y3415D02*
X4993Y3415D01*
X5024Y3415D02*
X5033Y3415D01*
X5061Y3415D02*
X5085Y3415D01*
X5128Y3415D02*
X5154Y3415D01*
X5156Y3415D02*
X5173Y3415D01*
X5201Y3415D02*
X5210Y3415D01*
X5213Y3415D02*
X5241Y3415D01*
X5281Y3415D02*
X5314Y3415D01*
X5345Y3415D02*
X5354Y3415D01*
X5363Y3415D02*
X5389Y3415D01*
X5437Y3415D02*
X5446Y3415D01*
X5498Y3415D02*
X5530Y3415D01*
X5562Y3415D02*
X5571Y3415D01*
X5602Y3415D02*
X5611Y3415D01*
X4622Y3414D02*
X4631Y3414D01*
X4695Y3414D02*
X4704Y3414D01*
X4712Y3414D02*
X4740Y3414D01*
X4772Y3414D02*
X4796Y3414D01*
X4851Y3414D02*
X4888Y3414D01*
X4984Y3414D02*
X4993Y3414D01*
X5006Y3414D02*
X5010Y3414D01*
X5024Y3414D02*
X5033Y3414D01*
X5061Y3414D02*
X5085Y3414D01*
X5128Y3414D02*
X5174Y3414D01*
X5201Y3414D02*
X5210Y3414D01*
X5212Y3414D02*
X5242Y3414D01*
X5280Y3414D02*
X5315Y3414D01*
X5345Y3414D02*
X5354Y3414D01*
X5362Y3414D02*
X5390Y3414D01*
X5437Y3414D02*
X5446Y3414D01*
X5497Y3414D02*
X5532Y3414D01*
X5562Y3414D02*
X5571Y3414D01*
X5602Y3414D02*
X5611Y3414D01*
X4622Y3413D02*
X4631Y3413D01*
X4695Y3413D02*
X4704Y3413D01*
X4710Y3413D02*
X4740Y3413D01*
X4772Y3413D02*
X4796Y3413D01*
X4850Y3413D02*
X4888Y3413D01*
X4984Y3413D02*
X4993Y3413D01*
X5005Y3413D02*
X5012Y3413D01*
X5024Y3413D02*
X5033Y3413D01*
X5061Y3413D02*
X5085Y3413D01*
X5128Y3413D02*
X5175Y3413D01*
X5201Y3413D02*
X5244Y3413D01*
X5279Y3413D02*
X5316Y3413D01*
X5345Y3413D02*
X5354Y3413D01*
X5361Y3413D02*
X5391Y3413D01*
X5437Y3413D02*
X5446Y3413D01*
X5496Y3413D02*
X5533Y3413D01*
X5562Y3413D02*
X5571Y3413D01*
X5602Y3413D02*
X5611Y3413D01*
X4622Y3412D02*
X4631Y3412D01*
X4695Y3412D02*
X4704Y3412D01*
X4709Y3412D02*
X4741Y3412D01*
X4772Y3412D02*
X4796Y3412D01*
X4849Y3412D02*
X4888Y3412D01*
X4984Y3412D02*
X4993Y3412D01*
X5004Y3412D02*
X5012Y3412D01*
X5024Y3412D02*
X5033Y3412D01*
X5062Y3412D02*
X5085Y3412D01*
X5128Y3412D02*
X5175Y3412D01*
X5201Y3412D02*
X5245Y3412D01*
X5278Y3412D02*
X5317Y3412D01*
X5345Y3412D02*
X5354Y3412D01*
X5360Y3412D02*
X5392Y3412D01*
X5437Y3412D02*
X5446Y3412D01*
X5495Y3412D02*
X5534Y3412D01*
X5562Y3412D02*
X5571Y3412D01*
X5602Y3412D02*
X5611Y3412D01*
X4622Y3411D02*
X4631Y3411D01*
X4695Y3411D02*
X4704Y3411D01*
X4708Y3411D02*
X4742Y3411D01*
X4773Y3411D02*
X4796Y3411D01*
X4847Y3411D02*
X4887Y3411D01*
X4984Y3411D02*
X4993Y3411D01*
X5004Y3411D02*
X5013Y3411D01*
X5024Y3411D02*
X5033Y3411D01*
X5062Y3411D02*
X5085Y3411D01*
X5128Y3411D02*
X5176Y3411D01*
X5201Y3411D02*
X5246Y3411D01*
X5277Y3411D02*
X5318Y3411D01*
X5345Y3411D02*
X5354Y3411D01*
X5359Y3411D02*
X5392Y3411D01*
X5437Y3411D02*
X5446Y3411D01*
X5494Y3411D02*
X5535Y3411D01*
X5562Y3411D02*
X5571Y3411D01*
X5602Y3411D02*
X5611Y3411D01*
X4622Y3410D02*
X4631Y3410D01*
X4695Y3410D02*
X4704Y3410D01*
X4707Y3410D02*
X4742Y3410D01*
X4774Y3410D02*
X4796Y3410D01*
X4846Y3410D02*
X4886Y3410D01*
X4984Y3410D02*
X4993Y3410D01*
X5004Y3410D02*
X5013Y3410D01*
X5024Y3410D02*
X5033Y3410D01*
X5063Y3410D02*
X5085Y3410D01*
X5128Y3410D02*
X5176Y3410D01*
X5201Y3410D02*
X5247Y3410D01*
X5276Y3410D02*
X5319Y3410D01*
X5345Y3410D02*
X5354Y3410D01*
X5357Y3410D02*
X5393Y3410D01*
X5437Y3410D02*
X5446Y3410D01*
X5493Y3410D02*
X5536Y3410D01*
X5562Y3410D02*
X5571Y3410D01*
X5602Y3410D02*
X5611Y3410D01*
X4622Y3409D02*
X4631Y3409D01*
X4695Y3409D02*
X4704Y3409D01*
X4706Y3409D02*
X4720Y3409D01*
X4730Y3409D02*
X4743Y3409D01*
X4786Y3409D02*
X4796Y3409D01*
X4845Y3409D02*
X4861Y3409D01*
X4984Y3409D02*
X4993Y3409D01*
X5004Y3409D02*
X5013Y3409D01*
X5024Y3409D02*
X5033Y3409D01*
X5076Y3409D02*
X5085Y3409D01*
X5128Y3409D02*
X5144Y3409D01*
X5147Y3409D02*
X5164Y3409D01*
X5166Y3409D02*
X5176Y3409D01*
X5201Y3409D02*
X5223Y3409D01*
X5232Y3409D02*
X5247Y3409D01*
X5275Y3409D02*
X5290Y3409D01*
X5305Y3409D02*
X5319Y3409D01*
X5345Y3409D02*
X5354Y3409D01*
X5356Y3409D02*
X5371Y3409D01*
X5381Y3409D02*
X5393Y3409D01*
X5437Y3409D02*
X5446Y3409D01*
X5492Y3409D02*
X5507Y3409D01*
X5522Y3409D02*
X5536Y3409D01*
X5562Y3409D02*
X5571Y3409D01*
X5602Y3409D02*
X5611Y3409D01*
X4622Y3408D02*
X4631Y3408D01*
X4695Y3408D02*
X4719Y3408D01*
X4732Y3408D02*
X4743Y3408D01*
X4787Y3408D02*
X4796Y3408D01*
X4844Y3408D02*
X4859Y3408D01*
X4984Y3408D02*
X4993Y3408D01*
X5004Y3408D02*
X5013Y3408D01*
X5024Y3408D02*
X5033Y3408D01*
X5076Y3408D02*
X5085Y3408D01*
X5128Y3408D02*
X5143Y3408D01*
X5148Y3408D02*
X5163Y3408D01*
X5167Y3408D02*
X5176Y3408D01*
X5201Y3408D02*
X5220Y3408D01*
X5235Y3408D02*
X5248Y3408D01*
X5275Y3408D02*
X5287Y3408D01*
X5307Y3408D02*
X5320Y3408D01*
X5345Y3408D02*
X5370Y3408D01*
X5383Y3408D02*
X5394Y3408D01*
X5437Y3408D02*
X5446Y3408D01*
X5492Y3408D02*
X5504Y3408D01*
X5524Y3408D02*
X5537Y3408D01*
X5562Y3408D02*
X5571Y3408D01*
X5602Y3408D02*
X5611Y3408D01*
X4622Y3407D02*
X4631Y3407D01*
X4695Y3407D02*
X4718Y3407D01*
X4733Y3407D02*
X4743Y3407D01*
X4787Y3407D02*
X4796Y3407D01*
X4843Y3407D02*
X4858Y3407D01*
X4984Y3407D02*
X4993Y3407D01*
X5004Y3407D02*
X5013Y3407D01*
X5024Y3407D02*
X5033Y3407D01*
X5076Y3407D02*
X5085Y3407D01*
X5128Y3407D02*
X5142Y3407D01*
X5148Y3407D02*
X5162Y3407D01*
X5167Y3407D02*
X5176Y3407D01*
X5201Y3407D02*
X5219Y3407D01*
X5236Y3407D02*
X5248Y3407D01*
X5274Y3407D02*
X5286Y3407D01*
X5309Y3407D02*
X5321Y3407D01*
X5345Y3407D02*
X5369Y3407D01*
X5384Y3407D02*
X5394Y3407D01*
X5437Y3407D02*
X5446Y3407D01*
X5491Y3407D02*
X5503Y3407D01*
X5526Y3407D02*
X5537Y3407D01*
X5562Y3407D02*
X5571Y3407D01*
X5602Y3407D02*
X5611Y3407D01*
X4622Y3406D02*
X4648Y3406D01*
X4695Y3406D02*
X4717Y3406D01*
X4734Y3406D02*
X4743Y3406D01*
X4787Y3406D02*
X4796Y3406D01*
X4842Y3406D02*
X4856Y3406D01*
X4984Y3406D02*
X4993Y3406D01*
X5004Y3406D02*
X5013Y3406D01*
X5024Y3406D02*
X5033Y3406D01*
X5076Y3406D02*
X5085Y3406D01*
X5128Y3406D02*
X5141Y3406D01*
X5148Y3406D02*
X5160Y3406D01*
X5167Y3406D02*
X5176Y3406D01*
X5201Y3406D02*
X5218Y3406D01*
X5237Y3406D02*
X5249Y3406D01*
X5274Y3406D02*
X5285Y3406D01*
X5310Y3406D02*
X5321Y3406D01*
X5345Y3406D02*
X5367Y3406D01*
X5385Y3406D02*
X5394Y3406D01*
X5437Y3406D02*
X5446Y3406D01*
X5491Y3406D02*
X5502Y3406D01*
X5527Y3406D02*
X5538Y3406D01*
X5562Y3406D02*
X5572Y3406D01*
X5601Y3406D02*
X5611Y3406D01*
X4622Y3405D02*
X4650Y3405D01*
X4695Y3405D02*
X4716Y3405D01*
X4734Y3405D02*
X4743Y3405D01*
X4787Y3405D02*
X4796Y3405D01*
X4842Y3405D02*
X4855Y3405D01*
X4984Y3405D02*
X4993Y3405D01*
X5004Y3405D02*
X5013Y3405D01*
X5024Y3405D02*
X5033Y3405D01*
X5076Y3405D02*
X5085Y3405D01*
X5128Y3405D02*
X5139Y3405D01*
X5148Y3405D02*
X5159Y3405D01*
X5167Y3405D02*
X5176Y3405D01*
X5201Y3405D02*
X5217Y3405D01*
X5238Y3405D02*
X5249Y3405D01*
X5274Y3405D02*
X5284Y3405D01*
X5311Y3405D02*
X5321Y3405D01*
X5345Y3405D02*
X5366Y3405D01*
X5385Y3405D02*
X5394Y3405D01*
X5437Y3405D02*
X5446Y3405D01*
X5490Y3405D02*
X5501Y3405D01*
X5528Y3405D02*
X5538Y3405D01*
X5562Y3405D02*
X5572Y3405D01*
X5601Y3405D02*
X5611Y3405D01*
X4622Y3404D02*
X4650Y3404D01*
X4695Y3404D02*
X4714Y3404D01*
X4734Y3404D02*
X4743Y3404D01*
X4787Y3404D02*
X4796Y3404D01*
X4841Y3404D02*
X4854Y3404D01*
X4984Y3404D02*
X4993Y3404D01*
X5004Y3404D02*
X5013Y3404D01*
X5024Y3404D02*
X5033Y3404D01*
X5076Y3404D02*
X5085Y3404D01*
X5128Y3404D02*
X5138Y3404D01*
X5148Y3404D02*
X5158Y3404D01*
X5167Y3404D02*
X5177Y3404D01*
X5201Y3404D02*
X5216Y3404D01*
X5239Y3404D02*
X5249Y3404D01*
X5273Y3404D02*
X5283Y3404D01*
X5312Y3404D02*
X5321Y3404D01*
X5345Y3404D02*
X5365Y3404D01*
X5385Y3404D02*
X5394Y3404D01*
X5437Y3404D02*
X5446Y3404D01*
X5490Y3404D02*
X5500Y3404D01*
X5529Y3404D02*
X5538Y3404D01*
X5562Y3404D02*
X5572Y3404D01*
X5601Y3404D02*
X5611Y3404D01*
X4622Y3403D02*
X4651Y3403D01*
X4695Y3403D02*
X4713Y3403D01*
X4734Y3403D02*
X4743Y3403D01*
X4787Y3403D02*
X4796Y3403D01*
X4841Y3403D02*
X4853Y3403D01*
X4984Y3403D02*
X4993Y3403D01*
X5004Y3403D02*
X5013Y3403D01*
X5024Y3403D02*
X5033Y3403D01*
X5076Y3403D02*
X5085Y3403D01*
X5128Y3403D02*
X5137Y3403D01*
X5148Y3403D02*
X5157Y3403D01*
X5168Y3403D02*
X5177Y3403D01*
X5201Y3403D02*
X5214Y3403D01*
X5240Y3403D02*
X5249Y3403D01*
X5273Y3403D02*
X5282Y3403D01*
X5312Y3403D02*
X5322Y3403D01*
X5345Y3403D02*
X5364Y3403D01*
X5385Y3403D02*
X5394Y3403D01*
X5437Y3403D02*
X5446Y3403D01*
X5490Y3403D02*
X5499Y3403D01*
X5529Y3403D02*
X5538Y3403D01*
X5563Y3403D02*
X5573Y3403D01*
X5600Y3403D02*
X5610Y3403D01*
X4622Y3402D02*
X4651Y3402D01*
X4695Y3402D02*
X4712Y3402D01*
X4734Y3402D02*
X4743Y3402D01*
X4787Y3402D02*
X4796Y3402D01*
X4840Y3402D02*
X4852Y3402D01*
X4984Y3402D02*
X4993Y3402D01*
X5004Y3402D02*
X5013Y3402D01*
X5024Y3402D02*
X5033Y3402D01*
X5076Y3402D02*
X5085Y3402D01*
X5128Y3402D02*
X5137Y3402D01*
X5148Y3402D02*
X5157Y3402D01*
X5168Y3402D02*
X5177Y3402D01*
X5201Y3402D02*
X5213Y3402D01*
X5240Y3402D02*
X5249Y3402D01*
X5273Y3402D02*
X5282Y3402D01*
X5313Y3402D02*
X5322Y3402D01*
X5345Y3402D02*
X5363Y3402D01*
X5385Y3402D02*
X5394Y3402D01*
X5437Y3402D02*
X5446Y3402D01*
X5490Y3402D02*
X5499Y3402D01*
X5529Y3402D02*
X5539Y3402D01*
X5563Y3402D02*
X5573Y3402D01*
X5600Y3402D02*
X5610Y3402D01*
X4622Y3401D02*
X4651Y3401D01*
X4695Y3401D02*
X4711Y3401D01*
X4734Y3401D02*
X4743Y3401D01*
X4787Y3401D02*
X4796Y3401D01*
X4840Y3401D02*
X4851Y3401D01*
X4984Y3401D02*
X4993Y3401D01*
X5004Y3401D02*
X5013Y3401D01*
X5024Y3401D02*
X5033Y3401D01*
X5076Y3401D02*
X5085Y3401D01*
X5128Y3401D02*
X5137Y3401D01*
X5148Y3401D02*
X5157Y3401D01*
X5168Y3401D02*
X5177Y3401D01*
X5201Y3401D02*
X5212Y3401D01*
X5240Y3401D02*
X5249Y3401D01*
X5273Y3401D02*
X5282Y3401D01*
X5313Y3401D02*
X5322Y3401D01*
X5345Y3401D02*
X5362Y3401D01*
X5385Y3401D02*
X5394Y3401D01*
X5437Y3401D02*
X5446Y3401D01*
X5490Y3401D02*
X5499Y3401D01*
X5530Y3401D02*
X5539Y3401D01*
X5564Y3401D02*
X5574Y3401D01*
X5599Y3401D02*
X5609Y3401D01*
X4622Y3400D02*
X4651Y3400D01*
X4695Y3400D02*
X4710Y3400D01*
X4735Y3400D02*
X4743Y3400D01*
X4787Y3400D02*
X4796Y3400D01*
X4840Y3400D02*
X4849Y3400D01*
X4984Y3400D02*
X4993Y3400D01*
X5004Y3400D02*
X5013Y3400D01*
X5024Y3400D02*
X5033Y3400D01*
X5076Y3400D02*
X5085Y3400D01*
X5128Y3400D02*
X5137Y3400D01*
X5148Y3400D02*
X5157Y3400D01*
X5168Y3400D02*
X5177Y3400D01*
X5201Y3400D02*
X5211Y3400D01*
X5240Y3400D02*
X5250Y3400D01*
X5273Y3400D02*
X5282Y3400D01*
X5313Y3400D02*
X5322Y3400D01*
X5345Y3400D02*
X5360Y3400D01*
X5385Y3400D02*
X5394Y3400D01*
X5437Y3400D02*
X5446Y3400D01*
X5490Y3400D02*
X5499Y3400D01*
X5530Y3400D02*
X5539Y3400D01*
X5564Y3400D02*
X5574Y3400D01*
X5599Y3400D02*
X5609Y3400D01*
X4622Y3399D02*
X4651Y3399D01*
X4695Y3399D02*
X4709Y3399D01*
X4735Y3399D02*
X4743Y3399D01*
X4787Y3399D02*
X4796Y3399D01*
X4839Y3399D02*
X4849Y3399D01*
X4984Y3399D02*
X4993Y3399D01*
X5004Y3399D02*
X5013Y3399D01*
X5024Y3399D02*
X5033Y3399D01*
X5076Y3399D02*
X5085Y3399D01*
X5128Y3399D02*
X5137Y3399D01*
X5148Y3399D02*
X5157Y3399D01*
X5168Y3399D02*
X5177Y3399D01*
X5201Y3399D02*
X5210Y3399D01*
X5240Y3399D02*
X5250Y3399D01*
X5273Y3399D02*
X5282Y3399D01*
X5313Y3399D02*
X5322Y3399D01*
X5345Y3399D02*
X5359Y3399D01*
X5386Y3399D02*
X5393Y3399D01*
X5437Y3399D02*
X5446Y3399D01*
X5490Y3399D02*
X5499Y3399D01*
X5530Y3399D02*
X5539Y3399D01*
X5565Y3399D02*
X5575Y3399D01*
X5598Y3399D02*
X5608Y3399D01*
X4622Y3398D02*
X4650Y3398D01*
X4695Y3398D02*
X4707Y3398D01*
X4736Y3398D02*
X4742Y3398D01*
X4787Y3398D02*
X4796Y3398D01*
X4839Y3398D02*
X4848Y3398D01*
X4984Y3398D02*
X4993Y3398D01*
X5004Y3398D02*
X5013Y3398D01*
X5024Y3398D02*
X5033Y3398D01*
X5076Y3398D02*
X5085Y3398D01*
X5128Y3398D02*
X5137Y3398D01*
X5148Y3398D02*
X5157Y3398D01*
X5168Y3398D02*
X5177Y3398D01*
X5201Y3398D02*
X5210Y3398D01*
X5240Y3398D02*
X5250Y3398D01*
X5273Y3398D02*
X5282Y3398D01*
X5313Y3398D02*
X5322Y3398D01*
X5345Y3398D02*
X5358Y3398D01*
X5386Y3398D02*
X5393Y3398D01*
X5437Y3398D02*
X5446Y3398D01*
X5490Y3398D02*
X5499Y3398D01*
X5530Y3398D02*
X5539Y3398D01*
X5565Y3398D02*
X5575Y3398D01*
X5598Y3398D02*
X5608Y3398D01*
X4622Y3397D02*
X4649Y3397D01*
X4695Y3397D02*
X4706Y3397D01*
X4737Y3397D02*
X4741Y3397D01*
X4787Y3397D02*
X4796Y3397D01*
X4839Y3397D02*
X4848Y3397D01*
X4984Y3397D02*
X4993Y3397D01*
X5004Y3397D02*
X5013Y3397D01*
X5024Y3397D02*
X5033Y3397D01*
X5076Y3397D02*
X5085Y3397D01*
X5128Y3397D02*
X5137Y3397D01*
X5148Y3397D02*
X5157Y3397D01*
X5168Y3397D02*
X5177Y3397D01*
X5201Y3397D02*
X5210Y3397D01*
X5240Y3397D02*
X5250Y3397D01*
X5273Y3397D02*
X5282Y3397D01*
X5313Y3397D02*
X5322Y3397D01*
X5345Y3397D02*
X5357Y3397D01*
X5388Y3397D02*
X5391Y3397D01*
X5437Y3397D02*
X5446Y3397D01*
X5490Y3397D02*
X5499Y3397D01*
X5530Y3397D02*
X5539Y3397D01*
X5565Y3397D02*
X5575Y3397D01*
X5597Y3397D02*
X5608Y3397D01*
X4622Y3396D02*
X4632Y3396D01*
X4695Y3396D02*
X4705Y3396D01*
X4787Y3396D02*
X4796Y3396D01*
X4839Y3396D02*
X4848Y3396D01*
X4984Y3396D02*
X4993Y3396D01*
X5004Y3396D02*
X5013Y3396D01*
X5024Y3396D02*
X5033Y3396D01*
X5076Y3396D02*
X5085Y3396D01*
X5128Y3396D02*
X5137Y3396D01*
X5148Y3396D02*
X5157Y3396D01*
X5168Y3396D02*
X5177Y3396D01*
X5201Y3396D02*
X5210Y3396D01*
X5240Y3396D02*
X5250Y3396D01*
X5273Y3396D02*
X5282Y3396D01*
X5313Y3396D02*
X5322Y3396D01*
X5345Y3396D02*
X5356Y3396D01*
X5437Y3396D02*
X5446Y3396D01*
X5490Y3396D02*
X5499Y3396D01*
X5530Y3396D02*
X5539Y3396D01*
X5566Y3396D02*
X5576Y3396D01*
X5597Y3396D02*
X5607Y3396D01*
X4622Y3395D02*
X4631Y3395D01*
X4695Y3395D02*
X4704Y3395D01*
X4787Y3395D02*
X4796Y3395D01*
X4839Y3395D02*
X4848Y3395D01*
X4984Y3395D02*
X4993Y3395D01*
X5004Y3395D02*
X5013Y3395D01*
X5024Y3395D02*
X5033Y3395D01*
X5076Y3395D02*
X5085Y3395D01*
X5128Y3395D02*
X5137Y3395D01*
X5148Y3395D02*
X5157Y3395D01*
X5168Y3395D02*
X5177Y3395D01*
X5201Y3395D02*
X5210Y3395D01*
X5240Y3395D02*
X5250Y3395D01*
X5273Y3395D02*
X5282Y3395D01*
X5313Y3395D02*
X5322Y3395D01*
X5345Y3395D02*
X5355Y3395D01*
X5437Y3395D02*
X5446Y3395D01*
X5490Y3395D02*
X5499Y3395D01*
X5530Y3395D02*
X5539Y3395D01*
X5566Y3395D02*
X5576Y3395D01*
X5597Y3395D02*
X5607Y3395D01*
X4622Y3394D02*
X4631Y3394D01*
X4695Y3394D02*
X4704Y3394D01*
X4787Y3394D02*
X4796Y3394D01*
X4839Y3394D02*
X4848Y3394D01*
X4984Y3394D02*
X4993Y3394D01*
X5004Y3394D02*
X5013Y3394D01*
X5024Y3394D02*
X5033Y3394D01*
X5076Y3394D02*
X5085Y3394D01*
X5128Y3394D02*
X5137Y3394D01*
X5148Y3394D02*
X5157Y3394D01*
X5168Y3394D02*
X5177Y3394D01*
X5201Y3394D02*
X5210Y3394D01*
X5240Y3394D02*
X5250Y3394D01*
X5273Y3394D02*
X5282Y3394D01*
X5313Y3394D02*
X5322Y3394D01*
X5345Y3394D02*
X5354Y3394D01*
X5437Y3394D02*
X5446Y3394D01*
X5490Y3394D02*
X5499Y3394D01*
X5529Y3394D02*
X5539Y3394D01*
X5567Y3394D02*
X5577Y3394D01*
X5596Y3394D02*
X5606Y3394D01*
X4622Y3393D02*
X4631Y3393D01*
X4695Y3393D02*
X4704Y3393D01*
X4787Y3393D02*
X4796Y3393D01*
X4839Y3393D02*
X4848Y3393D01*
X4984Y3393D02*
X4993Y3393D01*
X5004Y3393D02*
X5013Y3393D01*
X5024Y3393D02*
X5033Y3393D01*
X5076Y3393D02*
X5085Y3393D01*
X5128Y3393D02*
X5137Y3393D01*
X5148Y3393D02*
X5157Y3393D01*
X5168Y3393D02*
X5177Y3393D01*
X5201Y3393D02*
X5210Y3393D01*
X5240Y3393D02*
X5250Y3393D01*
X5273Y3393D02*
X5322Y3393D01*
X5345Y3393D02*
X5354Y3393D01*
X5437Y3393D02*
X5446Y3393D01*
X5490Y3393D02*
X5539Y3393D01*
X5567Y3393D02*
X5577Y3393D01*
X5596Y3393D02*
X5606Y3393D01*
X4622Y3392D02*
X4631Y3392D01*
X4695Y3392D02*
X4704Y3392D01*
X4787Y3392D02*
X4796Y3392D01*
X4839Y3392D02*
X4848Y3392D01*
X4984Y3392D02*
X4993Y3392D01*
X5004Y3392D02*
X5013Y3392D01*
X5024Y3392D02*
X5033Y3392D01*
X5076Y3392D02*
X5085Y3392D01*
X5128Y3392D02*
X5137Y3392D01*
X5148Y3392D02*
X5157Y3392D01*
X5168Y3392D02*
X5177Y3392D01*
X5201Y3392D02*
X5210Y3392D01*
X5240Y3392D02*
X5250Y3392D01*
X5273Y3392D02*
X5322Y3392D01*
X5345Y3392D02*
X5354Y3392D01*
X5437Y3392D02*
X5446Y3392D01*
X5490Y3392D02*
X5539Y3392D01*
X5568Y3392D02*
X5578Y3392D01*
X5595Y3392D02*
X5605Y3392D01*
X4622Y3391D02*
X4631Y3391D01*
X4695Y3391D02*
X4704Y3391D01*
X4787Y3391D02*
X4796Y3391D01*
X4839Y3391D02*
X4848Y3391D01*
X4984Y3391D02*
X4993Y3391D01*
X5004Y3391D02*
X5013Y3391D01*
X5024Y3391D02*
X5033Y3391D01*
X5076Y3391D02*
X5085Y3391D01*
X5128Y3391D02*
X5137Y3391D01*
X5148Y3391D02*
X5157Y3391D01*
X5168Y3391D02*
X5177Y3391D01*
X5201Y3391D02*
X5210Y3391D01*
X5240Y3391D02*
X5250Y3391D01*
X5273Y3391D02*
X5322Y3391D01*
X5345Y3391D02*
X5354Y3391D01*
X5437Y3391D02*
X5446Y3391D01*
X5490Y3391D02*
X5539Y3391D01*
X5568Y3391D02*
X5578Y3391D01*
X5595Y3391D02*
X5605Y3391D01*
X4622Y3390D02*
X4631Y3390D01*
X4695Y3390D02*
X4704Y3390D01*
X4787Y3390D02*
X4796Y3390D01*
X4839Y3390D02*
X4848Y3390D01*
X4984Y3390D02*
X4993Y3390D01*
X5004Y3390D02*
X5013Y3390D01*
X5024Y3390D02*
X5033Y3390D01*
X5076Y3390D02*
X5085Y3390D01*
X5128Y3390D02*
X5137Y3390D01*
X5148Y3390D02*
X5157Y3390D01*
X5168Y3390D02*
X5177Y3390D01*
X5201Y3390D02*
X5210Y3390D01*
X5240Y3390D02*
X5250Y3390D01*
X5273Y3390D02*
X5322Y3390D01*
X5345Y3390D02*
X5354Y3390D01*
X5437Y3390D02*
X5446Y3390D01*
X5490Y3390D02*
X5539Y3390D01*
X5569Y3390D02*
X5579Y3390D01*
X5594Y3390D02*
X5605Y3390D01*
X4622Y3389D02*
X4631Y3389D01*
X4695Y3389D02*
X4704Y3389D01*
X4787Y3389D02*
X4796Y3389D01*
X4839Y3389D02*
X4848Y3389D01*
X4984Y3389D02*
X4993Y3389D01*
X5004Y3389D02*
X5013Y3389D01*
X5024Y3389D02*
X5033Y3389D01*
X5076Y3389D02*
X5085Y3389D01*
X5128Y3389D02*
X5137Y3389D01*
X5148Y3389D02*
X5157Y3389D01*
X5168Y3389D02*
X5177Y3389D01*
X5201Y3389D02*
X5210Y3389D01*
X5240Y3389D02*
X5250Y3389D01*
X5273Y3389D02*
X5322Y3389D01*
X5345Y3389D02*
X5354Y3389D01*
X5437Y3389D02*
X5446Y3389D01*
X5490Y3389D02*
X5539Y3389D01*
X5569Y3389D02*
X5579Y3389D01*
X5594Y3389D02*
X5604Y3389D01*
X4622Y3388D02*
X4631Y3388D01*
X4695Y3388D02*
X4704Y3388D01*
X4787Y3388D02*
X4796Y3388D01*
X4839Y3388D02*
X4848Y3388D01*
X4984Y3388D02*
X4993Y3388D01*
X5004Y3388D02*
X5013Y3388D01*
X5024Y3388D02*
X5033Y3388D01*
X5076Y3388D02*
X5085Y3388D01*
X5128Y3388D02*
X5137Y3388D01*
X5148Y3388D02*
X5157Y3388D01*
X5168Y3388D02*
X5177Y3388D01*
X5201Y3388D02*
X5210Y3388D01*
X5240Y3388D02*
X5250Y3388D01*
X5273Y3388D02*
X5322Y3388D01*
X5345Y3388D02*
X5354Y3388D01*
X5437Y3388D02*
X5446Y3388D01*
X5490Y3388D02*
X5539Y3388D01*
X5569Y3388D02*
X5579Y3388D01*
X5594Y3388D02*
X5604Y3388D01*
X4622Y3387D02*
X4631Y3387D01*
X4695Y3387D02*
X4704Y3387D01*
X4787Y3387D02*
X4796Y3387D01*
X4839Y3387D02*
X4848Y3387D01*
X4984Y3387D02*
X4993Y3387D01*
X5004Y3387D02*
X5013Y3387D01*
X5024Y3387D02*
X5033Y3387D01*
X5076Y3387D02*
X5085Y3387D01*
X5128Y3387D02*
X5137Y3387D01*
X5148Y3387D02*
X5157Y3387D01*
X5168Y3387D02*
X5177Y3387D01*
X5201Y3387D02*
X5210Y3387D01*
X5240Y3387D02*
X5250Y3387D01*
X5273Y3387D02*
X5321Y3387D01*
X5345Y3387D02*
X5354Y3387D01*
X5437Y3387D02*
X5446Y3387D01*
X5490Y3387D02*
X5538Y3387D01*
X5570Y3387D02*
X5580Y3387D01*
X5593Y3387D02*
X5603Y3387D01*
X4622Y3386D02*
X4631Y3386D01*
X4695Y3386D02*
X4704Y3386D01*
X4787Y3386D02*
X4796Y3386D01*
X4839Y3386D02*
X4848Y3386D01*
X4984Y3386D02*
X4993Y3386D01*
X5004Y3386D02*
X5013Y3386D01*
X5024Y3386D02*
X5033Y3386D01*
X5076Y3386D02*
X5085Y3386D01*
X5128Y3386D02*
X5137Y3386D01*
X5148Y3386D02*
X5157Y3386D01*
X5168Y3386D02*
X5177Y3386D01*
X5201Y3386D02*
X5210Y3386D01*
X5240Y3386D02*
X5250Y3386D01*
X5273Y3386D02*
X5321Y3386D01*
X5345Y3386D02*
X5354Y3386D01*
X5437Y3386D02*
X5446Y3386D01*
X5490Y3386D02*
X5538Y3386D01*
X5570Y3386D02*
X5580Y3386D01*
X5593Y3386D02*
X5603Y3386D01*
X4622Y3385D02*
X4631Y3385D01*
X4695Y3385D02*
X4704Y3385D01*
X4787Y3385D02*
X4796Y3385D01*
X4839Y3385D02*
X4848Y3385D01*
X4984Y3385D02*
X4993Y3385D01*
X5004Y3385D02*
X5013Y3385D01*
X5024Y3385D02*
X5033Y3385D01*
X5076Y3385D02*
X5085Y3385D01*
X5128Y3385D02*
X5137Y3385D01*
X5148Y3385D02*
X5157Y3385D01*
X5168Y3385D02*
X5177Y3385D01*
X5201Y3385D02*
X5210Y3385D01*
X5240Y3385D02*
X5250Y3385D01*
X5273Y3385D02*
X5320Y3385D01*
X5345Y3385D02*
X5354Y3385D01*
X5437Y3385D02*
X5446Y3385D01*
X5490Y3385D02*
X5537Y3385D01*
X5571Y3385D02*
X5581Y3385D01*
X5592Y3385D02*
X5602Y3385D01*
X4622Y3384D02*
X4631Y3384D01*
X4695Y3384D02*
X4704Y3384D01*
X4787Y3384D02*
X4796Y3384D01*
X4839Y3384D02*
X4848Y3384D01*
X4984Y3384D02*
X4993Y3384D01*
X5004Y3384D02*
X5013Y3384D01*
X5024Y3384D02*
X5033Y3384D01*
X5076Y3384D02*
X5085Y3384D01*
X5128Y3384D02*
X5137Y3384D01*
X5148Y3384D02*
X5157Y3384D01*
X5168Y3384D02*
X5177Y3384D01*
X5201Y3384D02*
X5210Y3384D01*
X5240Y3384D02*
X5250Y3384D01*
X5273Y3384D02*
X5319Y3384D01*
X5345Y3384D02*
X5354Y3384D01*
X5437Y3384D02*
X5446Y3384D01*
X5490Y3384D02*
X5535Y3384D01*
X5571Y3384D02*
X5581Y3384D01*
X5592Y3384D02*
X5602Y3384D01*
X4622Y3383D02*
X4631Y3383D01*
X4695Y3383D02*
X4704Y3383D01*
X4787Y3383D02*
X4796Y3383D01*
X4839Y3383D02*
X4849Y3383D01*
X4984Y3383D02*
X4993Y3383D01*
X5004Y3383D02*
X5013Y3383D01*
X5024Y3383D02*
X5033Y3383D01*
X5076Y3383D02*
X5085Y3383D01*
X5128Y3383D02*
X5137Y3383D01*
X5148Y3383D02*
X5157Y3383D01*
X5168Y3383D02*
X5177Y3383D01*
X5201Y3383D02*
X5210Y3383D01*
X5240Y3383D02*
X5250Y3383D01*
X5273Y3383D02*
X5282Y3383D01*
X5345Y3383D02*
X5354Y3383D01*
X5437Y3383D02*
X5446Y3383D01*
X5490Y3383D02*
X5499Y3383D01*
X5572Y3383D02*
X5582Y3383D01*
X5591Y3383D02*
X5601Y3383D01*
X4622Y3382D02*
X4631Y3382D01*
X4695Y3382D02*
X4704Y3382D01*
X4787Y3382D02*
X4796Y3382D01*
X4840Y3382D02*
X4849Y3382D01*
X4984Y3382D02*
X4993Y3382D01*
X5004Y3382D02*
X5013Y3382D01*
X5024Y3382D02*
X5033Y3382D01*
X5076Y3382D02*
X5085Y3382D01*
X5128Y3382D02*
X5137Y3382D01*
X5148Y3382D02*
X5157Y3382D01*
X5168Y3382D02*
X5177Y3382D01*
X5201Y3382D02*
X5211Y3382D01*
X5240Y3382D02*
X5250Y3382D01*
X5273Y3382D02*
X5282Y3382D01*
X5345Y3382D02*
X5354Y3382D01*
X5437Y3382D02*
X5446Y3382D01*
X5490Y3382D02*
X5499Y3382D01*
X5572Y3382D02*
X5582Y3382D01*
X5591Y3382D02*
X5601Y3382D01*
X4622Y3381D02*
X4631Y3381D01*
X4695Y3381D02*
X4704Y3381D01*
X4787Y3381D02*
X4796Y3381D01*
X4840Y3381D02*
X4850Y3381D01*
X4984Y3381D02*
X4993Y3381D01*
X5004Y3381D02*
X5013Y3381D01*
X5024Y3381D02*
X5033Y3381D01*
X5076Y3381D02*
X5085Y3381D01*
X5128Y3381D02*
X5137Y3381D01*
X5148Y3381D02*
X5157Y3381D01*
X5168Y3381D02*
X5177Y3381D01*
X5201Y3381D02*
X5212Y3381D01*
X5240Y3381D02*
X5250Y3381D01*
X5273Y3381D02*
X5282Y3381D01*
X5345Y3381D02*
X5354Y3381D01*
X5437Y3381D02*
X5446Y3381D01*
X5490Y3381D02*
X5499Y3381D01*
X5572Y3381D02*
X5582Y3381D01*
X5590Y3381D02*
X5601Y3381D01*
X4622Y3380D02*
X4631Y3380D01*
X4695Y3380D02*
X4704Y3380D01*
X4787Y3380D02*
X4796Y3380D01*
X4840Y3380D02*
X4851Y3380D01*
X4984Y3380D02*
X4993Y3380D01*
X5004Y3380D02*
X5013Y3380D01*
X5024Y3380D02*
X5033Y3380D01*
X5076Y3380D02*
X5085Y3380D01*
X5128Y3380D02*
X5137Y3380D01*
X5148Y3380D02*
X5157Y3380D01*
X5168Y3380D02*
X5177Y3380D01*
X5201Y3380D02*
X5213Y3380D01*
X5240Y3380D02*
X5249Y3380D01*
X5273Y3380D02*
X5282Y3380D01*
X5345Y3380D02*
X5354Y3380D01*
X5437Y3380D02*
X5446Y3380D01*
X5490Y3380D02*
X5499Y3380D01*
X5573Y3380D02*
X5583Y3380D01*
X5590Y3380D02*
X5600Y3380D01*
X4622Y3379D02*
X4631Y3379D01*
X4695Y3379D02*
X4704Y3379D01*
X4787Y3379D02*
X4796Y3379D01*
X4840Y3379D02*
X4852Y3379D01*
X4984Y3379D02*
X4993Y3379D01*
X5004Y3379D02*
X5013Y3379D01*
X5024Y3379D02*
X5033Y3379D01*
X5076Y3379D02*
X5085Y3379D01*
X5128Y3379D02*
X5137Y3379D01*
X5148Y3379D02*
X5157Y3379D01*
X5168Y3379D02*
X5177Y3379D01*
X5201Y3379D02*
X5214Y3379D01*
X5240Y3379D02*
X5249Y3379D01*
X5273Y3379D02*
X5282Y3379D01*
X5345Y3379D02*
X5354Y3379D01*
X5437Y3379D02*
X5446Y3379D01*
X5490Y3379D02*
X5499Y3379D01*
X5573Y3379D02*
X5583Y3379D01*
X5590Y3379D02*
X5600Y3379D01*
X4622Y3378D02*
X4631Y3378D01*
X4695Y3378D02*
X4704Y3378D01*
X4787Y3378D02*
X4796Y3378D01*
X4841Y3378D02*
X4854Y3378D01*
X4984Y3378D02*
X4993Y3378D01*
X5004Y3378D02*
X5013Y3378D01*
X5024Y3378D02*
X5033Y3378D01*
X5076Y3378D02*
X5085Y3378D01*
X5128Y3378D02*
X5137Y3378D01*
X5148Y3378D02*
X5157Y3378D01*
X5168Y3378D02*
X5177Y3378D01*
X5201Y3378D02*
X5215Y3378D01*
X5240Y3378D02*
X5249Y3378D01*
X5273Y3378D02*
X5283Y3378D01*
X5345Y3378D02*
X5354Y3378D01*
X5437Y3378D02*
X5446Y3378D01*
X5490Y3378D02*
X5500Y3378D01*
X5574Y3378D02*
X5584Y3378D01*
X5589Y3378D02*
X5599Y3378D01*
X4622Y3377D02*
X4631Y3377D01*
X4695Y3377D02*
X4704Y3377D01*
X4787Y3377D02*
X4796Y3377D01*
X4841Y3377D02*
X4855Y3377D01*
X4984Y3377D02*
X4993Y3377D01*
X5003Y3377D02*
X5013Y3377D01*
X5023Y3377D02*
X5033Y3377D01*
X5076Y3377D02*
X5085Y3377D01*
X5128Y3377D02*
X5137Y3377D01*
X5148Y3377D02*
X5157Y3377D01*
X5168Y3377D02*
X5178Y3377D01*
X5201Y3377D02*
X5216Y3377D01*
X5239Y3377D02*
X5249Y3377D01*
X5273Y3377D02*
X5284Y3377D01*
X5345Y3377D02*
X5354Y3377D01*
X5437Y3377D02*
X5446Y3377D01*
X5490Y3377D02*
X5500Y3377D01*
X5574Y3377D02*
X5584Y3377D01*
X5589Y3377D02*
X5599Y3377D01*
X4622Y3376D02*
X4631Y3376D01*
X4695Y3376D02*
X4704Y3376D01*
X4787Y3376D02*
X4796Y3376D01*
X4842Y3376D02*
X4856Y3376D01*
X4984Y3376D02*
X4994Y3376D01*
X5003Y3376D02*
X5014Y3376D01*
X5023Y3376D02*
X5033Y3376D01*
X5076Y3376D02*
X5085Y3376D01*
X5128Y3376D02*
X5137Y3376D01*
X5148Y3376D02*
X5157Y3376D01*
X5168Y3376D02*
X5178Y3376D01*
X5201Y3376D02*
X5217Y3376D01*
X5238Y3376D02*
X5249Y3376D01*
X5274Y3376D02*
X5285Y3376D01*
X5345Y3376D02*
X5354Y3376D01*
X5437Y3376D02*
X5446Y3376D01*
X5491Y3376D02*
X5501Y3376D01*
X5575Y3376D02*
X5598Y3376D01*
X4622Y3375D02*
X4631Y3375D01*
X4695Y3375D02*
X4704Y3375D01*
X4787Y3375D02*
X4796Y3375D01*
X4843Y3375D02*
X4857Y3375D01*
X4984Y3375D02*
X4994Y3375D01*
X5002Y3375D02*
X5014Y3375D01*
X5022Y3375D02*
X5033Y3375D01*
X5076Y3375D02*
X5085Y3375D01*
X5128Y3375D02*
X5137Y3375D01*
X5148Y3375D02*
X5157Y3375D01*
X5169Y3375D02*
X5178Y3375D01*
X5201Y3375D02*
X5219Y3375D01*
X5237Y3375D02*
X5248Y3375D01*
X5274Y3375D02*
X5286Y3375D01*
X5345Y3375D02*
X5354Y3375D01*
X5437Y3375D02*
X5446Y3375D01*
X5491Y3375D02*
X5503Y3375D01*
X5575Y3375D02*
X5598Y3375D01*
X4622Y3374D02*
X4631Y3374D01*
X4695Y3374D02*
X4704Y3374D01*
X4787Y3374D02*
X4796Y3374D01*
X4844Y3374D02*
X4858Y3374D01*
X4984Y3374D02*
X4995Y3374D01*
X5002Y3374D02*
X5015Y3374D01*
X5021Y3374D02*
X5032Y3374D01*
X5076Y3374D02*
X5085Y3374D01*
X5128Y3374D02*
X5137Y3374D01*
X5148Y3374D02*
X5157Y3374D01*
X5169Y3374D02*
X5178Y3374D01*
X5201Y3374D02*
X5220Y3374D01*
X5235Y3374D02*
X5248Y3374D01*
X5274Y3374D02*
X5287Y3374D01*
X5345Y3374D02*
X5354Y3374D01*
X5437Y3374D02*
X5446Y3374D01*
X5491Y3374D02*
X5504Y3374D01*
X5576Y3374D02*
X5598Y3374D01*
X4622Y3373D02*
X4631Y3373D01*
X4695Y3373D02*
X4704Y3373D01*
X4787Y3373D02*
X4796Y3373D01*
X4845Y3373D02*
X4860Y3373D01*
X4985Y3373D02*
X4995Y3373D01*
X5001Y3373D02*
X5015Y3373D01*
X5021Y3373D02*
X5032Y3373D01*
X5076Y3373D02*
X5085Y3373D01*
X5128Y3373D02*
X5137Y3373D01*
X5148Y3373D02*
X5157Y3373D01*
X5169Y3373D02*
X5178Y3373D01*
X5201Y3373D02*
X5221Y3373D01*
X5234Y3373D02*
X5247Y3373D01*
X5275Y3373D02*
X5289Y3373D01*
X5345Y3373D02*
X5354Y3373D01*
X5437Y3373D02*
X5446Y3373D01*
X5492Y3373D02*
X5505Y3373D01*
X5576Y3373D02*
X5597Y3373D01*
X4622Y3372D02*
X4668Y3372D01*
X4695Y3372D02*
X4704Y3372D01*
X4775Y3372D02*
X4808Y3372D01*
X4846Y3372D02*
X4885Y3372D01*
X4985Y3372D02*
X5031Y3372D01*
X5064Y3372D02*
X5097Y3372D01*
X5128Y3372D02*
X5137Y3372D01*
X5148Y3372D02*
X5157Y3372D01*
X5169Y3372D02*
X5178Y3372D01*
X5201Y3372D02*
X5247Y3372D01*
X5276Y3372D02*
X5319Y3372D01*
X5345Y3372D02*
X5354Y3372D01*
X5425Y3372D02*
X5458Y3372D01*
X5492Y3372D02*
X5536Y3372D01*
X5576Y3372D02*
X5597Y3372D01*
X4622Y3371D02*
X4670Y3371D01*
X4695Y3371D02*
X4704Y3371D01*
X4773Y3371D02*
X4809Y3371D01*
X4847Y3371D02*
X4886Y3371D01*
X4986Y3371D02*
X5031Y3371D01*
X5063Y3371D02*
X5098Y3371D01*
X5128Y3371D02*
X5137Y3371D01*
X5148Y3371D02*
X5157Y3371D01*
X5169Y3371D02*
X5178Y3371D01*
X5201Y3371D02*
X5246Y3371D01*
X5276Y3371D02*
X5320Y3371D01*
X5345Y3371D02*
X5354Y3371D01*
X5424Y3371D02*
X5460Y3371D01*
X5493Y3371D02*
X5537Y3371D01*
X5577Y3371D02*
X5596Y3371D01*
X4622Y3370D02*
X4670Y3370D01*
X4695Y3370D02*
X4704Y3370D01*
X4773Y3370D02*
X4810Y3370D01*
X4848Y3370D02*
X4887Y3370D01*
X4986Y3370D02*
X5030Y3370D01*
X5062Y3370D02*
X5099Y3370D01*
X5128Y3370D02*
X5137Y3370D01*
X5148Y3370D02*
X5157Y3370D01*
X5169Y3370D02*
X5178Y3370D01*
X5201Y3370D02*
X5245Y3370D01*
X5277Y3370D02*
X5321Y3370D01*
X5345Y3370D02*
X5354Y3370D01*
X5423Y3370D02*
X5461Y3370D01*
X5494Y3370D02*
X5538Y3370D01*
X5577Y3370D02*
X5596Y3370D01*
X4622Y3369D02*
X4671Y3369D01*
X4695Y3369D02*
X4704Y3369D01*
X4772Y3369D02*
X4810Y3369D01*
X4850Y3369D02*
X4888Y3369D01*
X4987Y3369D02*
X5029Y3369D01*
X5061Y3369D02*
X5100Y3369D01*
X5128Y3369D02*
X5137Y3369D01*
X5148Y3369D02*
X5157Y3369D01*
X5169Y3369D02*
X5178Y3369D01*
X5201Y3369D02*
X5244Y3369D01*
X5278Y3369D02*
X5321Y3369D01*
X5345Y3369D02*
X5354Y3369D01*
X5423Y3369D02*
X5461Y3369D01*
X5495Y3369D02*
X5538Y3369D01*
X5578Y3369D02*
X5595Y3369D01*
X4622Y3368D02*
X4671Y3368D01*
X4695Y3368D02*
X4704Y3368D01*
X4772Y3368D02*
X4811Y3368D01*
X4851Y3368D02*
X4888Y3368D01*
X4988Y3368D02*
X5029Y3368D01*
X5061Y3368D02*
X5100Y3368D01*
X5128Y3368D02*
X5137Y3368D01*
X5148Y3368D02*
X5157Y3368D01*
X5169Y3368D02*
X5178Y3368D01*
X5201Y3368D02*
X5210Y3368D01*
X5212Y3368D02*
X5243Y3368D01*
X5279Y3368D02*
X5322Y3368D01*
X5345Y3368D02*
X5354Y3368D01*
X5423Y3368D02*
X5461Y3368D01*
X5496Y3368D02*
X5539Y3368D01*
X5579Y3368D02*
X5595Y3368D01*
X4622Y3367D02*
X4671Y3367D01*
X4695Y3367D02*
X4704Y3367D01*
X4772Y3367D02*
X4811Y3367D01*
X4852Y3367D02*
X4888Y3367D01*
X4988Y3367D02*
X5028Y3367D01*
X5061Y3367D02*
X5100Y3367D01*
X5128Y3367D02*
X5137Y3367D01*
X5148Y3367D02*
X5157Y3367D01*
X5169Y3367D02*
X5178Y3367D01*
X5201Y3367D02*
X5210Y3367D01*
X5213Y3367D02*
X5242Y3367D01*
X5281Y3367D02*
X5322Y3367D01*
X5345Y3367D02*
X5354Y3367D01*
X5423Y3367D02*
X5461Y3367D01*
X5497Y3367D02*
X5539Y3367D01*
X5580Y3367D02*
X5594Y3367D01*
X4622Y3366D02*
X4671Y3366D01*
X4695Y3366D02*
X4703Y3366D01*
X4772Y3366D02*
X4810Y3366D01*
X4853Y3366D02*
X4888Y3366D01*
X4989Y3366D02*
X5028Y3366D01*
X5061Y3366D02*
X5100Y3366D01*
X5128Y3366D02*
X5136Y3366D01*
X5148Y3366D02*
X5157Y3366D01*
X5169Y3366D02*
X5178Y3366D01*
X5201Y3366D02*
X5210Y3366D01*
X5214Y3366D02*
X5241Y3366D01*
X5282Y3366D02*
X5321Y3366D01*
X5346Y3366D02*
X5354Y3366D01*
X5423Y3366D02*
X5461Y3366D01*
X5499Y3366D02*
X5538Y3366D01*
X5584Y3366D02*
X5594Y3366D01*
X4622Y3365D02*
X4670Y3365D01*
X4695Y3365D02*
X4703Y3365D01*
X4773Y3365D02*
X4810Y3365D01*
X4854Y3365D02*
X4887Y3365D01*
X4989Y3365D02*
X5007Y3365D01*
X5009Y3365D02*
X5027Y3365D01*
X5062Y3365D02*
X5099Y3365D01*
X5128Y3365D02*
X5136Y3365D01*
X5149Y3365D02*
X5157Y3365D01*
X5170Y3365D02*
X5177Y3365D01*
X5201Y3365D02*
X5209Y3365D01*
X5216Y3365D02*
X5239Y3365D01*
X5283Y3365D02*
X5321Y3365D01*
X5346Y3365D02*
X5354Y3365D01*
X5423Y3365D02*
X5461Y3365D01*
X5500Y3365D02*
X5538Y3365D01*
X5583Y3365D02*
X5594Y3365D01*
X4622Y3364D02*
X4670Y3364D01*
X4696Y3364D02*
X4702Y3364D01*
X4773Y3364D02*
X4809Y3364D01*
X4856Y3364D02*
X4887Y3364D01*
X4990Y3364D02*
X5006Y3364D01*
X5010Y3364D02*
X5026Y3364D01*
X5062Y3364D02*
X5098Y3364D01*
X5129Y3364D02*
X5135Y3364D01*
X5150Y3364D02*
X5156Y3364D01*
X5170Y3364D02*
X5176Y3364D01*
X5202Y3364D02*
X5208Y3364D01*
X5218Y3364D02*
X5238Y3364D01*
X5285Y3364D02*
X5320Y3364D01*
X5347Y3364D02*
X5353Y3364D01*
X5424Y3364D02*
X5460Y3364D01*
X5502Y3364D02*
X5537Y3364D01*
X5583Y3364D02*
X5593Y3364D01*
X4622Y3363D02*
X4668Y3363D01*
X4697Y3363D02*
X4701Y3363D01*
X4775Y3363D02*
X4808Y3363D01*
X4859Y3363D02*
X4885Y3363D01*
X4991Y3363D02*
X5005Y3363D01*
X5011Y3363D02*
X5025Y3363D01*
X5064Y3363D02*
X5097Y3363D01*
X5130Y3363D02*
X5134Y3363D01*
X5151Y3363D02*
X5155Y3363D01*
X5172Y3363D02*
X5175Y3363D01*
X5203Y3363D02*
X5207Y3363D01*
X5220Y3363D02*
X5235Y3363D01*
X5287Y3363D02*
X5319Y3363D01*
X5348Y3363D02*
X5352Y3363D01*
X5425Y3363D02*
X5459Y3363D01*
X5504Y3363D02*
X5536Y3363D01*
X5583Y3363D02*
X5593Y3363D01*
X5582Y3362D02*
X5592Y3362D01*
X5582Y3361D02*
X5592Y3361D01*
X5581Y3360D02*
X5591Y3360D01*
X5581Y3359D02*
X5591Y3359D01*
X5580Y3358D02*
X5590Y3358D01*
X5580Y3357D02*
X5590Y3357D01*
X5580Y3356D02*
X5590Y3356D01*
X5579Y3355D02*
X5589Y3355D01*
X5579Y3354D02*
X5589Y3354D01*
X5578Y3353D02*
X5588Y3353D01*
X5578Y3352D02*
X5588Y3352D01*
X5566Y3351D02*
X5587Y3351D01*
X5564Y3350D02*
X5587Y3350D01*
X5563Y3349D02*
X5587Y3349D01*
X5562Y3348D02*
X5586Y3348D01*
X5562Y3347D02*
X5586Y3347D01*
X5562Y3346D02*
X5585Y3346D01*
X5562Y3345D02*
X5585Y3345D01*
X5563Y3344D02*
X5584Y3344D01*
X5563Y3343D02*
X5584Y3343D01*
X5565Y3342D02*
X5583Y3342D01*
X4644Y3252D02*
X4678Y3252D01*
X5009Y3252D02*
X5033Y3252D01*
X4643Y3251D02*
X4683Y3251D01*
X5007Y3251D02*
X5034Y3251D01*
X4643Y3250D02*
X4684Y3250D01*
X5006Y3250D02*
X5034Y3250D01*
X4643Y3249D02*
X4686Y3249D01*
X5005Y3249D02*
X5034Y3249D01*
X4643Y3248D02*
X4687Y3248D01*
X5005Y3248D02*
X5034Y3248D01*
X4643Y3247D02*
X4688Y3247D01*
X5005Y3247D02*
X5034Y3247D01*
X4643Y3246D02*
X4689Y3246D01*
X5005Y3246D02*
X5034Y3246D01*
X4643Y3245D02*
X4690Y3245D01*
X5005Y3245D02*
X5034Y3245D01*
X4643Y3244D02*
X4690Y3244D01*
X5006Y3244D02*
X5034Y3244D01*
X4643Y3243D02*
X4691Y3243D01*
X5007Y3243D02*
X5034Y3243D01*
X4643Y3242D02*
X4691Y3242D01*
X5010Y3242D02*
X5034Y3242D01*
X4643Y3241D02*
X4652Y3241D01*
X4681Y3241D02*
X4692Y3241D01*
X5025Y3241D02*
X5034Y3241D01*
X4643Y3240D02*
X4652Y3240D01*
X4682Y3240D02*
X4692Y3240D01*
X5025Y3240D02*
X5034Y3240D01*
X4643Y3239D02*
X4652Y3239D01*
X4683Y3239D02*
X4692Y3239D01*
X5025Y3239D02*
X5034Y3239D01*
X4643Y3238D02*
X4652Y3238D01*
X4683Y3238D02*
X4692Y3238D01*
X5025Y3238D02*
X5034Y3238D01*
X4643Y3237D02*
X4652Y3237D01*
X4683Y3237D02*
X4692Y3237D01*
X5025Y3237D02*
X5034Y3237D01*
X4643Y3236D02*
X4652Y3236D01*
X4683Y3236D02*
X4692Y3236D01*
X5025Y3236D02*
X5034Y3236D01*
X4643Y3235D02*
X4652Y3235D01*
X4683Y3235D02*
X4692Y3235D01*
X5025Y3235D02*
X5034Y3235D01*
X4643Y3234D02*
X4652Y3234D01*
X4683Y3234D02*
X4692Y3234D01*
X5025Y3234D02*
X5034Y3234D01*
X4643Y3233D02*
X4652Y3233D01*
X4683Y3233D02*
X4692Y3233D01*
X5025Y3233D02*
X5034Y3233D01*
X4643Y3232D02*
X4652Y3232D01*
X4683Y3232D02*
X4692Y3232D01*
X5025Y3232D02*
X5034Y3232D01*
X4643Y3231D02*
X4652Y3231D01*
X4683Y3231D02*
X4692Y3231D01*
X5025Y3231D02*
X5034Y3231D01*
X4643Y3230D02*
X4652Y3230D01*
X4683Y3230D02*
X4692Y3230D01*
X4729Y3230D02*
X4751Y3230D01*
X4790Y3230D02*
X4795Y3230D01*
X4830Y3230D02*
X4834Y3230D01*
X5025Y3230D02*
X5034Y3230D01*
X4643Y3229D02*
X4652Y3229D01*
X4682Y3229D02*
X4692Y3229D01*
X4727Y3229D02*
X4753Y3229D01*
X4789Y3229D02*
X4796Y3229D01*
X4829Y3229D02*
X4836Y3229D01*
X5025Y3229D02*
X5034Y3229D01*
X4643Y3228D02*
X4652Y3228D01*
X4681Y3228D02*
X4692Y3228D01*
X4726Y3228D02*
X4755Y3228D01*
X4789Y3228D02*
X4796Y3228D01*
X4828Y3228D02*
X4836Y3228D01*
X5025Y3228D02*
X5034Y3228D01*
X4643Y3227D02*
X4653Y3227D01*
X4680Y3227D02*
X4691Y3227D01*
X4724Y3227D02*
X4756Y3227D01*
X4788Y3227D02*
X4797Y3227D01*
X4828Y3227D02*
X4837Y3227D01*
X5025Y3227D02*
X5034Y3227D01*
X4643Y3226D02*
X4691Y3226D01*
X4723Y3226D02*
X4757Y3226D01*
X4788Y3226D02*
X4797Y3226D01*
X4828Y3226D02*
X4837Y3226D01*
X5025Y3226D02*
X5034Y3226D01*
X4643Y3225D02*
X4691Y3225D01*
X4722Y3225D02*
X4758Y3225D01*
X4788Y3225D02*
X4797Y3225D01*
X4828Y3225D02*
X4837Y3225D01*
X5025Y3225D02*
X5034Y3225D01*
X4643Y3224D02*
X4690Y3224D01*
X4721Y3224D02*
X4759Y3224D01*
X4788Y3224D02*
X4797Y3224D01*
X4828Y3224D02*
X4837Y3224D01*
X5025Y3224D02*
X5034Y3224D01*
X4643Y3223D02*
X4689Y3223D01*
X4720Y3223D02*
X4760Y3223D01*
X4788Y3223D02*
X4797Y3223D01*
X4828Y3223D02*
X4837Y3223D01*
X5025Y3223D02*
X5034Y3223D01*
X4643Y3222D02*
X4689Y3222D01*
X4719Y3222D02*
X4761Y3222D01*
X4788Y3222D02*
X4797Y3222D01*
X4828Y3222D02*
X4837Y3222D01*
X5025Y3222D02*
X5034Y3222D01*
X4643Y3221D02*
X4688Y3221D01*
X4718Y3221D02*
X4762Y3221D01*
X4788Y3221D02*
X4797Y3221D01*
X4828Y3221D02*
X4837Y3221D01*
X5025Y3221D02*
X5034Y3221D01*
X4643Y3220D02*
X4686Y3220D01*
X4718Y3220D02*
X4731Y3220D01*
X4750Y3220D02*
X4763Y3220D01*
X4788Y3220D02*
X4797Y3220D01*
X4828Y3220D02*
X4837Y3220D01*
X5025Y3220D02*
X5034Y3220D01*
X4643Y3219D02*
X4685Y3219D01*
X4717Y3219D02*
X4729Y3219D01*
X4751Y3219D02*
X4763Y3219D01*
X4788Y3219D02*
X4797Y3219D01*
X4828Y3219D02*
X4837Y3219D01*
X5025Y3219D02*
X5034Y3219D01*
X4643Y3218D02*
X4683Y3218D01*
X4717Y3218D02*
X4728Y3218D01*
X4752Y3218D02*
X4763Y3218D01*
X4788Y3218D02*
X4797Y3218D01*
X4827Y3218D02*
X4837Y3218D01*
X5025Y3218D02*
X5034Y3218D01*
X4643Y3217D02*
X4681Y3217D01*
X4716Y3217D02*
X4727Y3217D01*
X4753Y3217D02*
X4764Y3217D01*
X4788Y3217D02*
X4798Y3217D01*
X4827Y3217D02*
X4837Y3217D01*
X5025Y3217D02*
X5034Y3217D01*
X4643Y3216D02*
X4653Y3216D01*
X4661Y3216D02*
X4671Y3216D01*
X4716Y3216D02*
X4726Y3216D01*
X4754Y3216D02*
X4764Y3216D01*
X4788Y3216D02*
X4798Y3216D01*
X4827Y3216D02*
X4837Y3216D01*
X5025Y3216D02*
X5034Y3216D01*
X4643Y3215D02*
X4652Y3215D01*
X4661Y3215D02*
X4672Y3215D01*
X4716Y3215D02*
X4725Y3215D01*
X4755Y3215D02*
X4764Y3215D01*
X4788Y3215D02*
X4799Y3215D01*
X4826Y3215D02*
X4836Y3215D01*
X5025Y3215D02*
X5034Y3215D01*
X4643Y3214D02*
X4652Y3214D01*
X4662Y3214D02*
X4673Y3214D01*
X4716Y3214D02*
X4725Y3214D01*
X4755Y3214D02*
X4764Y3214D01*
X4789Y3214D02*
X4799Y3214D01*
X4826Y3214D02*
X4836Y3214D01*
X5025Y3214D02*
X5034Y3214D01*
X4643Y3213D02*
X4652Y3213D01*
X4662Y3213D02*
X4673Y3213D01*
X4716Y3213D02*
X4725Y3213D01*
X4755Y3213D02*
X4764Y3213D01*
X4789Y3213D02*
X4799Y3213D01*
X4825Y3213D02*
X4835Y3213D01*
X5025Y3213D02*
X5034Y3213D01*
X4643Y3212D02*
X4652Y3212D01*
X4663Y3212D02*
X4674Y3212D01*
X4716Y3212D02*
X4725Y3212D01*
X4755Y3212D02*
X4764Y3212D01*
X4790Y3212D02*
X4800Y3212D01*
X4825Y3212D02*
X4835Y3212D01*
X5025Y3212D02*
X5034Y3212D01*
X4643Y3211D02*
X4652Y3211D01*
X4664Y3211D02*
X4674Y3211D01*
X4716Y3211D02*
X4725Y3211D01*
X4755Y3211D02*
X4764Y3211D01*
X4790Y3211D02*
X4800Y3211D01*
X4824Y3211D02*
X4834Y3211D01*
X5025Y3211D02*
X5034Y3211D01*
X4643Y3210D02*
X4652Y3210D01*
X4664Y3210D02*
X4675Y3210D01*
X4716Y3210D02*
X4725Y3210D01*
X4755Y3210D02*
X4764Y3210D01*
X4791Y3210D02*
X4801Y3210D01*
X4824Y3210D02*
X4834Y3210D01*
X5025Y3210D02*
X5034Y3210D01*
X4643Y3209D02*
X4652Y3209D01*
X4665Y3209D02*
X4676Y3209D01*
X4716Y3209D02*
X4725Y3209D01*
X4755Y3209D02*
X4764Y3209D01*
X4791Y3209D02*
X4801Y3209D01*
X4824Y3209D02*
X4834Y3209D01*
X5025Y3209D02*
X5034Y3209D01*
X5047Y3209D02*
X5051Y3209D01*
X4643Y3208D02*
X4652Y3208D01*
X4665Y3208D02*
X4676Y3208D01*
X4716Y3208D02*
X4725Y3208D01*
X4755Y3208D02*
X4764Y3208D01*
X4792Y3208D02*
X4802Y3208D01*
X4823Y3208D02*
X4833Y3208D01*
X5025Y3208D02*
X5034Y3208D01*
X5046Y3208D02*
X5052Y3208D01*
X4643Y3207D02*
X4652Y3207D01*
X4666Y3207D02*
X4677Y3207D01*
X4716Y3207D02*
X4725Y3207D01*
X4755Y3207D02*
X4764Y3207D01*
X4792Y3207D02*
X4802Y3207D01*
X4823Y3207D02*
X4833Y3207D01*
X5025Y3207D02*
X5034Y3207D01*
X5045Y3207D02*
X5053Y3207D01*
X4643Y3206D02*
X4652Y3206D01*
X4666Y3206D02*
X4677Y3206D01*
X4716Y3206D02*
X4725Y3206D01*
X4755Y3206D02*
X4764Y3206D01*
X4792Y3206D02*
X4802Y3206D01*
X4822Y3206D02*
X4832Y3206D01*
X5025Y3206D02*
X5034Y3206D01*
X5045Y3206D02*
X5053Y3206D01*
X4643Y3205D02*
X4652Y3205D01*
X4667Y3205D02*
X4678Y3205D01*
X4716Y3205D02*
X4764Y3205D01*
X4793Y3205D02*
X4803Y3205D01*
X4822Y3205D02*
X4832Y3205D01*
X4878Y3205D02*
X4891Y3205D01*
X5025Y3205D02*
X5034Y3205D01*
X5045Y3205D02*
X5054Y3205D01*
X4643Y3204D02*
X4652Y3204D01*
X4668Y3204D02*
X4678Y3204D01*
X4716Y3204D02*
X4764Y3204D01*
X4793Y3204D02*
X4803Y3204D01*
X4821Y3204D02*
X4831Y3204D01*
X4877Y3204D02*
X4892Y3204D01*
X5025Y3204D02*
X5034Y3204D01*
X5045Y3204D02*
X5054Y3204D01*
X4643Y3203D02*
X4652Y3203D01*
X4668Y3203D02*
X4679Y3203D01*
X4716Y3203D02*
X4764Y3203D01*
X4794Y3203D02*
X4804Y3203D01*
X4821Y3203D02*
X4831Y3203D01*
X4876Y3203D02*
X4893Y3203D01*
X5025Y3203D02*
X5034Y3203D01*
X5045Y3203D02*
X5054Y3203D01*
X4643Y3202D02*
X4652Y3202D01*
X4669Y3202D02*
X4680Y3202D01*
X4716Y3202D02*
X4764Y3202D01*
X4794Y3202D02*
X4804Y3202D01*
X4820Y3202D02*
X4830Y3202D01*
X4875Y3202D02*
X4894Y3202D01*
X5025Y3202D02*
X5034Y3202D01*
X5045Y3202D02*
X5054Y3202D01*
X4643Y3201D02*
X4652Y3201D01*
X4669Y3201D02*
X4680Y3201D01*
X4716Y3201D02*
X4764Y3201D01*
X4795Y3201D02*
X4805Y3201D01*
X4820Y3201D02*
X4830Y3201D01*
X4875Y3201D02*
X4894Y3201D01*
X5025Y3201D02*
X5034Y3201D01*
X5045Y3201D02*
X5054Y3201D01*
X4643Y3200D02*
X4652Y3200D01*
X4670Y3200D02*
X4681Y3200D01*
X4716Y3200D02*
X4764Y3200D01*
X4795Y3200D02*
X4805Y3200D01*
X4820Y3200D02*
X4830Y3200D01*
X4875Y3200D02*
X4894Y3200D01*
X5025Y3200D02*
X5034Y3200D01*
X5045Y3200D02*
X5054Y3200D01*
X4643Y3199D02*
X4652Y3199D01*
X4671Y3199D02*
X4681Y3199D01*
X4716Y3199D02*
X4764Y3199D01*
X4795Y3199D02*
X4805Y3199D01*
X4819Y3199D02*
X4829Y3199D01*
X4875Y3199D02*
X4894Y3199D01*
X5025Y3199D02*
X5034Y3199D01*
X5045Y3199D02*
X5054Y3199D01*
X4643Y3198D02*
X4652Y3198D01*
X4671Y3198D02*
X4682Y3198D01*
X4716Y3198D02*
X4764Y3198D01*
X4796Y3198D02*
X4806Y3198D01*
X4819Y3198D02*
X4829Y3198D01*
X4875Y3198D02*
X4894Y3198D01*
X5025Y3198D02*
X5034Y3198D01*
X5045Y3198D02*
X5054Y3198D01*
X4643Y3197D02*
X4652Y3197D01*
X4672Y3197D02*
X4683Y3197D01*
X4716Y3197D02*
X4763Y3197D01*
X4796Y3197D02*
X4806Y3197D01*
X4818Y3197D02*
X4828Y3197D01*
X4875Y3197D02*
X4894Y3197D01*
X5025Y3197D02*
X5034Y3197D01*
X5045Y3197D02*
X5054Y3197D01*
X4643Y3196D02*
X4652Y3196D01*
X4672Y3196D02*
X4683Y3196D01*
X4716Y3196D02*
X4762Y3196D01*
X4797Y3196D02*
X4807Y3196D01*
X4818Y3196D02*
X4828Y3196D01*
X4875Y3196D02*
X4894Y3196D01*
X5025Y3196D02*
X5034Y3196D01*
X5045Y3196D02*
X5054Y3196D01*
X4643Y3195D02*
X4652Y3195D01*
X4673Y3195D02*
X4684Y3195D01*
X4716Y3195D02*
X4725Y3195D01*
X4797Y3195D02*
X4807Y3195D01*
X4817Y3195D02*
X4827Y3195D01*
X4875Y3195D02*
X4894Y3195D01*
X5025Y3195D02*
X5034Y3195D01*
X5045Y3195D02*
X5054Y3195D01*
X4643Y3194D02*
X4652Y3194D01*
X4673Y3194D02*
X4684Y3194D01*
X4716Y3194D02*
X4725Y3194D01*
X4798Y3194D02*
X4808Y3194D01*
X4817Y3194D02*
X4827Y3194D01*
X4875Y3194D02*
X4894Y3194D01*
X5025Y3194D02*
X5034Y3194D01*
X5045Y3194D02*
X5054Y3194D01*
X4643Y3193D02*
X4652Y3193D01*
X4674Y3193D02*
X4685Y3193D01*
X4716Y3193D02*
X4725Y3193D01*
X4798Y3193D02*
X4808Y3193D01*
X4817Y3193D02*
X4827Y3193D01*
X4875Y3193D02*
X4894Y3193D01*
X5025Y3193D02*
X5034Y3193D01*
X5045Y3193D02*
X5054Y3193D01*
X4643Y3192D02*
X4652Y3192D01*
X4675Y3192D02*
X4685Y3192D01*
X4716Y3192D02*
X4725Y3192D01*
X4799Y3192D02*
X4809Y3192D01*
X4816Y3192D02*
X4826Y3192D01*
X4875Y3192D02*
X4894Y3192D01*
X5025Y3192D02*
X5034Y3192D01*
X5045Y3192D02*
X5054Y3192D01*
X4643Y3191D02*
X4652Y3191D01*
X4675Y3191D02*
X4686Y3191D01*
X4716Y3191D02*
X4725Y3191D01*
X4799Y3191D02*
X4809Y3191D01*
X4816Y3191D02*
X4826Y3191D01*
X4875Y3191D02*
X4894Y3191D01*
X5025Y3191D02*
X5034Y3191D01*
X5045Y3191D02*
X5054Y3191D01*
X4643Y3190D02*
X4652Y3190D01*
X4676Y3190D02*
X4687Y3190D01*
X4716Y3190D02*
X4725Y3190D01*
X4799Y3190D02*
X4809Y3190D01*
X4815Y3190D02*
X4825Y3190D01*
X4875Y3190D02*
X4894Y3190D01*
X5025Y3190D02*
X5034Y3190D01*
X5045Y3190D02*
X5054Y3190D01*
X4643Y3189D02*
X4652Y3189D01*
X4676Y3189D02*
X4687Y3189D01*
X4716Y3189D02*
X4726Y3189D01*
X4800Y3189D02*
X4810Y3189D01*
X4815Y3189D02*
X4825Y3189D01*
X4876Y3189D02*
X4893Y3189D01*
X5025Y3189D02*
X5034Y3189D01*
X5045Y3189D02*
X5054Y3189D01*
X4643Y3188D02*
X4652Y3188D01*
X4677Y3188D02*
X4688Y3188D01*
X4716Y3188D02*
X4727Y3188D01*
X4800Y3188D02*
X4810Y3188D01*
X4814Y3188D02*
X4824Y3188D01*
X4877Y3188D02*
X4892Y3188D01*
X5025Y3188D02*
X5034Y3188D01*
X5045Y3188D02*
X5054Y3188D01*
X4643Y3187D02*
X4652Y3187D01*
X4678Y3187D02*
X4688Y3187D01*
X4717Y3187D02*
X4728Y3187D01*
X4801Y3187D02*
X4811Y3187D01*
X4814Y3187D02*
X4824Y3187D01*
X4879Y3187D02*
X4890Y3187D01*
X5025Y3187D02*
X5034Y3187D01*
X5045Y3187D02*
X5054Y3187D01*
X4643Y3186D02*
X4652Y3186D01*
X4678Y3186D02*
X4689Y3186D01*
X4717Y3186D02*
X4729Y3186D01*
X4801Y3186D02*
X4811Y3186D01*
X4813Y3186D02*
X4823Y3186D01*
X5025Y3186D02*
X5034Y3186D01*
X5045Y3186D02*
X5054Y3186D01*
X4643Y3185D02*
X4652Y3185D01*
X4679Y3185D02*
X4690Y3185D01*
X4717Y3185D02*
X4731Y3185D01*
X4802Y3185D02*
X4823Y3185D01*
X5025Y3185D02*
X5034Y3185D01*
X5045Y3185D02*
X5054Y3185D01*
X4643Y3184D02*
X4652Y3184D01*
X4679Y3184D02*
X4690Y3184D01*
X4718Y3184D02*
X4760Y3184D01*
X4802Y3184D02*
X4823Y3184D01*
X5009Y3184D02*
X5054Y3184D01*
X4643Y3183D02*
X4652Y3183D01*
X4680Y3183D02*
X4691Y3183D01*
X4719Y3183D02*
X4762Y3183D01*
X4802Y3183D02*
X4822Y3183D01*
X5007Y3183D02*
X5054Y3183D01*
X4643Y3182D02*
X4652Y3182D01*
X4681Y3182D02*
X4691Y3182D01*
X4720Y3182D02*
X4763Y3182D01*
X4803Y3182D02*
X4822Y3182D01*
X5006Y3182D02*
X5054Y3182D01*
X4643Y3181D02*
X4652Y3181D01*
X4681Y3181D02*
X4692Y3181D01*
X4721Y3181D02*
X4764Y3181D01*
X4803Y3181D02*
X4821Y3181D01*
X5005Y3181D02*
X5054Y3181D01*
X4643Y3180D02*
X4652Y3180D01*
X4682Y3180D02*
X4692Y3180D01*
X4722Y3180D02*
X4764Y3180D01*
X4804Y3180D02*
X4821Y3180D01*
X5005Y3180D02*
X5054Y3180D01*
X4643Y3179D02*
X4652Y3179D01*
X4682Y3179D02*
X4692Y3179D01*
X4723Y3179D02*
X4764Y3179D01*
X4804Y3179D02*
X4820Y3179D01*
X5005Y3179D02*
X5054Y3179D01*
X4644Y3178D02*
X4652Y3178D01*
X4683Y3178D02*
X4692Y3178D01*
X4724Y3178D02*
X4764Y3178D01*
X4805Y3178D02*
X4820Y3178D01*
X5005Y3178D02*
X5053Y3178D01*
X4644Y3177D02*
X4652Y3177D01*
X4683Y3177D02*
X4692Y3177D01*
X4725Y3177D02*
X4764Y3177D01*
X4805Y3177D02*
X4820Y3177D01*
X5005Y3177D02*
X5053Y3177D01*
X4645Y3176D02*
X4651Y3176D01*
X4684Y3176D02*
X4691Y3176D01*
X4727Y3176D02*
X4763Y3176D01*
X4806Y3176D02*
X4819Y3176D01*
X5006Y3176D02*
X5052Y3176D01*
X4646Y3175D02*
X4650Y3175D01*
X4685Y3175D02*
X4690Y3175D01*
X4729Y3175D02*
X4762Y3175D01*
X4807Y3175D02*
X4818Y3175D01*
X5007Y3175D02*
X5051Y3175D01*
X1507Y2369D02*
X1540Y2369D01*
X1810Y2369D02*
X1828Y2369D01*
X1507Y2368D02*
X1540Y2368D01*
X1809Y2368D02*
X1828Y2368D01*
X1507Y2367D02*
X1540Y2367D01*
X1808Y2367D02*
X1828Y2367D01*
X1507Y2366D02*
X1540Y2366D01*
X1808Y2366D02*
X1828Y2366D01*
X1507Y2365D02*
X1540Y2365D01*
X1808Y2365D02*
X1828Y2365D01*
X1507Y2364D02*
X1540Y2364D01*
X1809Y2364D02*
X1828Y2364D01*
X1507Y2363D02*
X1540Y2363D01*
X1809Y2363D02*
X1828Y2363D01*
X1507Y2362D02*
X1513Y2362D01*
X1520Y2362D02*
X1527Y2362D01*
X1534Y2362D02*
X1540Y2362D01*
X1822Y2362D02*
X1828Y2362D01*
X1507Y2361D02*
X1513Y2361D01*
X1521Y2361D02*
X1527Y2361D01*
X1534Y2361D02*
X1540Y2361D01*
X1822Y2361D02*
X1828Y2361D01*
X1507Y2360D02*
X1513Y2360D01*
X1521Y2360D02*
X1527Y2360D01*
X1534Y2360D02*
X1540Y2360D01*
X1822Y2360D02*
X1828Y2360D01*
X1507Y2359D02*
X1513Y2359D01*
X1521Y2359D02*
X1527Y2359D01*
X1535Y2359D02*
X1540Y2359D01*
X1822Y2359D02*
X1828Y2359D01*
X1507Y2358D02*
X1512Y2358D01*
X1521Y2358D02*
X1527Y2358D01*
X1535Y2358D02*
X1540Y2358D01*
X1822Y2358D02*
X1828Y2358D01*
X1508Y2357D02*
X1511Y2357D01*
X1521Y2357D02*
X1527Y2357D01*
X1536Y2357D02*
X1539Y2357D01*
X1822Y2357D02*
X1828Y2357D01*
X1521Y2356D02*
X1527Y2356D01*
X1822Y2356D02*
X1828Y2356D01*
X1521Y2355D02*
X1527Y2355D01*
X1822Y2355D02*
X1828Y2355D01*
X1521Y2354D02*
X1527Y2354D01*
X1567Y2354D02*
X1581Y2354D01*
X1617Y2354D02*
X1631Y2354D01*
X1659Y2354D02*
X1662Y2354D01*
X1674Y2354D02*
X1683Y2354D01*
X1715Y2354D02*
X1734Y2354D01*
X1760Y2354D02*
X1762Y2354D01*
X1787Y2354D02*
X1790Y2354D01*
X1822Y2354D02*
X1828Y2354D01*
X1521Y2353D02*
X1527Y2353D01*
X1565Y2353D02*
X1583Y2353D01*
X1615Y2353D02*
X1633Y2353D01*
X1658Y2353D02*
X1663Y2353D01*
X1672Y2353D02*
X1685Y2353D01*
X1713Y2353D02*
X1737Y2353D01*
X1759Y2353D02*
X1763Y2353D01*
X1786Y2353D02*
X1791Y2353D01*
X1822Y2353D02*
X1828Y2353D01*
X1521Y2352D02*
X1527Y2352D01*
X1563Y2352D02*
X1584Y2352D01*
X1613Y2352D02*
X1635Y2352D01*
X1658Y2352D02*
X1663Y2352D01*
X1670Y2352D02*
X1686Y2352D01*
X1711Y2352D02*
X1738Y2352D01*
X1758Y2352D02*
X1764Y2352D01*
X1786Y2352D02*
X1791Y2352D01*
X1822Y2352D02*
X1828Y2352D01*
X1521Y2351D02*
X1527Y2351D01*
X1562Y2351D02*
X1586Y2351D01*
X1612Y2351D02*
X1636Y2351D01*
X1657Y2351D02*
X1663Y2351D01*
X1668Y2351D02*
X1687Y2351D01*
X1710Y2351D02*
X1739Y2351D01*
X1758Y2351D02*
X1764Y2351D01*
X1785Y2351D02*
X1791Y2351D01*
X1822Y2351D02*
X1828Y2351D01*
X1521Y2350D02*
X1527Y2350D01*
X1561Y2350D02*
X1587Y2350D01*
X1611Y2350D02*
X1637Y2350D01*
X1657Y2350D02*
X1663Y2350D01*
X1667Y2350D02*
X1688Y2350D01*
X1710Y2350D02*
X1740Y2350D01*
X1758Y2350D02*
X1764Y2350D01*
X1785Y2350D02*
X1791Y2350D01*
X1822Y2350D02*
X1828Y2350D01*
X1521Y2349D02*
X1527Y2349D01*
X1560Y2349D02*
X1588Y2349D01*
X1610Y2349D02*
X1638Y2349D01*
X1657Y2349D02*
X1689Y2349D01*
X1709Y2349D02*
X1740Y2349D01*
X1758Y2349D02*
X1764Y2349D01*
X1785Y2349D02*
X1791Y2349D01*
X1822Y2349D02*
X1828Y2349D01*
X1521Y2348D02*
X1527Y2348D01*
X1559Y2348D02*
X1589Y2348D01*
X1609Y2348D02*
X1639Y2348D01*
X1657Y2348D02*
X1689Y2348D01*
X1709Y2348D02*
X1740Y2348D01*
X1758Y2348D02*
X1764Y2348D01*
X1785Y2348D02*
X1791Y2348D01*
X1822Y2348D02*
X1828Y2348D01*
X1521Y2347D02*
X1527Y2347D01*
X1559Y2347D02*
X1567Y2347D01*
X1580Y2347D02*
X1589Y2347D01*
X1609Y2347D02*
X1617Y2347D01*
X1631Y2347D02*
X1639Y2347D01*
X1657Y2347D02*
X1674Y2347D01*
X1682Y2347D02*
X1690Y2347D01*
X1709Y2347D02*
X1715Y2347D01*
X1734Y2347D02*
X1740Y2347D01*
X1758Y2347D02*
X1764Y2347D01*
X1785Y2347D02*
X1791Y2347D01*
X1822Y2347D02*
X1828Y2347D01*
X1521Y2346D02*
X1527Y2346D01*
X1558Y2346D02*
X1566Y2346D01*
X1582Y2346D02*
X1590Y2346D01*
X1608Y2346D02*
X1616Y2346D01*
X1632Y2346D02*
X1640Y2346D01*
X1657Y2346D02*
X1673Y2346D01*
X1683Y2346D02*
X1690Y2346D01*
X1709Y2346D02*
X1715Y2346D01*
X1735Y2346D02*
X1740Y2346D01*
X1758Y2346D02*
X1764Y2346D01*
X1785Y2346D02*
X1791Y2346D01*
X1822Y2346D02*
X1828Y2346D01*
X1521Y2345D02*
X1527Y2345D01*
X1558Y2345D02*
X1565Y2345D01*
X1583Y2345D02*
X1590Y2345D01*
X1608Y2345D02*
X1615Y2345D01*
X1633Y2345D02*
X1640Y2345D01*
X1657Y2345D02*
X1671Y2345D01*
X1684Y2345D02*
X1690Y2345D01*
X1709Y2345D02*
X1715Y2345D01*
X1736Y2345D02*
X1739Y2345D01*
X1758Y2345D02*
X1764Y2345D01*
X1785Y2345D02*
X1791Y2345D01*
X1822Y2345D02*
X1828Y2345D01*
X1521Y2344D02*
X1527Y2344D01*
X1557Y2344D02*
X1564Y2344D01*
X1584Y2344D02*
X1590Y2344D01*
X1608Y2344D02*
X1614Y2344D01*
X1634Y2344D02*
X1641Y2344D01*
X1657Y2344D02*
X1669Y2344D01*
X1684Y2344D02*
X1690Y2344D01*
X1709Y2344D02*
X1715Y2344D01*
X1758Y2344D02*
X1765Y2344D01*
X1785Y2344D02*
X1791Y2344D01*
X1822Y2344D02*
X1828Y2344D01*
X1521Y2343D02*
X1527Y2343D01*
X1557Y2343D02*
X1563Y2343D01*
X1584Y2343D02*
X1591Y2343D01*
X1607Y2343D02*
X1614Y2343D01*
X1635Y2343D02*
X1641Y2343D01*
X1657Y2343D02*
X1668Y2343D01*
X1684Y2343D02*
X1690Y2343D01*
X1709Y2343D02*
X1717Y2343D01*
X1758Y2343D02*
X1765Y2343D01*
X1784Y2343D02*
X1791Y2343D01*
X1822Y2343D02*
X1828Y2343D01*
X1521Y2342D02*
X1527Y2342D01*
X1557Y2342D02*
X1563Y2342D01*
X1585Y2342D02*
X1591Y2342D01*
X1607Y2342D02*
X1613Y2342D01*
X1635Y2342D02*
X1641Y2342D01*
X1657Y2342D02*
X1666Y2342D01*
X1684Y2342D02*
X1690Y2342D01*
X1709Y2342D02*
X1720Y2342D01*
X1759Y2342D02*
X1766Y2342D01*
X1784Y2342D02*
X1790Y2342D01*
X1822Y2342D02*
X1828Y2342D01*
X1521Y2341D02*
X1527Y2341D01*
X1557Y2341D02*
X1563Y2341D01*
X1585Y2341D02*
X1591Y2341D01*
X1607Y2341D02*
X1613Y2341D01*
X1635Y2341D02*
X1641Y2341D01*
X1657Y2341D02*
X1665Y2341D01*
X1684Y2341D02*
X1690Y2341D01*
X1710Y2341D02*
X1722Y2341D01*
X1759Y2341D02*
X1766Y2341D01*
X1783Y2341D02*
X1790Y2341D01*
X1822Y2341D02*
X1828Y2341D01*
X1521Y2340D02*
X1527Y2340D01*
X1557Y2340D02*
X1563Y2340D01*
X1585Y2340D02*
X1591Y2340D01*
X1607Y2340D02*
X1613Y2340D01*
X1635Y2340D02*
X1641Y2340D01*
X1657Y2340D02*
X1664Y2340D01*
X1684Y2340D02*
X1690Y2340D01*
X1711Y2340D02*
X1724Y2340D01*
X1760Y2340D02*
X1766Y2340D01*
X1783Y2340D02*
X1790Y2340D01*
X1822Y2340D02*
X1828Y2340D01*
X1521Y2339D02*
X1527Y2339D01*
X1557Y2339D02*
X1563Y2339D01*
X1585Y2339D02*
X1591Y2339D01*
X1607Y2339D02*
X1613Y2339D01*
X1635Y2339D02*
X1641Y2339D01*
X1657Y2339D02*
X1663Y2339D01*
X1684Y2339D02*
X1690Y2339D01*
X1711Y2339D02*
X1727Y2339D01*
X1760Y2339D02*
X1767Y2339D01*
X1782Y2339D02*
X1789Y2339D01*
X1822Y2339D02*
X1828Y2339D01*
X1837Y2339D02*
X1840Y2339D01*
X1521Y2338D02*
X1527Y2338D01*
X1557Y2338D02*
X1563Y2338D01*
X1585Y2338D02*
X1591Y2338D01*
X1607Y2338D02*
X1613Y2338D01*
X1635Y2338D02*
X1641Y2338D01*
X1657Y2338D02*
X1663Y2338D01*
X1684Y2338D02*
X1690Y2338D01*
X1713Y2338D02*
X1729Y2338D01*
X1761Y2338D02*
X1767Y2338D01*
X1782Y2338D02*
X1789Y2338D01*
X1822Y2338D02*
X1828Y2338D01*
X1836Y2338D02*
X1841Y2338D01*
X1521Y2337D02*
X1527Y2337D01*
X1557Y2337D02*
X1563Y2337D01*
X1584Y2337D02*
X1591Y2337D01*
X1607Y2337D02*
X1613Y2337D01*
X1635Y2337D02*
X1641Y2337D01*
X1657Y2337D02*
X1663Y2337D01*
X1684Y2337D02*
X1690Y2337D01*
X1715Y2337D02*
X1731Y2337D01*
X1761Y2337D02*
X1768Y2337D01*
X1781Y2337D02*
X1788Y2337D01*
X1822Y2337D02*
X1828Y2337D01*
X1836Y2337D02*
X1842Y2337D01*
X1521Y2336D02*
X1527Y2336D01*
X1557Y2336D02*
X1591Y2336D01*
X1607Y2336D02*
X1641Y2336D01*
X1657Y2336D02*
X1663Y2336D01*
X1684Y2336D02*
X1690Y2336D01*
X1717Y2336D02*
X1734Y2336D01*
X1762Y2336D02*
X1768Y2336D01*
X1781Y2336D02*
X1788Y2336D01*
X1822Y2336D02*
X1828Y2336D01*
X1836Y2336D02*
X1842Y2336D01*
X1521Y2335D02*
X1527Y2335D01*
X1557Y2335D02*
X1591Y2335D01*
X1607Y2335D02*
X1641Y2335D01*
X1657Y2335D02*
X1663Y2335D01*
X1684Y2335D02*
X1690Y2335D01*
X1719Y2335D02*
X1736Y2335D01*
X1762Y2335D02*
X1769Y2335D01*
X1781Y2335D02*
X1787Y2335D01*
X1822Y2335D02*
X1828Y2335D01*
X1836Y2335D02*
X1842Y2335D01*
X1521Y2334D02*
X1527Y2334D01*
X1557Y2334D02*
X1591Y2334D01*
X1607Y2334D02*
X1641Y2334D01*
X1657Y2334D02*
X1663Y2334D01*
X1684Y2334D02*
X1690Y2334D01*
X1722Y2334D02*
X1737Y2334D01*
X1762Y2334D02*
X1769Y2334D01*
X1780Y2334D02*
X1787Y2334D01*
X1822Y2334D02*
X1828Y2334D01*
X1836Y2334D02*
X1842Y2334D01*
X1521Y2333D02*
X1527Y2333D01*
X1557Y2333D02*
X1591Y2333D01*
X1607Y2333D02*
X1641Y2333D01*
X1657Y2333D02*
X1663Y2333D01*
X1685Y2333D02*
X1691Y2333D01*
X1724Y2333D02*
X1738Y2333D01*
X1763Y2333D02*
X1769Y2333D01*
X1780Y2333D02*
X1786Y2333D01*
X1822Y2333D02*
X1828Y2333D01*
X1836Y2333D02*
X1842Y2333D01*
X1521Y2332D02*
X1527Y2332D01*
X1557Y2332D02*
X1590Y2332D01*
X1607Y2332D02*
X1641Y2332D01*
X1657Y2332D02*
X1663Y2332D01*
X1685Y2332D02*
X1691Y2332D01*
X1726Y2332D02*
X1739Y2332D01*
X1763Y2332D02*
X1770Y2332D01*
X1779Y2332D02*
X1786Y2332D01*
X1822Y2332D02*
X1828Y2332D01*
X1836Y2332D02*
X1842Y2332D01*
X1521Y2331D02*
X1527Y2331D01*
X1557Y2331D02*
X1590Y2331D01*
X1607Y2331D02*
X1640Y2331D01*
X1657Y2331D02*
X1663Y2331D01*
X1685Y2331D02*
X1691Y2331D01*
X1729Y2331D02*
X1740Y2331D01*
X1764Y2331D02*
X1770Y2331D01*
X1779Y2331D02*
X1786Y2331D01*
X1822Y2331D02*
X1828Y2331D01*
X1836Y2331D02*
X1842Y2331D01*
X1521Y2330D02*
X1527Y2330D01*
X1557Y2330D02*
X1588Y2330D01*
X1607Y2330D02*
X1638Y2330D01*
X1657Y2330D02*
X1663Y2330D01*
X1685Y2330D02*
X1691Y2330D01*
X1731Y2330D02*
X1740Y2330D01*
X1764Y2330D02*
X1771Y2330D01*
X1778Y2330D02*
X1785Y2330D01*
X1822Y2330D02*
X1828Y2330D01*
X1836Y2330D02*
X1842Y2330D01*
X1521Y2329D02*
X1527Y2329D01*
X1557Y2329D02*
X1563Y2329D01*
X1607Y2329D02*
X1613Y2329D01*
X1657Y2329D02*
X1663Y2329D01*
X1685Y2329D02*
X1691Y2329D01*
X1733Y2329D02*
X1741Y2329D01*
X1765Y2329D02*
X1771Y2329D01*
X1778Y2329D02*
X1785Y2329D01*
X1822Y2329D02*
X1828Y2329D01*
X1836Y2329D02*
X1842Y2329D01*
X1521Y2328D02*
X1527Y2328D01*
X1557Y2328D02*
X1563Y2328D01*
X1607Y2328D02*
X1613Y2328D01*
X1657Y2328D02*
X1663Y2328D01*
X1685Y2328D02*
X1691Y2328D01*
X1734Y2328D02*
X1741Y2328D01*
X1765Y2328D02*
X1772Y2328D01*
X1778Y2328D02*
X1784Y2328D01*
X1822Y2328D02*
X1828Y2328D01*
X1836Y2328D02*
X1842Y2328D01*
X1521Y2327D02*
X1527Y2327D01*
X1557Y2327D02*
X1563Y2327D01*
X1607Y2327D02*
X1613Y2327D01*
X1657Y2327D02*
X1663Y2327D01*
X1685Y2327D02*
X1691Y2327D01*
X1735Y2327D02*
X1741Y2327D01*
X1765Y2327D02*
X1772Y2327D01*
X1777Y2327D02*
X1784Y2327D01*
X1822Y2327D02*
X1828Y2327D01*
X1836Y2327D02*
X1842Y2327D01*
X1521Y2326D02*
X1527Y2326D01*
X1557Y2326D02*
X1564Y2326D01*
X1607Y2326D02*
X1614Y2326D01*
X1657Y2326D02*
X1663Y2326D01*
X1685Y2326D02*
X1691Y2326D01*
X1735Y2326D02*
X1741Y2326D01*
X1766Y2326D02*
X1773Y2326D01*
X1777Y2326D02*
X1783Y2326D01*
X1822Y2326D02*
X1828Y2326D01*
X1836Y2326D02*
X1842Y2326D01*
X1521Y2325D02*
X1527Y2325D01*
X1557Y2325D02*
X1564Y2325D01*
X1608Y2325D02*
X1614Y2325D01*
X1657Y2325D02*
X1663Y2325D01*
X1685Y2325D02*
X1691Y2325D01*
X1735Y2325D02*
X1741Y2325D01*
X1766Y2325D02*
X1773Y2325D01*
X1776Y2325D02*
X1783Y2325D01*
X1822Y2325D02*
X1828Y2325D01*
X1836Y2325D02*
X1842Y2325D01*
X1521Y2324D02*
X1527Y2324D01*
X1558Y2324D02*
X1565Y2324D01*
X1608Y2324D02*
X1616Y2324D01*
X1657Y2324D02*
X1663Y2324D01*
X1685Y2324D02*
X1691Y2324D01*
X1709Y2324D02*
X1713Y2324D01*
X1735Y2324D02*
X1741Y2324D01*
X1767Y2324D02*
X1783Y2324D01*
X1822Y2324D02*
X1828Y2324D01*
X1836Y2324D02*
X1842Y2324D01*
X1521Y2323D02*
X1527Y2323D01*
X1558Y2323D02*
X1567Y2323D01*
X1608Y2323D02*
X1617Y2323D01*
X1657Y2323D02*
X1663Y2323D01*
X1685Y2323D02*
X1691Y2323D01*
X1708Y2323D02*
X1714Y2323D01*
X1734Y2323D02*
X1741Y2323D01*
X1767Y2323D02*
X1782Y2323D01*
X1822Y2323D02*
X1828Y2323D01*
X1836Y2323D02*
X1842Y2323D01*
X1521Y2322D02*
X1527Y2322D01*
X1559Y2322D02*
X1587Y2322D01*
X1609Y2322D02*
X1638Y2322D01*
X1657Y2322D02*
X1663Y2322D01*
X1685Y2322D02*
X1691Y2322D01*
X1708Y2322D02*
X1740Y2322D01*
X1768Y2322D02*
X1782Y2322D01*
X1811Y2322D02*
X1842Y2322D01*
X1521Y2321D02*
X1527Y2321D01*
X1559Y2321D02*
X1590Y2321D01*
X1610Y2321D02*
X1640Y2321D01*
X1657Y2321D02*
X1663Y2321D01*
X1685Y2321D02*
X1691Y2321D01*
X1708Y2321D02*
X1740Y2321D01*
X1768Y2321D02*
X1781Y2321D01*
X1809Y2321D02*
X1842Y2321D01*
X1521Y2320D02*
X1527Y2320D01*
X1560Y2320D02*
X1590Y2320D01*
X1611Y2320D02*
X1640Y2320D01*
X1657Y2320D02*
X1663Y2320D01*
X1685Y2320D02*
X1691Y2320D01*
X1708Y2320D02*
X1739Y2320D01*
X1769Y2320D02*
X1781Y2320D01*
X1808Y2320D02*
X1842Y2320D01*
X1521Y2319D02*
X1527Y2319D01*
X1561Y2319D02*
X1591Y2319D01*
X1612Y2319D02*
X1641Y2319D01*
X1657Y2319D02*
X1663Y2319D01*
X1685Y2319D02*
X1691Y2319D01*
X1709Y2319D02*
X1739Y2319D01*
X1769Y2319D02*
X1780Y2319D01*
X1808Y2319D02*
X1842Y2319D01*
X1521Y2318D02*
X1527Y2318D01*
X1563Y2318D02*
X1591Y2318D01*
X1613Y2318D02*
X1641Y2318D01*
X1658Y2318D02*
X1663Y2318D01*
X1685Y2318D02*
X1691Y2318D01*
X1710Y2318D02*
X1738Y2318D01*
X1771Y2318D02*
X1780Y2318D01*
X1808Y2318D02*
X1842Y2318D01*
X1521Y2317D02*
X1526Y2317D01*
X1564Y2317D02*
X1590Y2317D01*
X1614Y2317D02*
X1640Y2317D01*
X1658Y2317D02*
X1663Y2317D01*
X1685Y2317D02*
X1691Y2317D01*
X1711Y2317D02*
X1737Y2317D01*
X1773Y2317D02*
X1779Y2317D01*
X1808Y2317D02*
X1841Y2317D01*
X1522Y2316D02*
X1525Y2316D01*
X1566Y2316D02*
X1589Y2316D01*
X1616Y2316D02*
X1640Y2316D01*
X1659Y2316D02*
X1662Y2316D01*
X1686Y2316D02*
X1690Y2316D01*
X1713Y2316D02*
X1735Y2316D01*
X1772Y2316D02*
X1779Y2316D01*
X1809Y2316D02*
X1840Y2316D01*
X1772Y2315D02*
X1779Y2315D01*
X1771Y2314D02*
X1778Y2314D01*
X1771Y2313D02*
X1778Y2313D01*
X1771Y2312D02*
X1777Y2312D01*
X1770Y2311D02*
X1777Y2311D01*
X1770Y2310D02*
X1776Y2310D01*
X1769Y2309D02*
X1776Y2309D01*
X1769Y2308D02*
X1776Y2308D01*
X1760Y2307D02*
X1775Y2307D01*
X1759Y2306D02*
X1775Y2306D01*
X1758Y2305D02*
X1774Y2305D01*
X1758Y2304D02*
X1774Y2304D01*
X1758Y2303D02*
X1773Y2303D01*
X1758Y2302D02*
X1773Y2302D01*
X1759Y2301D02*
X1772Y2301D01*
X4913Y1702D02*
X4943Y1702D01*
X4976Y1702D02*
X4993Y1702D01*
X5013Y1702D02*
X5040Y1702D01*
X4912Y1701D02*
X4944Y1701D01*
X4974Y1701D02*
X4994Y1701D01*
X5012Y1701D02*
X5042Y1701D01*
X4911Y1700D02*
X4944Y1700D01*
X4973Y1700D02*
X4995Y1700D01*
X5012Y1700D02*
X5043Y1700D01*
X4911Y1699D02*
X4945Y1699D01*
X4972Y1699D02*
X4995Y1699D01*
X5012Y1699D02*
X5044Y1699D01*
X4911Y1698D02*
X4944Y1698D01*
X4971Y1698D02*
X4995Y1698D01*
X5012Y1698D02*
X5045Y1698D01*
X4912Y1697D02*
X4944Y1697D01*
X4970Y1697D02*
X4994Y1697D01*
X5012Y1697D02*
X5045Y1697D01*
X4913Y1696D02*
X4943Y1696D01*
X4970Y1696D02*
X4993Y1696D01*
X5013Y1696D02*
X5045Y1696D01*
X4925Y1695D02*
X4931Y1695D01*
X4969Y1695D02*
X4977Y1695D01*
X5039Y1695D02*
X5045Y1695D01*
X4925Y1694D02*
X4931Y1694D01*
X4969Y1694D02*
X4976Y1694D01*
X5039Y1694D02*
X5045Y1694D01*
X4925Y1693D02*
X4931Y1693D01*
X4968Y1693D02*
X4975Y1693D01*
X5039Y1693D02*
X5045Y1693D01*
X4925Y1692D02*
X4931Y1692D01*
X4968Y1692D02*
X4975Y1692D01*
X5039Y1692D02*
X5045Y1692D01*
X4925Y1691D02*
X4931Y1691D01*
X4967Y1691D02*
X4974Y1691D01*
X5039Y1691D02*
X5045Y1691D01*
X4925Y1690D02*
X4931Y1690D01*
X4967Y1690D02*
X4974Y1690D01*
X5039Y1690D02*
X5045Y1690D01*
X4925Y1689D02*
X4931Y1689D01*
X4966Y1689D02*
X4973Y1689D01*
X5039Y1689D02*
X5045Y1689D01*
X4925Y1688D02*
X4931Y1688D01*
X4966Y1688D02*
X4973Y1688D01*
X5039Y1688D02*
X5045Y1688D01*
X4925Y1687D02*
X4931Y1687D01*
X4965Y1687D02*
X4972Y1687D01*
X5039Y1687D02*
X5045Y1687D01*
X4925Y1686D02*
X4931Y1686D01*
X4965Y1686D02*
X4972Y1686D01*
X5039Y1686D02*
X5045Y1686D01*
X4925Y1685D02*
X4931Y1685D01*
X4964Y1685D02*
X4971Y1685D01*
X5039Y1685D02*
X5045Y1685D01*
X4925Y1684D02*
X4931Y1684D01*
X4964Y1684D02*
X4971Y1684D01*
X5039Y1684D02*
X5045Y1684D01*
X4925Y1683D02*
X4931Y1683D01*
X4963Y1683D02*
X4970Y1683D01*
X5039Y1683D02*
X5045Y1683D01*
X4925Y1682D02*
X4931Y1682D01*
X4963Y1682D02*
X4970Y1682D01*
X5039Y1682D02*
X5045Y1682D01*
X4925Y1681D02*
X4931Y1681D01*
X4962Y1681D02*
X4969Y1681D01*
X5039Y1681D02*
X5045Y1681D01*
X4925Y1680D02*
X4931Y1680D01*
X4962Y1680D02*
X4968Y1680D01*
X5039Y1680D02*
X5045Y1680D01*
X4925Y1679D02*
X4931Y1679D01*
X4962Y1679D02*
X4968Y1679D01*
X5039Y1679D02*
X5045Y1679D01*
X4925Y1678D02*
X4931Y1678D01*
X4962Y1678D02*
X4968Y1678D01*
X5015Y1678D02*
X5045Y1678D01*
X4925Y1677D02*
X4931Y1677D01*
X4961Y1677D02*
X4967Y1677D01*
X5014Y1677D02*
X5045Y1677D01*
X4925Y1676D02*
X4931Y1676D01*
X4961Y1676D02*
X4967Y1676D01*
X5013Y1676D02*
X5044Y1676D01*
X4925Y1675D02*
X4931Y1675D01*
X4961Y1675D02*
X4967Y1675D01*
X5012Y1675D02*
X5044Y1675D01*
X4925Y1674D02*
X4931Y1674D01*
X4961Y1674D02*
X4967Y1674D01*
X5012Y1674D02*
X5043Y1674D01*
X4925Y1673D02*
X4931Y1673D01*
X4961Y1673D02*
X4968Y1673D01*
X5012Y1673D02*
X5042Y1673D01*
X4925Y1672D02*
X4931Y1672D01*
X4962Y1672D02*
X4968Y1672D01*
X5011Y1672D02*
X5039Y1672D01*
X4925Y1671D02*
X4931Y1671D01*
X4962Y1671D02*
X4968Y1671D01*
X5011Y1671D02*
X5018Y1671D01*
X4925Y1670D02*
X4931Y1670D01*
X4962Y1670D02*
X4969Y1670D01*
X5011Y1670D02*
X5018Y1670D01*
X4925Y1669D02*
X4931Y1669D01*
X4963Y1669D02*
X4969Y1669D01*
X5011Y1669D02*
X5018Y1669D01*
X4925Y1668D02*
X4931Y1668D01*
X4963Y1668D02*
X4970Y1668D01*
X5011Y1668D02*
X5018Y1668D01*
X4925Y1667D02*
X4931Y1667D01*
X4964Y1667D02*
X4970Y1667D01*
X5011Y1667D02*
X5018Y1667D01*
X4925Y1666D02*
X4931Y1666D01*
X4964Y1666D02*
X4971Y1666D01*
X5011Y1666D02*
X5018Y1666D01*
X4925Y1665D02*
X4931Y1665D01*
X4965Y1665D02*
X4971Y1665D01*
X5011Y1665D02*
X5018Y1665D01*
X4925Y1664D02*
X4931Y1664D01*
X4965Y1664D02*
X4972Y1664D01*
X5011Y1664D02*
X5018Y1664D01*
X4925Y1663D02*
X4931Y1663D01*
X4966Y1663D02*
X4972Y1663D01*
X5011Y1663D02*
X5018Y1663D01*
X4925Y1662D02*
X4931Y1662D01*
X4966Y1662D02*
X4973Y1662D01*
X5011Y1662D02*
X5018Y1662D01*
X4925Y1661D02*
X4931Y1661D01*
X4967Y1661D02*
X4973Y1661D01*
X5011Y1661D02*
X5018Y1661D01*
X4925Y1660D02*
X4931Y1660D01*
X4967Y1660D02*
X4974Y1660D01*
X5011Y1660D02*
X5018Y1660D01*
X4925Y1659D02*
X4931Y1659D01*
X4968Y1659D02*
X4974Y1659D01*
X5011Y1659D02*
X5018Y1659D01*
X4925Y1658D02*
X4931Y1658D01*
X4968Y1658D02*
X4975Y1658D01*
X5011Y1658D02*
X5018Y1658D01*
X4925Y1657D02*
X4931Y1657D01*
X4969Y1657D02*
X4976Y1657D01*
X5011Y1657D02*
X5018Y1657D01*
X4925Y1656D02*
X4931Y1656D01*
X4969Y1656D02*
X4976Y1656D01*
X5011Y1656D02*
X5018Y1656D01*
X4913Y1655D02*
X4942Y1655D01*
X4970Y1655D02*
X4993Y1655D01*
X5011Y1655D02*
X5043Y1655D01*
X4912Y1654D02*
X4944Y1654D01*
X4970Y1654D02*
X4994Y1654D01*
X5011Y1654D02*
X5044Y1654D01*
X4911Y1653D02*
X4944Y1653D01*
X4971Y1653D02*
X4995Y1653D01*
X5011Y1653D02*
X5045Y1653D01*
X4911Y1652D02*
X4945Y1652D01*
X4971Y1652D02*
X4995Y1652D01*
X5011Y1652D02*
X5045Y1652D01*
X4911Y1651D02*
X4945Y1651D01*
X4973Y1651D02*
X4995Y1651D01*
X5011Y1651D02*
X5045Y1651D01*
X4912Y1650D02*
X4944Y1650D01*
X4974Y1650D02*
X4994Y1650D01*
X5011Y1650D02*
X5044Y1650D01*
X4913Y1649D02*
X4943Y1649D01*
X4976Y1649D02*
X4993Y1649D01*
X5011Y1649D02*
X5044Y1649D01*
X293Y1306D02*
X1008Y1306D01*
X293Y1305D02*
X1008Y1305D01*
X293Y1304D02*
X1008Y1304D01*
X293Y1303D02*
X1008Y1303D01*
X293Y1302D02*
X1008Y1302D01*
X293Y1301D02*
X1008Y1301D01*
X293Y1300D02*
X1008Y1300D01*
X293Y1299D02*
X1008Y1299D01*
X293Y1298D02*
X300Y1298D01*
X1001Y1298D02*
X1008Y1298D01*
X293Y1297D02*
X300Y1297D01*
X1001Y1297D02*
X1008Y1297D01*
X293Y1296D02*
X300Y1296D01*
X1001Y1296D02*
X1008Y1296D01*
X293Y1295D02*
X300Y1295D01*
X1001Y1295D02*
X1008Y1295D01*
X293Y1294D02*
X300Y1294D01*
X1001Y1294D02*
X1008Y1294D01*
X293Y1293D02*
X300Y1293D01*
X1001Y1293D02*
X1008Y1293D01*
X293Y1292D02*
X300Y1292D01*
X1001Y1292D02*
X1008Y1292D01*
X293Y1291D02*
X300Y1291D01*
X1001Y1291D02*
X1008Y1291D01*
X293Y1290D02*
X300Y1290D01*
X1001Y1290D02*
X1008Y1290D01*
X293Y1289D02*
X300Y1289D01*
X1001Y1289D02*
X1008Y1289D01*
X293Y1288D02*
X300Y1288D01*
X1001Y1288D02*
X1008Y1288D01*
X293Y1287D02*
X300Y1287D01*
X1001Y1287D02*
X1008Y1287D01*
X293Y1286D02*
X300Y1286D01*
X1001Y1286D02*
X1008Y1286D01*
X293Y1285D02*
X300Y1285D01*
X1001Y1285D02*
X1008Y1285D01*
X293Y1284D02*
X300Y1284D01*
X1001Y1284D02*
X1008Y1284D01*
X293Y1283D02*
X300Y1283D01*
X1001Y1283D02*
X1008Y1283D01*
X293Y1282D02*
X300Y1282D01*
X1001Y1282D02*
X1008Y1282D01*
X293Y1281D02*
X300Y1281D01*
X1001Y1281D02*
X1008Y1281D01*
X293Y1280D02*
X300Y1280D01*
X1001Y1280D02*
X1008Y1280D01*
X293Y1279D02*
X300Y1279D01*
X1001Y1279D02*
X1008Y1279D01*
X293Y1278D02*
X300Y1278D01*
X1001Y1278D02*
X1008Y1278D01*
X293Y1277D02*
X300Y1277D01*
X1001Y1277D02*
X1008Y1277D01*
X293Y1276D02*
X300Y1276D01*
X1001Y1276D02*
X1008Y1276D01*
X293Y1275D02*
X300Y1275D01*
X1001Y1275D02*
X1008Y1275D01*
X293Y1274D02*
X300Y1274D01*
X1001Y1274D02*
X1008Y1274D01*
X293Y1273D02*
X300Y1273D01*
X1001Y1273D02*
X1008Y1273D01*
X293Y1272D02*
X300Y1272D01*
X1001Y1272D02*
X1008Y1272D01*
X293Y1271D02*
X300Y1271D01*
X1001Y1271D02*
X1008Y1271D01*
X293Y1270D02*
X300Y1270D01*
X1001Y1270D02*
X1008Y1270D01*
X293Y1269D02*
X300Y1269D01*
X1001Y1269D02*
X1008Y1269D01*
X293Y1268D02*
X300Y1268D01*
X1001Y1268D02*
X1008Y1268D01*
X293Y1267D02*
X300Y1267D01*
X1001Y1267D02*
X1008Y1267D01*
X293Y1266D02*
X300Y1266D01*
X1001Y1266D02*
X1008Y1266D01*
X293Y1265D02*
X300Y1265D01*
X1001Y1265D02*
X1008Y1265D01*
X293Y1264D02*
X300Y1264D01*
X1001Y1264D02*
X1008Y1264D01*
X293Y1263D02*
X300Y1263D01*
X1001Y1263D02*
X1008Y1263D01*
X293Y1262D02*
X300Y1262D01*
X1001Y1262D02*
X1008Y1262D01*
X293Y1261D02*
X300Y1261D01*
X1001Y1261D02*
X1008Y1261D01*
X293Y1260D02*
X300Y1260D01*
X1001Y1260D02*
X1008Y1260D01*
X293Y1259D02*
X300Y1259D01*
X1001Y1259D02*
X1008Y1259D01*
X293Y1258D02*
X300Y1258D01*
X1001Y1258D02*
X1008Y1258D01*
X293Y1257D02*
X300Y1257D01*
X1001Y1257D02*
X1008Y1257D01*
X293Y1256D02*
X300Y1256D01*
X1001Y1256D02*
X1008Y1256D01*
X293Y1255D02*
X300Y1255D01*
X1001Y1255D02*
X1008Y1255D01*
X293Y1254D02*
X300Y1254D01*
X1001Y1254D02*
X1008Y1254D01*
X293Y1253D02*
X300Y1253D01*
X1001Y1253D02*
X1008Y1253D01*
X293Y1252D02*
X300Y1252D01*
X1001Y1252D02*
X1008Y1252D01*
X293Y1251D02*
X300Y1251D01*
X1001Y1251D02*
X1008Y1251D01*
X293Y1250D02*
X300Y1250D01*
X1001Y1250D02*
X1008Y1250D01*
X293Y1249D02*
X300Y1249D01*
X1001Y1249D02*
X1008Y1249D01*
X293Y1248D02*
X300Y1248D01*
X1001Y1248D02*
X1008Y1248D01*
X293Y1247D02*
X300Y1247D01*
X1001Y1247D02*
X1008Y1247D01*
X293Y1246D02*
X300Y1246D01*
X1001Y1246D02*
X1008Y1246D01*
X293Y1245D02*
X300Y1245D01*
X1001Y1245D02*
X1008Y1245D01*
X293Y1244D02*
X300Y1244D01*
X1001Y1244D02*
X1008Y1244D01*
X293Y1243D02*
X300Y1243D01*
X1001Y1243D02*
X1008Y1243D01*
X293Y1242D02*
X300Y1242D01*
X1001Y1242D02*
X1008Y1242D01*
X293Y1241D02*
X300Y1241D01*
X1001Y1241D02*
X1008Y1241D01*
X293Y1240D02*
X300Y1240D01*
X1001Y1240D02*
X1008Y1240D01*
X293Y1239D02*
X300Y1239D01*
X1001Y1239D02*
X1008Y1239D01*
X293Y1238D02*
X300Y1238D01*
X1001Y1238D02*
X1008Y1238D01*
X293Y1237D02*
X300Y1237D01*
X1001Y1237D02*
X1008Y1237D01*
X293Y1236D02*
X300Y1236D01*
X1001Y1236D02*
X1008Y1236D01*
X293Y1235D02*
X300Y1235D01*
X1001Y1235D02*
X1008Y1235D01*
X293Y1234D02*
X300Y1234D01*
X1001Y1234D02*
X1008Y1234D01*
X293Y1233D02*
X300Y1233D01*
X1001Y1233D02*
X1008Y1233D01*
X293Y1232D02*
X300Y1232D01*
X1001Y1232D02*
X1008Y1232D01*
X293Y1231D02*
X300Y1231D01*
X1001Y1231D02*
X1008Y1231D01*
X293Y1230D02*
X300Y1230D01*
X1001Y1230D02*
X1008Y1230D01*
X293Y1229D02*
X300Y1229D01*
X1001Y1229D02*
X1008Y1229D01*
X293Y1228D02*
X300Y1228D01*
X1001Y1228D02*
X1008Y1228D01*
X293Y1227D02*
X300Y1227D01*
X1001Y1227D02*
X1008Y1227D01*
X293Y1226D02*
X300Y1226D01*
X1001Y1226D02*
X1008Y1226D01*
X293Y1225D02*
X300Y1225D01*
X1001Y1225D02*
X1008Y1225D01*
X293Y1224D02*
X300Y1224D01*
X1001Y1224D02*
X1008Y1224D01*
X293Y1223D02*
X300Y1223D01*
X1001Y1223D02*
X1008Y1223D01*
X293Y1222D02*
X300Y1222D01*
X1001Y1222D02*
X1008Y1222D01*
X293Y1221D02*
X300Y1221D01*
X1001Y1221D02*
X1008Y1221D01*
X293Y1220D02*
X300Y1220D01*
X1001Y1220D02*
X1008Y1220D01*
X293Y1219D02*
X300Y1219D01*
X1001Y1219D02*
X1008Y1219D01*
X293Y1218D02*
X300Y1218D01*
X1001Y1218D02*
X1008Y1218D01*
X293Y1217D02*
X300Y1217D01*
X1001Y1217D02*
X1008Y1217D01*
X293Y1216D02*
X300Y1216D01*
X1001Y1216D02*
X1008Y1216D01*
X293Y1215D02*
X300Y1215D01*
X1001Y1215D02*
X1008Y1215D01*
X293Y1214D02*
X300Y1214D01*
X1001Y1214D02*
X1008Y1214D01*
X293Y1213D02*
X300Y1213D01*
X1001Y1213D02*
X1008Y1213D01*
X293Y1212D02*
X300Y1212D01*
X1001Y1212D02*
X1008Y1212D01*
X293Y1211D02*
X300Y1211D01*
X1001Y1211D02*
X1008Y1211D01*
X293Y1210D02*
X300Y1210D01*
X1001Y1210D02*
X1008Y1210D01*
X293Y1209D02*
X300Y1209D01*
X1001Y1209D02*
X1008Y1209D01*
X293Y1208D02*
X300Y1208D01*
X1001Y1208D02*
X1008Y1208D01*
X293Y1207D02*
X300Y1207D01*
X1001Y1207D02*
X1008Y1207D01*
X293Y1206D02*
X300Y1206D01*
X1001Y1206D02*
X1008Y1206D01*
X293Y1205D02*
X300Y1205D01*
X1001Y1205D02*
X1008Y1205D01*
X293Y1204D02*
X300Y1204D01*
X1001Y1204D02*
X1008Y1204D01*
X293Y1203D02*
X300Y1203D01*
X1001Y1203D02*
X1008Y1203D01*
X293Y1202D02*
X300Y1202D01*
X1001Y1202D02*
X1008Y1202D01*
X293Y1201D02*
X300Y1201D01*
X1001Y1201D02*
X1008Y1201D01*
X293Y1200D02*
X300Y1200D01*
X1001Y1200D02*
X1008Y1200D01*
X293Y1199D02*
X300Y1199D01*
X1001Y1199D02*
X1008Y1199D01*
X293Y1198D02*
X300Y1198D01*
X1001Y1198D02*
X1008Y1198D01*
X293Y1197D02*
X300Y1197D01*
X1001Y1197D02*
X1008Y1197D01*
X293Y1196D02*
X300Y1196D01*
X1001Y1196D02*
X1008Y1196D01*
X293Y1195D02*
X300Y1195D01*
X1001Y1195D02*
X1008Y1195D01*
X293Y1194D02*
X300Y1194D01*
X1001Y1194D02*
X1008Y1194D01*
X293Y1193D02*
X300Y1193D01*
X1001Y1193D02*
X1008Y1193D01*
X293Y1192D02*
X300Y1192D01*
X1001Y1192D02*
X1008Y1192D01*
X293Y1191D02*
X300Y1191D01*
X1001Y1191D02*
X1008Y1191D01*
X293Y1190D02*
X300Y1190D01*
X1001Y1190D02*
X1008Y1190D01*
X293Y1189D02*
X300Y1189D01*
X1001Y1189D02*
X1008Y1189D01*
X293Y1188D02*
X300Y1188D01*
X1001Y1188D02*
X1008Y1188D01*
X293Y1187D02*
X300Y1187D01*
X1001Y1187D02*
X1008Y1187D01*
X293Y1186D02*
X300Y1186D01*
X1001Y1186D02*
X1008Y1186D01*
X293Y1185D02*
X300Y1185D01*
X1001Y1185D02*
X1008Y1185D01*
X293Y1184D02*
X300Y1184D01*
X1001Y1184D02*
X1008Y1184D01*
X293Y1183D02*
X300Y1183D01*
X1001Y1183D02*
X1008Y1183D01*
X293Y1182D02*
X300Y1182D01*
X1001Y1182D02*
X1008Y1182D01*
X293Y1181D02*
X300Y1181D01*
X1001Y1181D02*
X1008Y1181D01*
X293Y1180D02*
X300Y1180D01*
X1001Y1180D02*
X1008Y1180D01*
X293Y1179D02*
X300Y1179D01*
X1001Y1179D02*
X1008Y1179D01*
X293Y1178D02*
X300Y1178D01*
X1001Y1178D02*
X1008Y1178D01*
X293Y1177D02*
X300Y1177D01*
X1001Y1177D02*
X1008Y1177D01*
X293Y1176D02*
X300Y1176D01*
X1001Y1176D02*
X1008Y1176D01*
X293Y1175D02*
X300Y1175D01*
X1001Y1175D02*
X1008Y1175D01*
X293Y1174D02*
X300Y1174D01*
X1001Y1174D02*
X1008Y1174D01*
X293Y1173D02*
X300Y1173D01*
X1001Y1173D02*
X1008Y1173D01*
X293Y1172D02*
X300Y1172D01*
X1001Y1172D02*
X1008Y1172D01*
X293Y1171D02*
X300Y1171D01*
X1001Y1171D02*
X1008Y1171D01*
X293Y1170D02*
X300Y1170D01*
X1001Y1170D02*
X1008Y1170D01*
X293Y1169D02*
X300Y1169D01*
X1001Y1169D02*
X1008Y1169D01*
X293Y1168D02*
X300Y1168D01*
X1001Y1168D02*
X1008Y1168D01*
X293Y1167D02*
X300Y1167D01*
X1001Y1167D02*
X1008Y1167D01*
X293Y1166D02*
X300Y1166D01*
X1001Y1166D02*
X1008Y1166D01*
X293Y1165D02*
X300Y1165D01*
X1001Y1165D02*
X1008Y1165D01*
X293Y1164D02*
X300Y1164D01*
X1001Y1164D02*
X1008Y1164D01*
X293Y1163D02*
X300Y1163D01*
X1001Y1163D02*
X1008Y1163D01*
X293Y1162D02*
X300Y1162D01*
X1001Y1162D02*
X1008Y1162D01*
X293Y1161D02*
X300Y1161D01*
X1001Y1161D02*
X1008Y1161D01*
X293Y1160D02*
X300Y1160D01*
X1001Y1160D02*
X1008Y1160D01*
X293Y1159D02*
X300Y1159D01*
X1001Y1159D02*
X1008Y1159D01*
X293Y1158D02*
X300Y1158D01*
X1001Y1158D02*
X1008Y1158D01*
X293Y1157D02*
X300Y1157D01*
X1001Y1157D02*
X1008Y1157D01*
X293Y1156D02*
X300Y1156D01*
X1001Y1156D02*
X1008Y1156D01*
X293Y1155D02*
X300Y1155D01*
X1001Y1155D02*
X1008Y1155D01*
X293Y1154D02*
X300Y1154D01*
X1001Y1154D02*
X1008Y1154D01*
X293Y1153D02*
X300Y1153D01*
X1001Y1153D02*
X1008Y1153D01*
X293Y1152D02*
X300Y1152D01*
X1001Y1152D02*
X1008Y1152D01*
X293Y1151D02*
X300Y1151D01*
X1001Y1151D02*
X1008Y1151D01*
X293Y1150D02*
X300Y1150D01*
X1001Y1150D02*
X1008Y1150D01*
X293Y1149D02*
X300Y1149D01*
X1001Y1149D02*
X1008Y1149D01*
X293Y1148D02*
X300Y1148D01*
X1001Y1148D02*
X1008Y1148D01*
X293Y1147D02*
X300Y1147D01*
X1001Y1147D02*
X1008Y1147D01*
X293Y1146D02*
X300Y1146D01*
X1001Y1146D02*
X1008Y1146D01*
X293Y1145D02*
X300Y1145D01*
X1001Y1145D02*
X1008Y1145D01*
X293Y1144D02*
X300Y1144D01*
X1001Y1144D02*
X1008Y1144D01*
X293Y1143D02*
X300Y1143D01*
X1001Y1143D02*
X1008Y1143D01*
X293Y1142D02*
X300Y1142D01*
X1001Y1142D02*
X1008Y1142D01*
X293Y1141D02*
X300Y1141D01*
X1001Y1141D02*
X1008Y1141D01*
X293Y1140D02*
X300Y1140D01*
X1001Y1140D02*
X1008Y1140D01*
X293Y1139D02*
X300Y1139D01*
X1001Y1139D02*
X1008Y1139D01*
X293Y1138D02*
X300Y1138D01*
X1001Y1138D02*
X1008Y1138D01*
X293Y1137D02*
X300Y1137D01*
X1001Y1137D02*
X1008Y1137D01*
X293Y1136D02*
X300Y1136D01*
X1001Y1136D02*
X1008Y1136D01*
X293Y1135D02*
X300Y1135D01*
X1001Y1135D02*
X1008Y1135D01*
X293Y1134D02*
X300Y1134D01*
X1001Y1134D02*
X1008Y1134D01*
X293Y1133D02*
X300Y1133D01*
X1001Y1133D02*
X1008Y1133D01*
X293Y1132D02*
X300Y1132D01*
X1001Y1132D02*
X1008Y1132D01*
X293Y1131D02*
X300Y1131D01*
X1001Y1131D02*
X1008Y1131D01*
X293Y1130D02*
X300Y1130D01*
X1001Y1130D02*
X1008Y1130D01*
X293Y1129D02*
X300Y1129D01*
X1001Y1129D02*
X1008Y1129D01*
X293Y1128D02*
X300Y1128D01*
X1001Y1128D02*
X1008Y1128D01*
X293Y1127D02*
X300Y1127D01*
X1001Y1127D02*
X1008Y1127D01*
X293Y1126D02*
X300Y1126D01*
X1001Y1126D02*
X1008Y1126D01*
X293Y1125D02*
X300Y1125D01*
X1001Y1125D02*
X1008Y1125D01*
X293Y1124D02*
X300Y1124D01*
X1001Y1124D02*
X1008Y1124D01*
X293Y1123D02*
X300Y1123D01*
X1001Y1123D02*
X1008Y1123D01*
X293Y1122D02*
X300Y1122D01*
X1001Y1122D02*
X1008Y1122D01*
X293Y1121D02*
X300Y1121D01*
X1001Y1121D02*
X1008Y1121D01*
X293Y1120D02*
X300Y1120D01*
X1001Y1120D02*
X1008Y1120D01*
X293Y1119D02*
X300Y1119D01*
X1001Y1119D02*
X1008Y1119D01*
X293Y1118D02*
X300Y1118D01*
X1001Y1118D02*
X1008Y1118D01*
X293Y1117D02*
X300Y1117D01*
X1001Y1117D02*
X1008Y1117D01*
X293Y1116D02*
X300Y1116D01*
X1001Y1116D02*
X1008Y1116D01*
X293Y1115D02*
X300Y1115D01*
X1001Y1115D02*
X1008Y1115D01*
X293Y1114D02*
X300Y1114D01*
X1001Y1114D02*
X1008Y1114D01*
X293Y1113D02*
X300Y1113D01*
X1001Y1113D02*
X1008Y1113D01*
X293Y1112D02*
X300Y1112D01*
X1001Y1112D02*
X1008Y1112D01*
X293Y1111D02*
X300Y1111D01*
X1001Y1111D02*
X1008Y1111D01*
X293Y1110D02*
X300Y1110D01*
X1001Y1110D02*
X1008Y1110D01*
X293Y1109D02*
X300Y1109D01*
X1001Y1109D02*
X1008Y1109D01*
X293Y1108D02*
X300Y1108D01*
X1001Y1108D02*
X1008Y1108D01*
X293Y1107D02*
X300Y1107D01*
X1001Y1107D02*
X1008Y1107D01*
X293Y1106D02*
X300Y1106D01*
X1001Y1106D02*
X1008Y1106D01*
X293Y1105D02*
X300Y1105D01*
X1001Y1105D02*
X1008Y1105D01*
X293Y1104D02*
X300Y1104D01*
X1001Y1104D02*
X1008Y1104D01*
X293Y1103D02*
X300Y1103D01*
X1001Y1103D02*
X1008Y1103D01*
X293Y1102D02*
X300Y1102D01*
X1001Y1102D02*
X1008Y1102D01*
X293Y1101D02*
X300Y1101D01*
X1001Y1101D02*
X1008Y1101D01*
X293Y1100D02*
X300Y1100D01*
X1001Y1100D02*
X1008Y1100D01*
X293Y1099D02*
X300Y1099D01*
X1001Y1099D02*
X1008Y1099D01*
X293Y1098D02*
X300Y1098D01*
X1001Y1098D02*
X1008Y1098D01*
X293Y1097D02*
X300Y1097D01*
X1001Y1097D02*
X1008Y1097D01*
X293Y1096D02*
X300Y1096D01*
X1001Y1096D02*
X1008Y1096D01*
X293Y1095D02*
X300Y1095D01*
X1001Y1095D02*
X1008Y1095D01*
X293Y1094D02*
X300Y1094D01*
X1001Y1094D02*
X1008Y1094D01*
X293Y1093D02*
X300Y1093D01*
X1001Y1093D02*
X1008Y1093D01*
X293Y1092D02*
X300Y1092D01*
X1001Y1092D02*
X1008Y1092D01*
X293Y1091D02*
X300Y1091D01*
X1001Y1091D02*
X1008Y1091D01*
X293Y1090D02*
X300Y1090D01*
X1001Y1090D02*
X1008Y1090D01*
X293Y1089D02*
X300Y1089D01*
X1001Y1089D02*
X1008Y1089D01*
X293Y1088D02*
X300Y1088D01*
X1001Y1088D02*
X1008Y1088D01*
X293Y1087D02*
X300Y1087D01*
X1001Y1087D02*
X1008Y1087D01*
X293Y1086D02*
X300Y1086D01*
X1001Y1086D02*
X1008Y1086D01*
X293Y1085D02*
X300Y1085D01*
X1001Y1085D02*
X1008Y1085D01*
X293Y1084D02*
X300Y1084D01*
X1001Y1084D02*
X1008Y1084D01*
X293Y1083D02*
X300Y1083D01*
X1001Y1083D02*
X1008Y1083D01*
X293Y1082D02*
X300Y1082D01*
X1001Y1082D02*
X1008Y1082D01*
X293Y1081D02*
X300Y1081D01*
X1001Y1081D02*
X1008Y1081D01*
X293Y1080D02*
X300Y1080D01*
X1001Y1080D02*
X1008Y1080D01*
X293Y1079D02*
X300Y1079D01*
X1001Y1079D02*
X1008Y1079D01*
X293Y1078D02*
X300Y1078D01*
X1001Y1078D02*
X1008Y1078D01*
X293Y1077D02*
X300Y1077D01*
X1001Y1077D02*
X1008Y1077D01*
X293Y1076D02*
X300Y1076D01*
X1001Y1076D02*
X1008Y1076D01*
X293Y1075D02*
X300Y1075D01*
X1001Y1075D02*
X1008Y1075D01*
X293Y1074D02*
X300Y1074D01*
X1001Y1074D02*
X1008Y1074D01*
X293Y1073D02*
X300Y1073D01*
X1001Y1073D02*
X1008Y1073D01*
X293Y1072D02*
X300Y1072D01*
X1001Y1072D02*
X1008Y1072D01*
X293Y1071D02*
X300Y1071D01*
X1001Y1071D02*
X1008Y1071D01*
X293Y1070D02*
X300Y1070D01*
X1001Y1070D02*
X1008Y1070D01*
X293Y1069D02*
X300Y1069D01*
X1001Y1069D02*
X1008Y1069D01*
X293Y1068D02*
X300Y1068D01*
X1001Y1068D02*
X1008Y1068D01*
X293Y1067D02*
X300Y1067D01*
X1001Y1067D02*
X1008Y1067D01*
X293Y1066D02*
X300Y1066D01*
X1001Y1066D02*
X1008Y1066D01*
X293Y1065D02*
X300Y1065D01*
X1001Y1065D02*
X1008Y1065D01*
X293Y1064D02*
X300Y1064D01*
X1001Y1064D02*
X1008Y1064D01*
X293Y1063D02*
X300Y1063D01*
X1001Y1063D02*
X1008Y1063D01*
X293Y1062D02*
X300Y1062D01*
X1001Y1062D02*
X1008Y1062D01*
X293Y1061D02*
X300Y1061D01*
X1001Y1061D02*
X1008Y1061D01*
X293Y1060D02*
X300Y1060D01*
X1001Y1060D02*
X1008Y1060D01*
X293Y1059D02*
X300Y1059D01*
X1001Y1059D02*
X1008Y1059D01*
X293Y1058D02*
X300Y1058D01*
X1001Y1058D02*
X1008Y1058D01*
X293Y1057D02*
X300Y1057D01*
X1001Y1057D02*
X1008Y1057D01*
X293Y1056D02*
X300Y1056D01*
X1001Y1056D02*
X1008Y1056D01*
X293Y1055D02*
X300Y1055D01*
X1001Y1055D02*
X1008Y1055D01*
X293Y1054D02*
X300Y1054D01*
X1001Y1054D02*
X1008Y1054D01*
X293Y1053D02*
X300Y1053D01*
X1001Y1053D02*
X1008Y1053D01*
X293Y1052D02*
X300Y1052D01*
X1001Y1052D02*
X1008Y1052D01*
X293Y1051D02*
X300Y1051D01*
X1001Y1051D02*
X1008Y1051D01*
X293Y1050D02*
X300Y1050D01*
X1001Y1050D02*
X1008Y1050D01*
X293Y1049D02*
X300Y1049D01*
X1001Y1049D02*
X1008Y1049D01*
X293Y1048D02*
X300Y1048D01*
X1001Y1048D02*
X1008Y1048D01*
X293Y1047D02*
X564Y1047D01*
X737Y1047D02*
X1008Y1047D01*
X293Y1046D02*
X564Y1046D01*
X737Y1046D02*
X1008Y1046D01*
X293Y1045D02*
X564Y1045D01*
X737Y1045D02*
X1008Y1045D01*
X293Y1044D02*
X564Y1044D01*
X737Y1044D02*
X1008Y1044D01*
X293Y1043D02*
X564Y1043D01*
X737Y1043D02*
X1008Y1043D01*
X293Y1042D02*
X564Y1042D01*
X737Y1042D02*
X1008Y1042D01*
X293Y1041D02*
X564Y1041D01*
X737Y1041D02*
X1008Y1041D01*
X293Y1040D02*
X564Y1040D01*
X737Y1040D02*
X1008Y1040D01*
X436Y946D02*
X438Y946D01*
X462Y946D02*
X480Y946D01*
X435Y945D02*
X439Y945D01*
X461Y945D02*
X480Y945D01*
X434Y944D02*
X440Y944D01*
X460Y944D02*
X480Y944D01*
X434Y943D02*
X440Y943D01*
X460Y943D02*
X480Y943D01*
X434Y942D02*
X440Y942D01*
X460Y942D02*
X480Y942D01*
X434Y941D02*
X440Y941D01*
X461Y941D02*
X480Y941D01*
X434Y940D02*
X440Y940D01*
X462Y940D02*
X480Y940D01*
X434Y939D02*
X440Y939D01*
X474Y939D02*
X480Y939D01*
X434Y938D02*
X440Y938D01*
X474Y938D02*
X480Y938D01*
X434Y937D02*
X440Y937D01*
X474Y937D02*
X480Y937D01*
X434Y936D02*
X440Y936D01*
X474Y936D02*
X480Y936D01*
X434Y935D02*
X440Y935D01*
X474Y935D02*
X480Y935D01*
X434Y934D02*
X440Y934D01*
X474Y934D02*
X480Y934D01*
X434Y933D02*
X440Y933D01*
X474Y933D02*
X480Y933D01*
X434Y932D02*
X440Y932D01*
X474Y932D02*
X480Y932D01*
X434Y931D02*
X440Y931D01*
X474Y931D02*
X480Y931D01*
X434Y930D02*
X440Y930D01*
X474Y930D02*
X480Y930D01*
X434Y929D02*
X440Y929D01*
X474Y929D02*
X480Y929D01*
X434Y928D02*
X440Y928D01*
X474Y928D02*
X480Y928D01*
X434Y927D02*
X440Y927D01*
X474Y927D02*
X480Y927D01*
X434Y926D02*
X440Y926D01*
X474Y926D02*
X480Y926D01*
X434Y925D02*
X440Y925D01*
X474Y925D02*
X480Y925D01*
X434Y924D02*
X440Y924D01*
X474Y924D02*
X480Y924D01*
X434Y923D02*
X440Y923D01*
X474Y923D02*
X480Y923D01*
X434Y922D02*
X440Y922D01*
X474Y922D02*
X480Y922D01*
X434Y921D02*
X440Y921D01*
X474Y921D02*
X480Y921D01*
X434Y920D02*
X440Y920D01*
X474Y920D02*
X480Y920D01*
X434Y919D02*
X440Y919D01*
X474Y919D02*
X480Y919D01*
X434Y918D02*
X440Y918D01*
X474Y918D02*
X480Y918D01*
X416Y917D02*
X417Y917D01*
X434Y917D02*
X440Y917D01*
X474Y917D02*
X480Y917D01*
X490Y917D02*
X491Y917D01*
X414Y916D02*
X418Y916D01*
X434Y916D02*
X440Y916D01*
X474Y916D02*
X480Y916D01*
X489Y916D02*
X493Y916D01*
X414Y915D02*
X419Y915D01*
X434Y915D02*
X440Y915D01*
X474Y915D02*
X480Y915D01*
X488Y915D02*
X493Y915D01*
X413Y914D02*
X419Y914D01*
X434Y914D02*
X440Y914D01*
X474Y914D02*
X480Y914D01*
X488Y914D02*
X494Y914D01*
X413Y913D02*
X419Y913D01*
X434Y913D02*
X440Y913D01*
X474Y913D02*
X480Y913D01*
X488Y913D02*
X494Y913D01*
X413Y912D02*
X419Y912D01*
X434Y912D02*
X440Y912D01*
X474Y912D02*
X480Y912D01*
X488Y912D02*
X494Y912D01*
X413Y911D02*
X419Y911D01*
X434Y911D02*
X440Y911D01*
X474Y911D02*
X480Y911D01*
X488Y911D02*
X494Y911D01*
X413Y910D02*
X419Y910D01*
X434Y910D02*
X440Y910D01*
X474Y910D02*
X480Y910D01*
X488Y910D02*
X494Y910D01*
X413Y909D02*
X419Y909D01*
X434Y909D02*
X440Y909D01*
X474Y909D02*
X480Y909D01*
X488Y909D02*
X494Y909D01*
X413Y908D02*
X419Y908D01*
X434Y908D02*
X440Y908D01*
X474Y908D02*
X480Y908D01*
X488Y908D02*
X494Y908D01*
X413Y907D02*
X419Y907D01*
X434Y907D02*
X440Y907D01*
X474Y907D02*
X480Y907D01*
X488Y907D02*
X494Y907D01*
X413Y906D02*
X419Y906D01*
X434Y906D02*
X440Y906D01*
X474Y906D02*
X480Y906D01*
X488Y906D02*
X494Y906D01*
X413Y905D02*
X419Y905D01*
X434Y905D02*
X440Y905D01*
X474Y905D02*
X480Y905D01*
X488Y905D02*
X494Y905D01*
X413Y904D02*
X419Y904D01*
X434Y904D02*
X440Y904D01*
X474Y904D02*
X480Y904D01*
X488Y904D02*
X494Y904D01*
X413Y903D02*
X419Y903D01*
X434Y903D02*
X440Y903D01*
X474Y903D02*
X480Y903D01*
X488Y903D02*
X494Y903D01*
X413Y902D02*
X419Y902D01*
X434Y902D02*
X440Y902D01*
X474Y902D02*
X480Y902D01*
X488Y902D02*
X494Y902D01*
X413Y901D02*
X420Y901D01*
X433Y901D02*
X440Y901D01*
X474Y901D02*
X480Y901D01*
X488Y901D02*
X494Y901D01*
X414Y900D02*
X421Y900D01*
X432Y900D02*
X440Y900D01*
X474Y900D02*
X480Y900D01*
X488Y900D02*
X494Y900D01*
X414Y899D02*
X439Y899D01*
X462Y899D02*
X494Y899D01*
X415Y898D02*
X439Y898D01*
X461Y898D02*
X494Y898D01*
X415Y897D02*
X438Y897D01*
X460Y897D02*
X494Y897D01*
X416Y896D02*
X437Y896D01*
X460Y896D02*
X494Y896D01*
X417Y895D02*
X436Y895D01*
X460Y895D02*
X493Y895D01*
X418Y894D02*
X435Y894D01*
X461Y894D02*
X493Y894D01*
X421Y893D02*
X433Y893D01*
X462Y893D02*
X492Y893D01*
D02*
G04 End of Silk1*
M02*