; NON-PLATED HOLES START AT T1
; THROUGH (PLATED) HOLES START AT T100
M48
INCH
T1C0.086614
T100C0.035000
T101C0.039111
T102C0.043307
T103C0.015748
T104C0.039370
%
T1
X001473Y001175
X057473Y038176
X057473Y001175
X001473Y038176
T100
X033584Y016676
X039584Y016676
X046584Y016676
X051584Y016676
X034584Y022675
X044584Y016676
X041584Y016676
X047584Y022675
X044584Y022675
X051584Y022675
X045584Y016676
X035584Y022675
X039584Y022675
X046584Y022675
X038584Y016676
X038584Y022675
X032584Y022675
X048584Y022675
X042584Y016676
X036584Y016676
X049584Y016676
X050584Y016676
X035584Y016676
X037584Y016676
X047584Y016676
X050584Y022675
X041584Y022675
X049584Y022675
X034584Y016676
X037584Y022675
X043584Y016676
X043584Y022675
X033584Y022675
X048584Y016676
X040584Y016676
X032584Y016676
X036584Y022675
X042584Y022675
X045584Y022675
X040584Y022675
T101
X013473Y016176
X020473Y020176
X010473Y022175
X023473Y016176
X006473Y016176
X023473Y022175
X009473Y016176
X012473Y022175
X014473Y016176
X020473Y019175
X006473Y022175
X007015Y017387
X016473Y016176
X018473Y016176
X005473Y016176
X019473Y022175
X007474Y021152
X018473Y022175
X003473Y022175
X009473Y022175
X002473Y022175
X009015Y017387
X011473Y022175
X003473Y016176
X002473Y016176
X012473Y016176
X020473Y018176
X005473Y022175
X024473Y016176
X010473Y016176
X004473Y022175
X020473Y016176
X016473Y022175
X006015Y017387
X008473Y016176
X008473Y022175
X022473Y022175
X025473Y022175
X007473Y016176
X011473Y016176
X007473Y022175
X021473Y016176
X014473Y022175
X005015Y017387
X015473Y022175
X024473Y022175
X004473Y016176
X021473Y022175
X020473Y017176
X008015Y017387
X025473Y016176
X022473Y016176
X020473Y021175
X006474Y021152
X017473Y016176
X020473Y022175
X005473Y021152
X013473Y022175
X003473Y021152
X019473Y016176
X017473Y022175
X015473Y016176
T102
X005473Y011176
X006473Y011176
X006473Y012176
X005473Y012176
X003473Y011176
X007473Y011176
X004473Y011176
X003473Y012176
X004473Y012176
X007473Y012176
T103
X023473Y016176
X024473Y022176
X020473Y022176
X003473Y016176
X048473Y025175
X035473Y032176
X017473Y016176
X027473Y015176
X022473Y016176
X036473Y033176
X019473Y024175
X018473Y003176
X019473Y027175
X016473Y002176
X046473Y027175
X006473Y016176
X044473Y006175
X013473Y004176
X005473Y016176
X013473Y016176
X016473Y016176
X039473Y036176
X003473Y022176
X037473Y034176
X010473Y016176
X021473Y022176
X010473Y014176
X015473Y016176
X005473Y022176
X029473Y023175
X016473Y022176
X040473Y037176
X029473Y026176
X030473Y027175
X009473Y022176
X010473Y022176
X015473Y014176
X034473Y031176
X007473Y022176
X004473Y016176
X012473Y022176
X022473Y022176
X029473Y019175
X031473Y028175
X002473Y022176
X012473Y016176
X009473Y016176
X011473Y016176
X019473Y016176
X028473Y022175
X017473Y014176
X024473Y016176
X012473Y014176
X033473Y030176
X015473Y022176
X018473Y016176
X021473Y016176
X029473Y006176
X013473Y022176
X017473Y022176
X036473Y020175
X041473Y038176
X018473Y022176
X047473Y018176
X007473Y016176
X023473Y022176
X050473Y026175
X020473Y017176
X025473Y022176
X020473Y016176
X025473Y024176
X025473Y016176
X014473Y022176
X019473Y022176
X004473Y022176
X006473Y022176
X002473Y016176
X038473Y035176
X014473Y016176
X008473Y016176
X011473Y022176
X032473Y029176
X008473Y022176
X011473Y001176
T104
X005473Y011176
X006473Y011176
X006473Y012176
X005473Y012176
X003473Y011176
X007473Y011176
X004473Y011176
X003473Y012176
X004473Y012176
X007473Y012176
T00
M30
