G04 MADE WITH FRITZING*
G04 WWW.FRITZING.ORG*
G04 DOUBLE SIDED*
G04 HOLES PLATED*
G04 CONTOUR ON CENTER OF CONTOUR VECTOR*
%ASAXBY*%
%FSLAX23Y23*%
%MOIN*%
%OFA0B0*%
%SFA1.0B1.0*%
%ADD10C,0.085000*%
%ADD11C,0.049370*%
%ADD12C,0.065118*%
%ADD13C,0.072992*%
%ADD14C,0.093307*%
%ADD15C,0.089370*%
%ADD16C,0.096614*%
%ADD17R,0.085000X0.085000*%
%ADD18R,0.093307X0.093307*%
%ADD19R,0.089370X0.089370*%
%ADD20R,0.059383X0.069260*%
%LNMASK0*%
G90*
G70*
G54D10*
X5158Y2268D03*
X5158Y1668D03*
X5058Y2268D03*
X5058Y1668D03*
X4958Y2268D03*
X4958Y1668D03*
X4858Y2268D03*
X4858Y1668D03*
X4758Y2268D03*
X4758Y1668D03*
X4658Y2268D03*
X4658Y1668D03*
X4558Y2268D03*
X4558Y1668D03*
X4458Y2268D03*
X4458Y1668D03*
X4358Y2268D03*
X4358Y1668D03*
X4258Y2268D03*
X4258Y1668D03*
X4158Y2268D03*
X4158Y1668D03*
X4058Y2268D03*
X4058Y1668D03*
X3958Y2268D03*
X3958Y1668D03*
X3858Y2268D03*
X3858Y1668D03*
X3758Y2268D03*
X3758Y1668D03*
X3658Y2268D03*
X3658Y1668D03*
X3558Y2268D03*
X3558Y1668D03*
X3458Y2268D03*
X3458Y1668D03*
X3358Y2268D03*
X3358Y1668D03*
X3258Y2268D03*
X3258Y1668D03*
G54D11*
X4147Y3818D03*
X4047Y3718D03*
X3947Y3618D03*
X3847Y3518D03*
X3747Y3418D03*
X2947Y618D03*
X2847Y2218D03*
X4447Y618D03*
X3647Y2018D03*
X3147Y2818D03*
X1847Y318D03*
X1747Y1418D03*
X2547Y2418D03*
X2747Y1518D03*
X2947Y2318D03*
X2947Y1918D03*
X3547Y3218D03*
X3647Y3318D03*
X3447Y3118D03*
X3347Y3018D03*
X3247Y2918D03*
X3047Y2718D03*
X1547Y1418D03*
X1647Y218D03*
X5047Y2618D03*
X4647Y2718D03*
X4847Y2518D03*
X1347Y418D03*
X1147Y118D03*
X1047Y1418D03*
X1247Y1418D03*
G54D12*
X2947Y2618D03*
G54D13*
X347Y2218D03*
X1947Y1618D03*
X1847Y1618D03*
X1747Y1618D03*
X1647Y1618D03*
X1547Y1618D03*
X1447Y1618D03*
X1347Y1618D03*
X1247Y1618D03*
X1147Y1618D03*
X1047Y1618D03*
X947Y1618D03*
X847Y1618D03*
X747Y1618D03*
X647Y1618D03*
X547Y1618D03*
X447Y1618D03*
X347Y1618D03*
X247Y1618D03*
X1847Y2218D03*
X1747Y2218D03*
X1647Y2218D03*
X1547Y2218D03*
X1447Y2218D03*
X1347Y2218D03*
X1247Y2218D03*
X1147Y2218D03*
X1047Y2218D03*
X947Y2218D03*
X447Y2218D03*
X847Y2218D03*
X747Y2218D03*
X647Y2218D03*
X547Y2218D03*
X1947Y2218D03*
X2047Y1618D03*
X2147Y1618D03*
X2247Y1618D03*
X2347Y1618D03*
X2447Y1618D03*
X2547Y1618D03*
X2047Y2218D03*
X2147Y2218D03*
X2247Y2218D03*
X2347Y2218D03*
X2447Y2218D03*
X2547Y2218D03*
X247Y2218D03*
G54D14*
X347Y1218D03*
X447Y1218D03*
X547Y1218D03*
X647Y1218D03*
X747Y1218D03*
X347Y1118D03*
X447Y1118D03*
X547Y1118D03*
X647Y1118D03*
X747Y1118D03*
G54D15*
X347Y1218D03*
X447Y1218D03*
X547Y1218D03*
X647Y1218D03*
X747Y1218D03*
X347Y1118D03*
X447Y1118D03*
X547Y1118D03*
X647Y1118D03*
X747Y1118D03*
G54D11*
X4747Y1818D03*
X2047Y1718D03*
X1947Y2718D03*
X1947Y2418D03*
G54D16*
X5747Y3818D03*
X5747Y118D03*
X147Y118D03*
X147Y3818D03*
G54D17*
X5158Y2268D03*
G54D18*
X347Y1118D03*
G54D19*
X347Y1118D03*
G54D20*
X4328Y2018D03*
X4447Y2018D03*
X4328Y1818D03*
X4447Y1818D03*
G04 End of Mask0*
M02*