G04 MADE WITH FRITZING*
G04 WWW.FRITZING.ORG*
G04 DOUBLE SIDED*
G04 HOLES PLATED*
G04 CONTOUR ON CENTER OF CONTOUR VECTOR*
%ASAXBY*%
%FSLAX23Y23*%
%MOIN*%
%OFA0B0*%
%SFA1.0B1.0*%
%ADD10C,0.076888*%
%ADD11C,0.085000*%
%ADD12C,0.049370*%
%ADD13R,0.085000X0.085000*%
%LNMASK1*%
G90*
G70*
G54D10*
X1971Y2550D03*
X1871Y2550D03*
X1771Y2550D03*
X1671Y2550D03*
X1571Y2550D03*
X1471Y2550D03*
X1371Y2550D03*
X1271Y2550D03*
X1171Y2550D03*
X1071Y2550D03*
X971Y2550D03*
X871Y2550D03*
X771Y2550D03*
X671Y2550D03*
X771Y2447D03*
X1071Y2447D03*
X971Y2447D03*
X1971Y1950D03*
X1871Y1950D03*
X1771Y1950D03*
X1671Y1950D03*
X1571Y1950D03*
X1471Y1950D03*
X1371Y1950D03*
X1271Y1950D03*
X1171Y1950D03*
X1071Y1950D03*
X971Y1950D03*
X871Y1950D03*
X771Y1950D03*
X671Y1950D03*
X1171Y2447D03*
X2471Y2150D03*
X2471Y2050D03*
X2471Y2250D03*
X2471Y2450D03*
X2471Y2350D03*
X2971Y2550D03*
X2871Y2550D03*
X2771Y2550D03*
X2671Y2550D03*
X2571Y2550D03*
X2471Y2550D03*
X2371Y2550D03*
X2271Y2550D03*
X2171Y2550D03*
X2071Y2550D03*
X2971Y1950D03*
X2871Y1950D03*
X2771Y1950D03*
X2671Y1950D03*
X2571Y1950D03*
X2471Y1950D03*
X2371Y1950D03*
X2271Y1950D03*
X2171Y1950D03*
X2071Y1950D03*
X1325Y2071D03*
X1225Y2071D03*
X1125Y2071D03*
X1025Y2071D03*
X925Y2071D03*
X1971Y2550D03*
X1871Y2550D03*
X1771Y2550D03*
X1671Y2550D03*
X1571Y2550D03*
X1471Y2550D03*
X1371Y2550D03*
X1271Y2550D03*
X1171Y2550D03*
X1071Y2550D03*
X971Y2550D03*
X871Y2550D03*
X771Y2550D03*
X671Y2550D03*
X771Y2447D03*
X1071Y2447D03*
X971Y2447D03*
X1971Y1950D03*
X1871Y1950D03*
X1771Y1950D03*
X1671Y1950D03*
X1571Y1950D03*
X1471Y1950D03*
X1371Y1950D03*
X1271Y1950D03*
X1171Y1950D03*
X1071Y1950D03*
X971Y1950D03*
X871Y1950D03*
X771Y1950D03*
X671Y1950D03*
X1171Y2447D03*
X2471Y2150D03*
X2471Y2050D03*
X2471Y2250D03*
X2471Y2450D03*
X2471Y2350D03*
X2971Y2550D03*
X2871Y2550D03*
X2771Y2550D03*
X2671Y2550D03*
X2571Y2550D03*
X2471Y2550D03*
X2371Y2550D03*
X2271Y2550D03*
X2171Y2550D03*
X2071Y2550D03*
X2971Y1950D03*
X2871Y1950D03*
X2771Y1950D03*
X2671Y1950D03*
X2571Y1950D03*
X2471Y1950D03*
X2371Y1950D03*
X2271Y1950D03*
X2171Y1950D03*
X2071Y1950D03*
X1325Y2071D03*
X1225Y2071D03*
X1125Y2071D03*
X1025Y2071D03*
X925Y2071D03*
G54D11*
X2571Y1150D03*
X2571Y850D03*
X2471Y1150D03*
X2471Y850D03*
X2371Y1150D03*
X2371Y850D03*
X2271Y1150D03*
X2271Y850D03*
X2171Y1150D03*
X2171Y850D03*
X2071Y1150D03*
X2071Y850D03*
X1971Y1150D03*
X1971Y850D03*
X1871Y1150D03*
X1871Y850D03*
X1771Y1150D03*
X1771Y850D03*
X1671Y1150D03*
X1671Y850D03*
X1571Y1150D03*
X1571Y850D03*
X1471Y1150D03*
X1471Y850D03*
X1371Y1150D03*
X1371Y850D03*
X1271Y1150D03*
X1271Y850D03*
X1171Y1150D03*
X1171Y850D03*
X1071Y1150D03*
X1071Y850D03*
X971Y1150D03*
X971Y850D03*
X871Y1150D03*
X871Y850D03*
X771Y1150D03*
X771Y850D03*
X671Y1150D03*
X671Y850D03*
G54D12*
X3064Y1404D03*
X2584Y1884D03*
X3136Y2148D03*
X2488Y1620D03*
X2728Y1860D03*
X3184Y1308D03*
X1816Y2628D03*
X2680Y1692D03*
X2848Y2484D03*
X1840Y1068D03*
X1720Y2748D03*
X2320Y2028D03*
X3088Y2076D03*
X976Y2820D03*
X1600Y2628D03*
X2296Y1884D03*
X1096Y2724D03*
X1360Y2148D03*
X1432Y2460D03*
X1264Y2484D03*
X1216Y2628D03*
X2560Y2484D03*
X2488Y2796D03*
X2680Y2460D03*
X1264Y1020D03*
X2392Y2460D03*
X2680Y2700D03*
X1888Y2916D03*
X2560Y2244D03*
X3184Y2220D03*
X1240Y708D03*
X2800Y1548D03*
X712Y708D03*
X2872Y1572D03*
X2344Y1284D03*
X2032Y2484D03*
G54D13*
X2571Y1150D03*
G04 End of Mask1*
M02*