; NON-PLATED HOLES START AT T1
; THROUGH (PLATED) HOLES START AT T100
M48
INCH
T100C0.015748
T101C0.040000
T102C0.039111
T103C0.035000
%
T100
X020473Y022175
X024473Y016176
X029473Y016176
X026473Y015176
X016473Y016176
X019473Y016176
X017473Y014176
X022473Y016176
X012473Y022175
X028473Y006175
X020473Y016176
X023473Y016176
X025473Y022175
X006473Y016176
X008473Y016176
X009473Y022175
X014473Y022175
X023473Y021175
X012473Y014176
X036473Y032176
X008473Y022175
X034473Y030176
X022473Y022175
X049473Y025175
X017473Y003175
X011473Y015176
X024473Y023175
X016473Y022175
X024473Y022175
X038473Y034176
X033473Y029176
X017473Y016176
X016473Y026175
X011473Y001175
X037473Y033176
X039473Y035176
X012473Y016176
X035473Y031176
X019473Y022175
X007473Y022175
X031473Y027175
X014473Y016176
X011473Y016176
X013473Y007175
X015473Y016176
X040473Y036176
X005473Y016176
X003473Y022175
X026473Y024175
X004473Y022175
X013473Y014176
X021473Y017176
X023473Y022175
X002473Y022175
X010473Y016176
X021473Y022175
X015473Y014176
X013473Y022175
X006473Y022175
X012473Y004175
X025473Y016176
X035473Y019175
X030473Y026175
X041473Y037176
X002473Y016176
X023473Y019175
X032473Y028175
X045473Y026175
X010473Y022175
X047473Y024175
X029473Y024175
X024473Y025175
X044473Y006175
X015473Y002175
X042473Y038176
X018473Y016176
X049473Y022175
X018473Y022175
X005473Y022175
X028473Y023175
X021473Y021175
X004473Y016176
X017473Y022175
X007473Y016176
X011473Y022175
X009473Y016176
X021473Y016176
X015473Y022175
X013473Y016176
X003473Y016176
T101
X008473Y011176
X006473Y011176
X007473Y012176
X004473Y012176
X005473Y011176
X008473Y012176
X005473Y012176
X007473Y011176
X006473Y012176
X004473Y011176
T102
X021473Y022175
X020473Y018176
X020473Y022175
X021473Y016176
X014473Y016176
X008473Y016176
X009015Y017387
X024473Y022175
X006474Y021152
X005015Y017387
X013473Y022175
X019473Y016176
X023473Y022175
X018473Y016176
X020473Y019175
X016473Y022175
X009473Y016176
X003473Y021152
X002473Y022175
X023473Y016176
X006473Y022175
X003473Y016176
X024473Y016176
X025473Y022175
X002473Y016176
X008015Y017387
X015473Y016176
X013473Y016176
X004473Y022175
X007474Y021152
X007473Y022175
X022473Y016176
X005473Y022175
X020473Y016176
X015473Y022175
X009473Y022175
X010473Y016176
X019473Y022175
X016473Y016176
X018473Y022175
X005473Y021152
X014473Y022175
X010473Y022175
X011473Y016176
X017473Y016176
X025473Y016176
X020473Y020176
X017473Y022175
X011473Y022175
X012473Y016176
X007015Y017387
X020473Y021175
X022473Y022175
X005473Y016176
X020473Y017176
X006015Y017387
X006473Y016176
X007473Y016176
X003473Y022175
X012473Y022175
X004473Y016176
X008473Y022175
T103
X039473Y021175
X032473Y018176
X037473Y018176
X034473Y018176
X042473Y018176
X050473Y021175
X035473Y018176
X043473Y018176
X046473Y018176
X036473Y021175
X033473Y018176
X038473Y021175
X048473Y018176
X040473Y021175
X050473Y018176
X045473Y018176
X035473Y021175
X040473Y018176
X048473Y021175
X033473Y021175
X045473Y021175
X036473Y018176
X041473Y018176
X034473Y021175
X047473Y018176
X038473Y018176
X042473Y021175
X043473Y021175
X044473Y018176
X032473Y021175
X049473Y021175
X047473Y021175
X031473Y018176
X039473Y018176
X046473Y021175
X044473Y021175
X049473Y018176
X031473Y021175
X041473Y021175
X037473Y021175
T00
M30
