; NON-PLATED HOLES START AT T1
; THROUGH (PLATED) HOLES START AT T100
M48
INCH
T100C0.035000
T101C0.039111
T102C0.015748
%
T100
X010705Y011498
X006705Y011498
X016705Y008498
X008705Y008498
X021705Y008498
X014705Y011498
X017705Y011498
X007705Y011498
X022705Y008498
X022705Y011498
X018705Y011498
X010705Y008498
X011705Y011498
X007705Y008498
X024705Y011498
X020705Y011498
X009705Y008498
X018705Y008498
X012705Y008498
X016705Y011498
X017705Y008498
X012705Y011498
X015705Y008498
X023705Y008498
X013705Y011498
X011705Y008498
X019705Y008498
X019705Y011498
X023705Y011498
X008705Y011498
X025705Y011498
X013705Y008498
X021705Y011498
X015705Y011498
X020705Y008498
X025705Y008498
X009705Y011498
X006705Y008498
X014705Y008498
X024705Y008498
T101
X029705Y025498
X017705Y025498
X027705Y019498
X006705Y025498
X012247Y020710
X013247Y020710
X025705Y019498
X007705Y024474
X024705Y020498
X009705Y019498
X012705Y019498
X028705Y025498
X024706Y022498
X009247Y020710
X016705Y025498
X011706Y024474
X015705Y019498
X024705Y019498
X013705Y025498
X024706Y023498
X021705Y019498
X008705Y025498
X024706Y021498
X026705Y019498
X013705Y019498
X027705Y025498
X006705Y019498
X024705Y025498
X024705Y024498
X019705Y019498
X020705Y019498
X018705Y019498
X021705Y025498
X016705Y019498
X017705Y019498
X009705Y025498
X022705Y019498
X010705Y025498
X011247Y020710
X010247Y020710
X025705Y025498
X028705Y019498
X018705Y025498
X010706Y024474
X026705Y025498
X008705Y019498
X012705Y025498
X011705Y025498
X029705Y019498
X009705Y024474
X015705Y025498
X007705Y025498
X010705Y019498
X023705Y025498
X014705Y025498
X014705Y019498
X023705Y019498
X019705Y025498
X011705Y019498
X022705Y025498
X020705Y025498
X007705Y019498
T102
X023202Y020275
X031842Y022195
X027282Y018595
X009762Y028195
X018402Y010675
X031842Y013075
X018162Y026275
X030642Y014035
X014322Y024595
X010962Y027235
X016002Y026275
X013602Y021475
X028722Y015715
X026802Y016915
X026802Y024595
X023442Y012835
X025602Y024835
X024882Y027955
X023922Y024595
X022962Y018835
X026802Y026995
X012642Y010195
X028002Y015475
X024882Y016195
X025842Y018835
X018882Y029155
X012642Y024835
X020322Y024835
X007122Y007075
X012402Y007075
X028482Y024835
X017202Y027475
X030882Y020755
X031362Y021475
X012162Y026275
X025602Y022435
T00
M30
