G04 MADE WITH FRITZING*
G04 WWW.FRITZING.ORG*
G04 DOUBLE SIDED*
G04 HOLES PLATED*
G04 CONTOUR ON CENTER OF CONTOUR VECTOR*
%ASAXBY*%
%FSLAX23Y23*%
%MOIN*%
%OFA0B0*%
%SFA1.0B1.0*%
%ADD10C,0.074000*%
%ADD11C,0.075000*%
%ADD12C,0.039370*%
%ADD13C,0.062992*%
%ADD14R,0.074000X0.074000*%
%ADD15R,0.075000X0.075000*%
%ADD16C,0.024000*%
%LNCOPPER0*%
G90*
G70*
G54D10*
X447Y1218D03*
X547Y1218D03*
X647Y1218D03*
X747Y1218D03*
X847Y1218D03*
X447Y1118D03*
X547Y1118D03*
X647Y1118D03*
X747Y1118D03*
X847Y1118D03*
G54D11*
X5047Y2118D03*
X5047Y1818D03*
X4947Y2118D03*
X4947Y1818D03*
X4847Y2118D03*
X4847Y1818D03*
X4747Y2118D03*
X4747Y1818D03*
X4647Y2118D03*
X4647Y1818D03*
X4547Y2118D03*
X4547Y1818D03*
X4447Y2118D03*
X4447Y1818D03*
X4347Y2118D03*
X4347Y1818D03*
X4247Y2118D03*
X4247Y1818D03*
X4147Y2118D03*
X4147Y1818D03*
X4047Y2118D03*
X4047Y1818D03*
X3947Y2118D03*
X3947Y1818D03*
X3847Y2118D03*
X3847Y1818D03*
X3747Y2118D03*
X3747Y1818D03*
X3647Y2118D03*
X3647Y1818D03*
X3547Y2118D03*
X3547Y1818D03*
X3447Y2118D03*
X3447Y1818D03*
X3347Y2118D03*
X3347Y1818D03*
X3247Y2118D03*
X3247Y1818D03*
X3147Y2118D03*
X3147Y1818D03*
G54D12*
X4247Y3818D03*
X4147Y3718D03*
X4047Y3618D03*
X3947Y3518D03*
X3847Y3418D03*
X2847Y618D03*
X2847Y2318D03*
X4447Y618D03*
X2347Y1918D03*
X3547Y1918D03*
X3247Y2818D03*
X1747Y318D03*
X1747Y1418D03*
X2347Y2118D03*
X2147Y2118D03*
X2147Y1718D03*
X2647Y2418D03*
X2647Y1518D03*
X2447Y2518D03*
X2447Y2318D03*
X2947Y2418D03*
X2947Y1618D03*
X3647Y3218D03*
X3747Y3318D03*
X3547Y3118D03*
X3447Y3018D03*
X3347Y2918D03*
X3147Y2718D03*
X4947Y2218D03*
X1547Y1418D03*
X1547Y218D03*
X4947Y2518D03*
X4547Y2618D03*
X4747Y2418D03*
X1247Y418D03*
X1147Y118D03*
X1147Y1518D03*
X1347Y718D03*
X1347Y1418D03*
X1247Y1418D03*
X3047Y2618D03*
X1647Y2618D03*
G54D13*
X247Y2218D03*
X2047Y1618D03*
X2147Y1618D03*
X1947Y2218D03*
X547Y2218D03*
X2247Y1618D03*
X847Y2218D03*
X647Y2218D03*
X747Y2218D03*
X2347Y2218D03*
X2347Y1618D03*
X447Y2218D03*
X2547Y2218D03*
X2447Y2218D03*
X2247Y2218D03*
X2147Y2218D03*
X2447Y1618D03*
X2047Y2218D03*
X2547Y1618D03*
X947Y2218D03*
X1347Y1618D03*
X747Y1618D03*
X1247Y1618D03*
X1047Y1618D03*
X847Y1618D03*
X1147Y1618D03*
X1447Y1618D03*
X347Y2218D03*
X1547Y1618D03*
X1947Y1618D03*
X1747Y1618D03*
X1647Y1618D03*
X1847Y1618D03*
X947Y1618D03*
X1547Y2218D03*
X647Y1618D03*
X1647Y2218D03*
X1347Y2218D03*
X1147Y2218D03*
X1047Y2218D03*
X1247Y2218D03*
X1447Y2218D03*
X1747Y2218D03*
X447Y1618D03*
X547Y1618D03*
X247Y1618D03*
X1847Y2218D03*
X347Y1618D03*
G54D14*
X447Y1118D03*
G54D15*
X5047Y2118D03*
G54D16*
X4646Y1918D02*
X4647Y1846D01*
D02*
X4848Y1918D02*
X4646Y1918D01*
D02*
X4848Y1846D02*
X4848Y1918D01*
D02*
X4247Y3799D02*
X4247Y2146D01*
D02*
X4147Y3699D02*
X4147Y2146D01*
D02*
X4047Y3599D02*
X4047Y2146D01*
D02*
X3947Y3499D02*
X3947Y2146D01*
D02*
X3847Y3399D02*
X3847Y2146D01*
D02*
X2847Y637D02*
X2847Y2299D01*
D02*
X4447Y1789D02*
X4447Y637D01*
D02*
X1747Y1399D02*
X1747Y337D01*
D02*
X2347Y2099D02*
X2347Y1937D01*
D02*
X2147Y2099D02*
X2147Y1737D01*
D02*
X2647Y2399D02*
X2647Y1537D01*
D02*
X2447Y2499D02*
X2447Y2337D01*
D02*
X2947Y2399D02*
X2947Y1637D01*
D02*
X3147Y2699D02*
X3147Y2146D01*
D02*
X3347Y2899D02*
X3347Y2146D01*
D02*
X3447Y2999D02*
X3447Y2146D01*
D02*
X3547Y3099D02*
X3547Y2146D01*
D02*
X3647Y3199D02*
X3647Y2146D01*
D02*
X3747Y3299D02*
X3747Y2146D01*
D02*
X4646Y1918D02*
X4647Y1846D01*
D02*
X4349Y2017D02*
X4646Y1918D01*
D02*
X4348Y2089D02*
X4349Y2017D01*
D02*
X1547Y1399D02*
X1547Y237D01*
D02*
X4947Y2499D02*
X4947Y2237D01*
D02*
X4547Y2599D02*
X4547Y2146D01*
D02*
X4747Y2399D02*
X4747Y2146D01*
D02*
X1147Y1499D02*
X1147Y137D01*
D02*
X1347Y737D02*
X1347Y1399D01*
D02*
X1247Y1399D02*
X1247Y437D01*
D02*
X3247Y2799D02*
X3247Y2146D01*
D02*
X3028Y2618D02*
X1666Y2618D01*
D02*
X3050Y1819D02*
X3047Y2599D01*
D02*
X3119Y1818D02*
X3050Y1819D01*
G04 End of Copper0*
M02*